<svg xmlns="http://www.w3.org/2000/svg" width="69" height="70" viewBox="0 0 69 70">
  <g id="Circle_Button_SIZE_MEDIUM_STATE_DEFAULT_STYLE_STYLE2_" data-name="Circle Button [SIZE=MEDIUM][STATE=DEFAULT][STYLE=STYLE2]" transform="translate(-0.147 0.187)">
    <rect id="Area_SIZE:MEDIUM_STATE:DEFAULT_STYLE:STYLE2_" data-name="Area [SIZE:MEDIUM][STATE:DEFAULT][STYLE:STYLE2]" width="69" height="70" rx="34.5" transform="translate(0.147 -0.187)" fill="#fff0f0"/>
    <g id="Icon_ICON_feather_twitter_SIZE_MEDIUM_STATE_DEFAULT_STYLE_STYLE2_" data-name="Icon [ICON=feather/twitter][SIZE=MEDIUM][STATE=DEFAULT][STYLE=STYLE2]" transform="translate(20.013 21.067)">
      <rect id="Area_ICON:feather_twitter_SIZE:MEDIUM_STATE:DEFAULT_STYLE:STYLE2_" data-name="Area [ICON:feather/twitter][SIZE:MEDIUM][STATE:DEFAULT][STYLE:STYLE2]" width="29" height="29" transform="translate(0.133 -0.253)" fill="rgba(253,73,198,0.35)" opacity="0"/>
      <g id="Icon" transform="translate(0.503 2.306)">
        <path id="_1d326c34-5378-4966-9716-277cb220b235" data-name="1d326c34-5378-4966-9716-277cb220b235" d="M29.841,2.731a14.318,14.318,0,0,1-4.129,2.012A5.892,5.892,0,0,0,15.375,8.688V10A14.019,14.019,0,0,1,3.539,4.046s-5.26,11.836,6.576,17.1a15.319,15.319,0,0,1-9.206,2.63c11.836,6.575,26.3,0,26.3-15.124a5.867,5.867,0,0,0-.106-1.091A10.15,10.15,0,0,0,29.841,2.731Z" transform="translate(-0.909 -2.718)" fill="none" stroke="#fc3465" stroke-linecap="round" stroke-linejoin="round" stroke-width="1.818"/>
      </g>
    </g>
  </g>
</svg>
