<svg width="2000" height="1363" viewBox="0 0 2000 1363" fill="none" xmlns="http://www.w3.org/2000/svg">
<g clip-path="url(#clip0_5_24)">
<path d="M817.531 720.672L827.068 752.098C827.238 752.679 827.583 753.133 828.103 753.46C842.03 762.47 855.818 772.443 869.466 783.379C910.429 816.203 946.105 858.692 966.977 907.248C970.792 916.137 973.698 925.268 975.697 934.641" stroke="#C99A9A" stroke-width="2"/>
<path d="M948.83 1026.98C944.931 1030.5 941.649 1033.12 938.985 1034.82C924.779 1043.92 910.023 1050.5 894.716 1054.57C853.166 1065.61 811.222 1065.87 768.885 1055.33C750.211 1050.69 732.366 1044.26 715.352 1036.02" stroke="#C99A9A" stroke-width="2"/>
<path d="M622.779 801.762C619.074 799.437 615.368 797.081 611.662 794.696C609.046 793.024 607.115 793.503 605.868 796.131C598.771 811.038 595.38 826.77 595.695 843.324C595.913 855.338 597.372 867.29 600.073 879.182" stroke="#C99A9A" stroke-width="2"/>
<path d="M588.611 918.456C588.284 918.335 588.012 918.081 587.794 917.693C584.064 911.129 580.467 904.015 577.004 896.349C573.806 889.246 573.897 883.125 573.407 875.659C570.046 824.578 554.006 750.736 489.737 745.304C486.958 745.086 482.199 744.705 481.908 748.683C477.548 809.083 517.694 859.528 562.435 894.532C562.907 894.908 563.259 895.374 563.489 895.931C569.386 910.463 574.297 921.054 578.221 927.702C580.921 932.28 582.629 935.35 583.343 936.912" stroke="#C99A9A" stroke-width="2"/>
<path d="M566.831 993.479C567.207 993.648 567.122 993.745 566.577 993.769C566.367 993.781 566.154 993.71 565.978 993.57C549.611 980.2 533.262 966.667 516.441 953.951C479.662 926.182 442.03 899.607 403.544 874.224C403.374 874.115 403.235 873.981 403.126 873.824C403.005 873.642 402.865 873.455 402.708 873.261" stroke="#C99A9A" stroke-width="2"/>
<path d="M467.14 651.935C471.56 644.596 473.855 636.724 474.024 628.32" stroke="#C99A9A" stroke-width="2"/>
<path d="M1692.1 1014.13L1659.67 1013.21C1657.63 1013.15 1656.74 1012.1 1657 1010.08C1657.04 1009.84 1657.11 1009.62 1657.22 1009.41C1658.26 1007.54 1659.72 1006.67 1661.6 1006.79C1670.82 1007.39 1680.22 1007.47 1689.81 1007.05" stroke="#C99A9A" stroke-width="2"/>
<path d="M1680.22 976.422C1656.07 974.048 1631.94 970.07 1607.83 964.487C1605.89 964.039 1604.6 962.876 1603.94 960.999C1603.63 960.115 1603.68 959.322 1604.11 958.619C1605.58 956.076 1607.77 955.077 1610.66 955.622C1633.06 959.812 1654.96 962.725 1676.39 964.36" stroke="#C99A9A" stroke-width="2"/>
<path d="M1642.11 855.041C1587.15 896.894 1534.7 941.496 1484.74 988.847C1484.39 989.186 1484.15 989.573 1484.02 990.009" stroke="#C99A9A" stroke-width="2"/>
<path d="M558.221 1023.09C558.064 1022.51 557.773 1022.04 557.349 1021.69C511.96 984.85 465.191 949.87 417.041 916.749C409.593 911.614 402.054 906.588 394.425 901.671" stroke="#C99A9A" stroke-width="2"/>
<path d="M354.025 1040.45C354.134 1040.61 354.231 1040.73 354.316 1040.8C354.376 1040.86 354.443 1040.88 354.516 1040.87C387.262 1038.24 419.977 1032.69 452.663 1024.21C455.884 1023.38 458.415 1024.34 460.256 1027.1C460.619 1027.64 460.831 1028.23 460.892 1028.88C461.134 1031.46 460.008 1033.1 457.513 1033.81C421.764 1043.92 387.667 1051.54 351.537 1054.73C351.246 1054.76 350.974 1054.84 350.719 1054.99C350.538 1055.08 350.332 1055.19 350.102 1055.31" stroke="#C99A9A" stroke-width="2"/>
<path d="M347.758 1086.56C364.421 1087.65 381.479 1087.1 398.929 1084.9C399.842 1084.8 400.757 1084.96 401.563 1085.36C403.646 1086.4 404.609 1087.71 404.452 1089.3C404.394 1089.88 404.144 1090.42 403.743 1090.84C403.342 1091.26 402.812 1091.54 402.236 1091.63C384.567 1094.19 366.71 1095.21 348.666 1094.68" stroke="#C99A9A" stroke-width="2"/>
<path d="M862.491 1172.63C862.564 1172.09 862.273 1171.58 861.619 1171.08C856.375 1167 851.023 1162.24 845.561 1156.8C838.495 1149.81 848.304 1138.95 855.624 1145.61C863.193 1152.53 870.938 1158.94 878.858 1164.85" stroke="#C99A9A" stroke-width="2"/>
<path d="M938.711 1061.36C920.982 1069.17 908.109 1074.13 900.092 1076.22C851.276 1088.91 803.131 1087.6 755.659 1072.28C746.238 1069.24 735.308 1065.06 722.871 1059.73" stroke="#C99A9A" stroke-width="2"/>
<path d="M1215.95 744.56C1215.89 745.238 1215.66 745.752 1215.26 746.104C1175.53 781.29 1141.51 825.904 1125.67 875.386C1108.19 929.937 1123.8 986.14 1177.77 1010.74C1226.49 1032.95 1281.02 1033.21 1331.97 1016.66C1335.91 1015.37 1340.06 1013.99 1344.43 1012.5" stroke="#C99A9A" stroke-width="2"/>
<path d="M1317.46 1105.47C1287.47 1128.89 1255.56 1149.47 1221.73 1167.21C1215.56 1170.45 1209.34 1173.48 1203.07 1176.33" stroke="#C99A9A" stroke-width="2"/>
<path d="M987.54 893.37C973.94 864.753 957.282 839.213 937.567 816.748C908.175 783.239 874.152 754.726 835.496 731.208" stroke="#C99A9A" stroke-width="2"/>
<path d="M1563.71 605.613C1562.57 613.461 1564.69 620.206 1570.06 625.849" stroke="#C99A9A" stroke-width="2"/>
<path d="M1634.12 829.664C1587.93 864.42 1551.29 894.296 1524.2 919.292C1507.98 934.248 1491.85 949.204 1475.8 964.16" stroke="#C99A9A" stroke-width="2"/>
<path d="M1463.71 925.486C1464 925.098 1464.06 924.778 1463.91 924.523C1481.95 901.974 1495.71 876.978 1505.18 849.537C1506.03 847.115 1507.28 845.141 1508.94 843.615C1546.31 809.428 1578.28 763.978 1571.54 711.953C1571.26 709.882 1570.08 708.943 1568.01 709.137C1555.41 710.3 1544.17 714.417 1534.3 721.49C1501.29 745.177 1494.95 801.617 1495.95 838.438C1496.04 841.247 1495.52 844.069 1494.41 846.903C1485.77 869.028 1474.1 889.573 1459.4 908.538C1459.26 908.732 1458.97 908.822 1458.53 908.81" stroke="#C99A9A" stroke-width="2"/>
<path d="M1452.95 891.626C1457.35 882.192 1461.36 872.461 1464.98 862.434C1477.06 829.01 1480.49 791.335 1463.31 759.183C1463.16 758.898 1462.95 758.647 1462.7 758.444C1462.45 758.241 1462.16 758.091 1461.85 758.003C1461.54 757.915 1461.21 757.89 1460.89 757.93C1460.57 757.971 1460.26 758.075 1459.98 758.238C1441.23 769.258 1430.12 785.668 1426.67 807.466" stroke="#C99A9A" stroke-width="2"/>
<path d="M1350.7 991.226C1350.14 991.42 1349.47 991.675 1348.67 991.989C1324.87 1001.42 1300.84 1006.92 1276.57 1008.47C1257.48 1009.68 1236.62 1007.97 1218.88 1004.14C1208.15 1001.83 1197.51 998.141 1186.96 993.079C1175.01 987.351 1164.96 979.698 1156.82 970.118C1108.58 913.315 1170.92 817.039 1214.24 775.55C1215.97 773.915 1217.62 771.136 1218.31 768.829C1221.34 758.535 1224.39 748.241 1227.45 737.948C1227.85 736.603 1227.32 735.804 1225.87 735.55" stroke="#C99A9A" stroke-width="2"/>
<path d="M1549.79 720.763C1522.56 736.24 1509.08 772.135 1502.93 801.272C1502.89 801.442 1502.96 801.545 1503.13 801.581H1503.14C1503.34 801.641 1503.47 801.569 1503.53 801.363C1509.57 781.648 1518 763.034 1528.81 745.523C1534.64 736.101 1541.69 727.987 1549.97 721.181C1550.11 721.072 1550.13 720.951 1550.03 720.818C1549.97 720.721 1549.89 720.703 1549.79 720.763Z" stroke="#C99A9A" stroke-width="2"/>
<path d="M1562.33 737.057C1553.19 766.158 1538.49 791.644 1521.13 817.893C1521.09 817.941 1521.1 817.99 1521.15 818.038C1521.3 818.208 1521.44 818.232 1521.54 818.111C1526.59 812.37 1531.43 806.449 1536.04 800.345C1550.28 781.477 1559.11 760.321 1562.53 736.876C1562.53 736.839 1562.53 736.809 1562.53 736.785C1562.51 736.748 1562.49 736.742 1562.45 736.767C1562.42 736.803 1562.39 736.845 1562.38 736.894C1562.36 736.942 1562.34 736.997 1562.33 737.057Z" stroke="#C99A9A" stroke-width="2"/>
<path d="M1514.62 794.932L1515.06 795.15C1515.1 795.175 1515.12 795.169 1515.13 795.132C1526.08 776.773 1536.68 758.117 1546.92 739.165C1548.06 737.046 1547.89 736.937 1546.41 738.838C1533.79 755.029 1523.16 773.637 1514.51 794.66C1514.47 794.781 1514.5 794.872 1514.62 794.932Z" stroke="#C99A9A" stroke-width="2"/>
<path d="M1554.46 738.965L1517.11 807.484C1517.11 807.484 1517.1 807.486 1517.1 807.49C1517.1 807.493 1517.09 807.498 1517.09 807.503C1517.09 807.507 1517.1 807.512 1517.1 807.515C1517.1 807.519 1517.11 807.521 1517.11 807.521L1517.2 807.557C1517.72 807.835 1520.16 804.512 1524.01 798.319C1527.86 792.126 1532.78 783.57 1537.71 774.533L1537.93 774.151C1542.85 765.127 1547.37 756.362 1550.49 749.776C1553.61 743.19 1555.09 739.322 1554.59 739.019L1554.48 738.965L1554.47 738.962L1554.46 738.965Z" stroke="#C99A9A" stroke-width="2"/>
<path d="M1435.28 833.098C1435.27 833.231 1435.25 833.34 1435.24 833.424C1435.23 833.497 1435.24 833.546 1435.28 833.57C1435.28 833.57 1435.28 833.57 1435.3 833.57C1435.3 833.57 1435.3 833.564 1435.3 833.552C1436.99 813.001 1441.87 793.443 1449.92 774.878C1450.92 772.565 1450.62 772.377 1449.01 774.315C1436.42 789.477 1431.39 807.763 1433.93 829.174C1434.08 830.397 1434.48 831.553 1435.15 832.643C1435.25 832.789 1435.29 832.94 1435.28 833.098Z" stroke="#C99A9A" stroke-width="2"/>
<path d="M1463.07 778.711C1464.73 807.097 1462.13 835.362 1455.28 863.506C1455.22 863.736 1455.3 863.882 1455.51 863.942H1455.53C1455.8 864.027 1455.98 863.936 1456.08 863.67C1462.35 846.861 1466.04 829.888 1467.14 812.752C1467.78 802.919 1466.72 791.584 1463.94 778.747C1463.91 778.577 1463.8 778.505 1463.63 778.529L1463.18 778.583C1463.11 778.596 1463.07 778.638 1463.07 778.711Z" stroke="#C99A9A" stroke-width="2"/>
<path d="M1451.23 790.936C1446.27 809.319 1443.14 827.521 1442.73 846.594C1442.73 846.739 1442.79 846.818 1442.93 846.83H1442.94C1443.09 846.842 1443.18 846.776 1443.22 846.63C1446.8 828.223 1449.68 809.7 1451.85 791.063C1451.86 790.881 1451.77 790.772 1451.59 790.736L1451.57 790.718C1451.39 790.681 1451.28 790.754 1451.23 790.936Z" stroke="#C99A9A" stroke-width="2"/>
<path d="M1456.8 809.211C1456.81 809.156 1456.8 809.101 1456.79 809.048C1456.78 808.995 1456.75 808.945 1456.72 808.901C1456.69 808.857 1456.65 808.819 1456.6 808.791C1456.55 808.763 1456.5 808.745 1456.45 808.737C1456.39 808.729 1456.34 808.732 1456.28 808.745C1456.23 808.759 1456.18 808.782 1456.14 808.815C1456.09 808.848 1456.05 808.889 1456.03 808.936C1456 808.983 1455.98 809.036 1455.97 809.09L1449.11 856.149C1449.1 856.203 1449.1 856.258 1449.12 856.311C1449.13 856.365 1449.15 856.415 1449.19 856.459C1449.22 856.503 1449.26 856.54 1449.31 856.568C1449.35 856.596 1449.41 856.614 1449.46 856.622C1449.51 856.63 1449.57 856.627 1449.62 856.614C1449.68 856.6 1449.73 856.577 1449.77 856.544C1449.81 856.511 1449.85 856.47 1449.88 856.423C1449.91 856.376 1449.93 856.324 1449.93 856.269L1456.8 809.211Z" stroke="#C99A9A" stroke-width="2"/>
<path d="M563.835 845.213C558.652 824.723 550.865 806.061 540.475 789.228C531.876 775.277 520.765 764.523 507.141 756.967C506.96 756.858 506.778 756.858 506.596 756.967L506.088 757.257C505.991 757.318 506.021 757.396 506.178 757.493C520.366 766.83 531.392 781.944 539.984 796.349C549.273 811.898 557.108 828.223 563.49 845.322C563.526 845.419 563.599 845.456 563.708 845.431L563.726 845.413C563.823 845.389 563.859 845.322 563.835 845.213Z" stroke="#C99A9A" stroke-width="2"/>
<path d="M500.673 793.134C498.191 787.732 496.089 782.265 494.37 776.73C494.358 776.694 494.339 776.682 494.315 776.694L493.879 776.821C493.613 776.894 493.51 777.063 493.571 777.33C498.281 797.081 504.972 813.8 513.643 827.484C522.036 840.721 532.42 853.261 544.797 865.104C544.966 865.262 545.13 865.262 545.287 865.104H545.305C545.438 864.971 545.445 864.832 545.323 864.687C527.013 841.944 512.129 818.093 500.673 793.134Z" stroke="#C99A9A" stroke-width="2"/>
<path d="M550.084 836.458C539.487 814.744 526.432 794.847 510.919 776.767C510.798 776.633 510.665 776.621 510.52 776.73C510.386 776.827 510.362 776.948 510.447 777.094C522.836 797.293 535.848 817.209 549.484 836.839C549.533 836.9 549.587 836.912 549.648 836.876L550.029 836.639C550.102 836.591 550.12 836.53 550.084 836.458Z" stroke="#C99A9A" stroke-width="2"/>
<path d="M547.976 852.498C533.771 828.502 519.148 804.633 505.015 782.217C501.842 777.203 501.503 777.385 503.998 782.762C507.328 789.931 511.573 797.7 516.732 806.068C526.323 821.593 536.665 837.209 547.758 852.916C547.94 853.17 548.036 853.14 548.049 852.825C548.061 852.716 548.036 852.607 547.976 852.498Z" stroke="#C99A9A" stroke-width="2"/>
<path d="M608.812 849.664C607.964 839.612 607.51 829.476 607.449 819.255C607.437 817.705 607.582 816.276 607.885 814.968C607.889 814.965 607.892 814.96 607.894 814.956C607.895 814.951 607.896 814.946 607.896 814.941C607.896 814.936 607.895 814.931 607.894 814.926C607.892 814.922 607.889 814.917 607.885 814.914C607.882 814.91 607.877 814.907 607.873 814.905C607.868 814.903 607.863 814.902 607.858 814.902C607.853 814.902 607.848 814.903 607.843 814.905C607.838 814.907 607.834 814.91 607.831 814.914C607.419 815.277 607.019 816.44 606.632 818.401C604.004 831.783 603.737 845.365 605.832 859.146" stroke="#C99A9A" stroke-width="2"/>
<path d="M715.295 74.5502C732.353 47.6473 762.689 31.0079 794.878 33.6782C838.493 37.2931 870.318 71.3713 873.969 114.823C874.89 125.843 873.406 137.796 869.519 150.681C856.313 194.387 821.563 230.681 785.25 257.511C749.537 283.911 710.815 305.237 669.083 321.489C668.66 321.658 668.196 321.702 667.746 321.615C667.295 321.528 666.877 321.314 666.54 320.999C658.281 313.26 650.445 305.268 643.034 297.021C605.25 255.041 571.59 208.81 552.298 155.785C544.862 135.343 541.417 113.696 541.962 90.8444C542.083 85.4917 543.44 77.6322 546.031 67.2659C551.626 44.8015 563.652 27.496 582.107 15.3494C588.623 11.0624 596.936 7.19928 607.048 3.75999C615.937 0.744544 624.893 -0.405927 633.915 0.308575C647.757 1.39849 660.012 4.95284 670.682 10.9716C694.902 24.6561 709.573 45.8127 714.696 74.4412C714.793 74.9861 714.993 75.0225 715.295 74.5502Z" fill="white"/>
<path d="M1310.84 99.001C1310.92 99.0737 1311.02 99.1256 1311.12 99.1516C1311.22 99.1776 1311.33 99.1769 1311.43 99.1496C1311.53 99.1222 1311.62 99.0692 1311.7 98.9954C1311.78 98.9217 1311.83 98.8298 1311.86 98.7285C1319.11 72.3344 1338.75 48.447 1365.36 39.4915C1374.01 36.585 1381.56 34.829 1388.03 34.2235C1405.13 32.6371 1421.06 35.7434 1435.82 43.5423C1454.97 53.6422 1468.36 68.2956 1476 87.5024C1482.54 103.912 1484.14 121.774 1480.78 141.09C1475.19 173.333 1462.32 202.561 1446.36 231.535C1427.17 266.352 1404.26 299.764 1377.62 331.771C1377.23 332.244 1376.73 332.504 1376.11 332.552C1374.56 332.673 1373.05 332.468 1371.57 331.935C1326.23 315.695 1281.14 294.859 1240.84 268.392C1212.26 249.628 1183.87 225.486 1170.24 194.387C1168.95 191.42 1167.93 188.332 1167.18 185.123C1166.7 183.052 1166.12 181.005 1165.43 178.983C1164.84 177.215 1164.43 175.459 1164.2 173.715C1160.64 147.617 1167.28 124.614 1184.14 104.705C1193.48 93.6846 1204.51 85.7464 1217.24 80.8902C1222.72 78.7951 1228.42 77.0997 1234.33 75.8039C1240.35 74.4718 1246.3 73.9147 1252.17 74.1327C1275.06 74.9804 1294.62 83.2699 1310.84 99.001ZM1320.07 127.412C1319.96 128.901 1319.49 129.034 1318.64 127.811C1308.46 113.243 1298.11 101.235 1281.85 93.5878C1263.09 84.7715 1244.24 83.7967 1225.29 90.6631C1213.01 95.1076 1203.15 101.471 1195.73 109.755C1175.77 132.001 1170.4 157.281 1179.6 185.595C1183.94 198.965 1193.75 211.989 1203.69 222.398C1226.45 246.231 1254.42 264.033 1284.07 279.8C1312.53 294.938 1341.66 307.975 1371.46 318.91C1372.06 319.128 1372.55 318.995 1372.93 318.511C1393.41 293.067 1411.69 266.854 1427.77 239.873C1443.65 213.206 1458 184.142 1465.76 154.532C1470.54 136.331 1472.79 115.677 1467.05 97.8021C1453.97 57.0028 1409.15 35.2953 1368.9 50.9356C1350.26 58.1896 1336.45 71.3171 1327.47 90.318C1321.58 102.761 1320.96 114.369 1320.07 127.412Z" fill="white"/>
<path d="M817.53 720.672L827.067 752.098C827.236 752.68 827.581 753.134 828.102 753.461C842.029 762.471 855.816 772.443 869.465 783.379C910.427 816.204 946.104 858.692 966.976 907.248C970.791 916.137 973.697 925.268 975.695 934.641L948.829 1026.98C944.929 1030.5 941.647 1033.12 938.983 1034.82C924.778 1043.92 910.022 1050.5 894.714 1054.57C853.164 1065.61 811.221 1065.87 768.883 1055.33C750.209 1050.69 732.365 1044.26 715.35 1036.02L632.425 771.644C632.159 770.796 631.899 770.802 631.644 771.662L622.78 801.762C619.074 799.437 615.368 797.082 611.662 794.696C609.047 793.025 607.115 793.503 605.868 796.131C598.771 811.039 595.38 826.77 595.695 843.324C595.913 855.338 597.373 867.29 600.073 879.183L588.611 918.456C588.284 918.335 588.011 918.081 587.793 917.693C584.063 911.129 580.467 904.015 577.003 896.349C573.806 889.246 573.897 883.125 573.406 875.659C570.046 824.578 554.006 750.736 489.737 745.304C486.958 745.086 482.198 744.705 481.908 748.683C477.548 809.083 517.693 859.528 562.435 894.532C562.907 894.908 563.258 895.374 563.488 895.931C569.386 910.463 574.296 921.054 578.22 927.702C580.921 932.28 582.628 935.35 583.343 936.912L566.831 993.479C567.206 993.648 567.121 993.745 566.576 993.769C566.366 993.781 566.153 993.71 565.977 993.57C549.61 980.2 533.261 966.667 516.44 953.951C479.661 926.182 442.029 899.607 403.543 874.224C403.373 874.115 403.234 873.981 403.125 873.824C403.004 873.642 402.864 873.455 402.707 873.261L467.139 651.935C471.56 644.596 473.854 636.724 474.024 628.32C493.049 562.67 512.159 496.948 531.354 431.154C536.392 413.872 540.43 402.44 543.47 396.858C552.625 380 565.426 367.03 581.871 357.947C593.207 351.699 604.451 347.975 615.604 346.776C649.701 343.088 685.068 357.421 705.141 385.432C711.172 393.848 716.313 403.567 720.563 414.587C725.577 427.593 730.373 447.085 736.858 464.505C739.074 470.445 741.326 476.367 743.252 482.525C768.042 561.677 792.262 639.237 815.913 715.204C816.543 717.227 817.082 719.049 817.53 720.672Z" fill="white"/>
<path d="M1215.95 744.559C1215.89 745.238 1215.66 745.752 1215.26 746.103C1175.53 781.29 1141.51 825.904 1125.67 875.386C1108.19 929.936 1123.8 986.14 1177.77 1010.74C1226.49 1032.95 1281.02 1033.21 1331.97 1016.66C1335.91 1015.37 1340.06 1013.99 1344.43 1012.5L1317.46 1105.47C1287.47 1128.89 1255.56 1149.47 1221.73 1167.21C1215.56 1170.44 1209.34 1173.48 1203.07 1176.33C1197.6 1175.58 1192.42 1174.19 1187.54 1172.15C1163.6 1162.14 1146.31 1146.12 1135.68 1124.09C1133.39 1119.34 1129.41 1107.92 1123.74 1089.83C1090.42 983.597 1057.19 877.717 1024.05 772.189C1023.65 770.954 1023.27 770.96 1022.91 772.207L987.54 893.369C973.94 864.753 957.282 839.213 937.567 816.748C908.175 783.239 874.152 754.726 835.496 731.208C866.244 625.74 896.816 520.66 927.213 415.967C939.093 375.077 974.025 348.12 1017.57 346.303C1027.33 345.904 1037.31 347.363 1047.52 350.681C1085.9 363.142 1105.09 391.371 1116.62 428.065C1149.73 533.4 1182.84 638.898 1215.95 744.559Z" fill="white"/>
<path d="M1563.71 605.613C1562.57 613.461 1564.69 620.206 1570.06 625.849L1634.11 829.664C1587.93 864.42 1551.29 894.296 1524.2 919.292C1507.98 934.248 1491.85 949.204 1475.8 964.16L1463.71 925.486C1464 925.099 1464.06 924.778 1463.9 924.523C1481.95 901.974 1495.71 876.979 1505.18 849.537C1506.02 847.115 1507.28 845.141 1508.94 843.615C1546.3 809.428 1578.27 763.978 1571.53 711.953C1571.26 709.882 1570.08 708.944 1568.01 709.137C1555.4 710.3 1544.17 714.417 1534.3 721.49C1501.29 745.177 1494.95 801.617 1495.95 838.438C1496.03 841.248 1495.52 844.069 1494.4 846.903C1485.77 869.028 1474.1 889.573 1459.4 908.538C1459.25 908.732 1458.96 908.823 1458.53 908.81L1452.95 891.626C1457.35 882.192 1461.36 872.462 1464.98 862.434C1477.06 829.01 1480.49 791.335 1463.31 759.183C1463.15 758.898 1462.95 758.647 1462.7 758.444C1462.44 758.241 1462.15 758.091 1461.84 758.003C1461.53 757.915 1461.21 757.89 1460.89 757.931C1460.57 757.971 1460.26 758.076 1459.98 758.238C1441.22 769.258 1430.12 785.668 1426.67 807.466L1415.42 771.79C1415.13 770.869 1414.85 770.869 1414.59 771.79L1350.7 991.226C1350.14 991.42 1349.46 991.675 1348.66 991.989C1324.87 1001.42 1300.83 1006.92 1276.57 1008.47C1257.47 1009.68 1236.62 1007.97 1218.87 1004.14C1208.14 1001.83 1197.5 998.141 1186.96 993.079C1175 987.351 1164.96 979.697 1156.82 970.118C1108.57 913.315 1170.92 817.039 1214.24 775.55C1215.97 773.915 1217.62 771.136 1218.31 768.829C1221.34 758.535 1224.38 748.241 1227.45 737.948C1227.85 736.603 1227.32 735.804 1225.87 735.55C1255.25 634.66 1284.63 533.794 1314 432.952C1318.89 416.228 1322.71 405.068 1325.47 399.473C1335.02 380.133 1350.04 365.492 1370.54 355.55C1395.79 343.288 1427.21 343.742 1452.48 355.931C1469.4 364.093 1482.89 376.434 1492.95 392.952C1500.04 404.596 1504.81 417.275 1509.01 430.536C1527.25 488.387 1545.48 546.746 1563.71 605.613Z" fill="white"/>
<path d="M1692.1 1014.13L1659.67 1013.21C1657.63 1013.15 1656.74 1012.1 1657 1010.08C1657.04 1009.84 1657.11 1009.62 1657.22 1009.41C1658.26 1007.54 1659.72 1006.67 1661.6 1006.79C1670.81 1007.39 1680.22 1007.47 1689.81 1007.05C1691.06 1007.11 1692.35 1007.1 1693.68 1007.03C1738.91 1004.81 1782.56 990.736 1817.8 962.834C1819.78 961.272 1819.58 960.92 1817.2 961.78C1793.16 970.572 1767.96 975.713 1741.6 977.203C1718.7 978.498 1698.24 978.238 1680.22 976.422C1656.07 974.048 1631.94 970.07 1607.83 964.487C1605.89 964.039 1604.59 962.876 1603.94 960.999C1603.63 960.115 1603.68 959.322 1604.1 958.619C1605.58 956.076 1607.77 955.077 1610.66 955.622C1633.05 959.812 1654.96 962.725 1676.38 964.36C1715.28 967.993 1751.39 965.601 1784.72 957.184C1806.67 951.626 1827.06 943.56 1845.9 932.988C1847.59 932.056 1848.97 930.808 1850.04 929.246C1877.69 889.537 1888.08 844.051 1875.48 796.53C1868.88 771.668 1856.11 748.562 1837.18 727.212C1836.59 726.534 1835.88 726.394 1835.06 726.794C1797.58 745.195 1762.58 767.648 1728.46 791.662C1699.17 812.274 1670.38 833.4 1642.11 855.041C1587.15 896.894 1534.69 941.496 1484.74 988.847C1484.39 989.186 1484.15 989.573 1484.01 990.009C1483.5 990.009 1483.17 990.094 1483 990.263C1458.52 1014.1 1428.95 1041.44 1394.28 1072.3C1355.16 1107.11 1315.69 1137.06 1275.88 1162.13C1250.49 1178.12 1221.34 1192.3 1188.43 1204.67C1156.34 1216.73 1122.57 1225.27 1087.12 1230.3C1086.91 1230.32 1086.82 1230.43 1086.83 1230.63V1230.64C1086.84 1230.9 1086.97 1231.03 1087.23 1231.04C1130.85 1232.16 1173.1 1226.5 1213.99 1214.08C1235.24 1207.62 1260.09 1197.86 1288.54 1184.8C1290.92 1183.71 1293.09 1182.21 1295.04 1180.31C1311.69 1164.07 1330.03 1149.4 1350.06 1136.31C1362.78 1127.99 1378.02 1120.04 1393.19 1117.09C1393.61 1117.01 1394.05 1117.02 1394.47 1117.12C1394.89 1117.22 1395.28 1117.4 1395.63 1117.66C1395.97 1117.92 1396.26 1118.24 1396.47 1118.62C1396.68 1118.99 1396.81 1119.41 1396.86 1119.84C1396.95 1120.84 1396.8 1121.8 1396.4 1122.71C1380.42 1159.38 1338.65 1181.44 1300.8 1186.43C1297.33 1186.89 1294.17 1187.79 1291.32 1189.14C1277.58 1195.6 1263.05 1202.16 1247.72 1208.81C1243.92 1210.46 1244.04 1210.84 1248.08 1209.97C1264.3 1206.47 1280.78 1203.45 1297.53 1200.91C1300.4 1200.48 1302.69 1199.42 1304.41 1197.73C1306.56 1195.6 1308.67 1193.43 1310.75 1191.23C1316.02 1185.67 1324.05 1189.39 1325.49 1196.04C1325.64 1196.75 1326.08 1197.06 1326.79 1196.97C1331.67 1196.35 1336.89 1195.8 1342.43 1195.33C1344.82 1195.13 1347.11 1194.39 1349.32 1193.13C1365.59 1183.85 1382.21 1176.05 1399.16 1169.75C1433.95 1156.82 1468.81 1156.73 1499.87 1179.24C1502.48 1181.11 1502.98 1183.14 1501.4 1185.32C1487.39 1204.49 1468.91 1216.12 1445.96 1220.2C1428.63 1223.27 1411.15 1221.78 1393.37 1218.69C1377.49 1215.93 1363.14 1211.17 1350.32 1204.4C1348.69 1203.54 1347.25 1202.4 1345.99 1201C1345.55 1200.5 1344.99 1200.29 1344.32 1200.36L1324.54 1202.62C1323.87 1202.69 1323.3 1202.96 1322.81 1203.43L1303.18 1222.87C1302.72 1223.33 1302.81 1223.55 1303.47 1223.54C1316.39 1223.48 1327.47 1224.61 1336.71 1226.94C1355.08 1231.55 1369.37 1241.91 1385.14 1254.35C1385.64 1254.74 1385.91 1255.25 1385.98 1255.88C1386.23 1258.23 1385.3 1259.96 1383.2 1261.09C1373.44 1266.29 1363.38 1269.42 1353.02 1270.48C1340.56 1271.77 1327.03 1270.88 1314.97 1267.47C1299.27 1263.01 1284.79 1256.67 1271.53 1248.45C1270.98 1248.1 1270.42 1248.1 1269.86 1248.45C1234.46 1271.42 1196.27 1286.73 1155.28 1294.39C1146.87 1295.96 1138.75 1297.83 1130.92 1299.98C1071.26 1316.38 1011.03 1318.7 950.208 1306.94C945.134 1305.96 940.429 1305.61 936.094 1305.9C916.257 1307.19 896.59 1308.73 877.093 1310.54C876.451 1310.6 875.93 1310.88 875.53 1311.39C871.268 1317.03 865.848 1322.06 859.273 1326.47C851.074 1331.96 843.051 1336.95 835.204 1341.42C801.707 1360.47 762.197 1369.88 726.611 1352.7C724.274 1351.57 723.196 1349.71 723.378 1347.12C723.414 1346.58 723.638 1346.12 724.05 1345.76C743.178 1328.19 760.817 1314.62 785.649 1309.41C808.192 1304.69 832.624 1305.27 856.203 1305.83C863.251 1306 870.365 1305.62 877.547 1304.69C891.861 1302.82 905.981 1301.98 919.908 1302.16C924.401 1302.21 924.456 1301.76 920.072 1300.82C871.57 1290.39 820.381 1284.12 766.502 1282.02C765.848 1281.99 765.316 1282.24 764.904 1282.76C763.959 1283.98 763.087 1284.83 761.761 1285.67C754.822 1290.06 748.228 1293.61 741.979 1296.29C708.028 1310.92 668.064 1317.4 632.551 1305.94C616.384 1300.72 601.937 1290.37 589.209 1274.88C586.993 1272.21 589.136 1269.32 591.389 1267.68C604.165 1258.32 615.803 1251.9 626.303 1248.43C639.006 1244.21 654.162 1243.03 671.77 1244.89C701.598 1248.01 732.097 1260.93 759.49 1274.26C762.118 1275.53 764.807 1276.22 767.556 1276.33C803.923 1277.8 840.017 1281.42 875.839 1287.21C878.976 1287.72 879.055 1287.42 876.075 1286.3C859.158 1279.92 842.542 1273.56 826.23 1267.23C822.185 1265.66 818.261 1264.68 814.459 1264.31C770.844 1259.98 724.45 1239.84 703.723 1199.58C702.924 1198.04 702.609 1196.46 702.778 1194.82C702.821 1194.41 702.945 1194.01 703.144 1193.65C703.342 1193.29 703.611 1192.97 703.934 1192.71C704.257 1192.46 704.628 1192.27 705.025 1192.16C705.422 1192.04 705.838 1192.01 706.248 1192.06C722.96 1194.1 739.018 1201.49 753.641 1209.79C778.334 1223.79 800.405 1239.36 819.854 1256.49C822.385 1258.72 825.128 1260.42 828.083 1261.58C857.51 1273.04 884.262 1281.94 908.337 1288.28C956.172 1300.87 1004.73 1305.07 1054.02 1300.89C1055.23 1300.79 1056.35 1300.49 1057.37 1299.98C1058.2 1299.56 1058.15 1299.4 1057.22 1299.51C1055.48 1299.7 1053.82 1299.74 1052.26 1299.62C1010.61 1296.29 970.499 1287.67 931.552 1274.66C903.887 1265.4 870.499 1251.61 842.47 1236.24C813.526 1220.4 785.891 1203.22 759.563 1184.69C699.254 1142.25 642.978 1094.08 586.829 1046.23C578.388 1039.04 569.124 1031.35 559.036 1023.18C558.721 1022.92 558.449 1022.89 558.219 1023.09C558.061 1022.51 557.771 1022.04 557.347 1021.69C511.958 984.85 465.188 949.87 417.038 916.748C409.59 911.614 402.052 906.588 394.422 901.671C349.469 871.335 306.405 844.281 265.231 820.509C241.701 806.921 215.5 793.963 186.629 781.635C186.024 781.368 185.515 781.496 185.104 782.016C157.42 816.312 140.817 858.928 142.415 902.58C143.88 942.471 157.789 978.432 184.141 1010.46C184.928 1011.42 185.885 1012.17 187.011 1012.72C238.328 1037.6 295.458 1045.56 352.878 1041.09C353.496 1041.04 353.877 1040.83 354.023 1040.45C354.132 1040.61 354.229 1040.73 354.313 1040.8C354.374 1040.86 354.44 1040.88 354.513 1040.87C387.259 1038.24 419.975 1032.69 452.66 1024.21C455.882 1023.38 458.413 1024.34 460.253 1027.1C460.617 1027.64 460.829 1028.23 460.889 1028.88C461.131 1031.46 460.005 1033.1 457.51 1033.81C421.761 1043.92 387.665 1051.54 351.534 1054.73C351.243 1054.76 350.971 1054.84 350.717 1054.99C350.535 1055.08 350.329 1055.19 350.099 1055.31C349.881 1054.97 349.294 1054.86 348.337 1054.97C304.752 1059.59 261.888 1055.74 219.745 1043.42C219.686 1043.4 219.623 1043.4 219.567 1043.42C219.51 1043.45 219.465 1043.49 219.438 1043.55C219.412 1043.6 219.406 1043.67 219.422 1043.72C219.439 1043.78 219.476 1043.84 219.527 1043.87C231.177 1052.53 244.123 1059.98 258.364 1066.23C286.92 1078.76 316.717 1085.54 347.756 1086.56C364.419 1087.65 381.477 1087.1 398.927 1084.9C399.84 1084.8 400.755 1084.96 401.561 1085.36C403.644 1086.4 404.607 1087.71 404.45 1089.3C404.392 1089.88 404.142 1090.42 403.741 1090.84C403.34 1091.26 402.81 1091.54 402.233 1091.63C384.565 1094.19 366.708 1095.21 348.664 1094.68C348.664 1094.65 348.664 1094.63 348.664 1094.61C348.664 1094.53 348.622 1094.5 348.537 1094.5C291.698 1092.59 234.713 1073.3 192.896 1035.04C190.269 1032.63 187.429 1030.76 184.377 1029.43C170.995 1023.55 157.408 1015.76 143.614 1006.05C107.61 980.727 78.8547 946.013 65.0491 904.996C49.5359 858.916 55.6516 816.494 83.396 777.729C88.9667 769.955 95.0824 762.592 101.743 755.64C102.312 755.047 102.197 754.672 101.398 754.514C69.8266 748.144 38.3884 746.152 7.08357 748.538C3.08721 748.841 0.574349 747.048 -0.455018 743.161C-0.58823 742.676 -0.630629 742.186 -0.582189 741.689C-0.279433 738.601 1.39787 736.755 4.44964 736.149C41.8217 728.701 80.4169 729.071 120.235 737.257C120.524 737.319 120.823 737.315 121.109 737.246C121.396 737.177 121.662 737.044 121.888 736.857C140.477 721.574 160.641 708.356 182.379 697.203C238.376 668.477 296.869 648.907 357.856 638.492C395.748 632.013 432.987 628.828 469.572 628.937C471.776 628.95 473.26 628.744 474.023 628.32C473.853 636.724 471.558 644.596 467.138 651.935C446.393 651.68 425.667 652.625 404.958 654.768C391.976 656.101 380.199 658.28 369.627 661.308C321.906 674.95 276.166 697.348 237.946 728.465C224.989 739.025 213.036 750.179 202.088 761.926C202.021 762 201.972 762.09 201.946 762.187C201.921 762.284 201.918 762.385 201.94 762.481C201.961 762.578 202.006 762.667 202.07 762.741C202.134 762.815 202.215 762.872 202.306 762.906C215.434 768.308 228.44 774.169 241.325 780.49C297.093 807.823 350.329 838.595 401.035 872.807C401.41 873.061 401.967 873.212 402.706 873.261C402.863 873.454 403.002 873.642 403.124 873.824C403.233 873.981 403.372 874.115 403.541 874.224C442.028 899.606 479.66 926.182 516.439 953.951C533.26 966.667 549.609 980.2 565.975 993.57C566.152 993.71 566.365 993.781 566.575 993.769C567.12 993.745 567.205 993.648 566.829 993.479C566.987 993.709 567.102 993.945 567.174 994.187C567.245 994.458 567.397 994.699 567.61 994.877C600.175 1022.42 633.55 1050.7 667.738 1079.73C695.748 1103.52 722.827 1125.34 748.973 1145.18C770.135 1161.25 793.387 1176.82 815.058 1190.88C857.662 1218.52 902.566 1240.47 949.772 1256.75C994.241 1272.08 1040.65 1280.44 1087.76 1280.58C1101.82 1280.64 1118.51 1279.24 1130.9 1277.82C1169.36 1273.39 1205.95 1262.17 1240.65 1244.18C1244.67 1242.11 1248.75 1239.76 1252.9 1237.15C1253.61 1236.7 1253.62 1236.23 1252.93 1235.75C1251.32 1234.61 1250.03 1233.19 1249.06 1231.48C1248.72 1230.89 1248.22 1230.57 1247.54 1230.52C1230.43 1229.54 1212.95 1229.11 1195.11 1229.25C1190.15 1229.28 1185.16 1229.91 1180.14 1231.12C1143.01 1240.1 1107.4 1243.52 1073.3 1241.36C1056.98 1240.33 1040.74 1238.08 1024.58 1234.61C1015.58 1232.67 1006.26 1231 996.62 1229.61C975.609 1226.57 956.427 1221.84 939.073 1215.42C911.631 1205.27 886.46 1191.09 863.56 1172.88C863.087 1172.5 862.73 1172.42 862.488 1172.63C862.56 1172.09 862.27 1171.58 861.616 1171.08C856.372 1167 851.019 1162.24 845.558 1156.8C838.491 1149.81 848.301 1138.95 855.621 1145.61C863.19 1152.53 870.935 1158.94 878.855 1164.85C878.915 1164.86 878.976 1164.87 879.036 1164.87C879.097 1164.88 879.151 1164.91 879.2 1164.96C899.618 1179.92 921.834 1191.38 945.848 1199.36C961.664 1204.62 976.832 1208.39 991.352 1210.66C1043.12 1218.78 1094.86 1214.66 1146.57 1198.31C1165.56 1192.3 1184.98 1185.27 1203.07 1176.33C1209.34 1173.48 1215.56 1170.45 1221.72 1167.21C1255.56 1149.47 1287.47 1128.89 1317.46 1105.47C1338.79 1089.43 1360.17 1071.73 1381.6 1052.35C1415.6 1021.58 1447.01 992.183 1475.8 964.16C1491.85 949.204 1507.98 934.248 1524.2 919.292C1551.29 894.296 1587.93 864.42 1634.11 829.664C1683.31 792.05 1734.82 758.135 1788.66 727.92C1799.33 721.938 1809.98 716.367 1820.6 711.208C1821.31 710.857 1821.38 710.403 1820.8 709.846C1793.61 683.966 1762.65 663.536 1727.9 648.556C1709.87 640.781 1690.67 634.417 1670.3 629.464C1659.53 626.836 1647.59 625.201 1634.46 624.56C1612.99 623.482 1591.52 623.912 1570.06 625.849C1564.69 620.206 1562.57 613.461 1563.7 605.613C1608.79 602.44 1650.38 603.724 1688.46 609.464C1725.46 615.047 1761.64 623.942 1797 636.149C1830.49 647.714 1861.78 663.579 1890.88 683.742C1891.44 684.118 1892.04 684.239 1892.7 684.105C1897.5 683.161 1902.69 682.089 1908.25 680.89C1937.31 674.617 1966.67 673.594 1996.33 677.82C1998.99 678.196 2000.26 679.734 2000.13 682.434L2000.09 683.179C1999.91 686.582 1998.12 688.308 1994.71 688.356C1986.24 688.489 1977.55 688.804 1968.65 689.301C1948.63 690.403 1929.08 693.539 1910.01 698.71C1909.94 698.729 1909.89 698.764 1909.84 698.811C1909.79 698.859 1909.76 698.917 1909.75 698.982C1909.73 699.046 1909.73 699.113 1909.75 699.177C1909.76 699.241 1909.8 699.299 1909.84 699.346C1927.3 716.385 1941.23 734.768 1948.9 757.421C1970.46 821.199 1932.08 888.411 1881.85 926.34C1871.45 934.211 1861.34 940.799 1851.53 946.104C1848.07 947.981 1844.92 950.336 1842.07 953.17C1808.7 986.431 1762.42 1006.59 1715.69 1012.26C1712.51 1012.65 1704.64 1013.27 1692.1 1014.13ZM1734.99 640.472C1772.19 656.046 1804.46 677.578 1831.79 705.068C1832.25 705.528 1832.78 705.625 1833.37 705.359C1843.89 700.551 1854.65 696.24 1865.65 692.425C1865.71 692.405 1865.77 692.365 1865.81 692.312C1865.86 692.258 1865.88 692.194 1865.89 692.125C1865.89 692.057 1865.88 691.989 1865.85 691.929C1865.81 691.869 1865.76 691.821 1865.7 691.789C1852.75 684.426 1840.47 677.978 1828.88 672.443C1822.04 669.186 1810.15 664.081 1793.22 657.13C1771.46 648.211 1750.52 642.107 1728.25 637.112C1727.01 636.833 1726.97 636.954 1728.12 637.475C1730.4 638.517 1732.68 639.516 1734.99 640.472ZM297.038 677.33C301.664 675.114 301.519 674.72 296.602 676.149C269.875 683.972 243.626 694.096 217.856 706.521C205.194 712.625 191.988 718.801 180.072 726.049C170.287 732.007 160.574 737.923 150.935 743.797C150.872 743.834 150.821 743.888 150.788 743.954C150.755 744.019 150.741 744.092 150.749 744.165C150.757 744.238 150.785 744.307 150.831 744.364C150.877 744.421 150.938 744.464 151.007 744.487L188.301 756.912C188.967 757.13 189.542 756.991 190.026 756.494C195.494 750.845 200.798 744.759 206.52 739.364C233.211 714.139 263.384 693.461 297.038 677.33ZM1870.19 916.621C1904.25 890.191 1932.1 853.497 1936.58 809.682C1941.05 765.976 1921.13 731.808 1886.87 706.358C1886.36 705.983 1885.8 705.898 1885.19 706.104C1871.64 710.681 1859.07 715.749 1847.47 721.308C1846.8 721.623 1846.7 722.065 1847.17 722.634C1864.32 742.888 1878.67 766.848 1885.52 792.225C1896.91 834.369 1891.24 877.82 1869.7 916.222C1869.65 916.285 1869.63 916.362 1869.64 916.438C1869.65 916.514 1869.69 916.584 1869.75 916.634C1869.81 916.684 1869.89 916.71 1869.97 916.708C1870.05 916.705 1870.13 916.675 1870.19 916.621ZM173.042 775.64C158.873 769.846 144.595 764.814 129.663 760.927C128.997 760.757 128.404 760.896 127.883 761.344C101.852 783.887 80.7257 812.098 77.5286 847.484C73.5504 891.589 91.3161 931.826 121.38 963.869C130.959 974.078 142.264 983.966 155.294 993.533C156.566 994.466 157.868 995.319 159.2 996.094C160.181 996.676 160.369 996.488 159.763 995.531C140.447 964.953 130.705 931.741 130.535 895.895C130.317 852.752 147.356 811.608 173.46 777.148C173.98 776.47 173.841 775.967 173.042 775.64ZM1333.44 1159.15C1348.45 1151.26 1362.03 1142.56 1374.2 1133.04C1375.63 1131.93 1375.53 1131.77 1373.9 1132.57C1357.63 1140.6 1342.46 1150.17 1328.39 1161.29C1326.53 1162.76 1326.62 1162.91 1328.68 1161.74C1330.3 1160.82 1331.89 1159.96 1333.44 1159.15ZM1326.7 1172.28C1326.52 1172.36 1326.47 1172.5 1326.56 1172.7C1326.59 1172.77 1326.65 1172.79 1326.72 1172.77C1341.39 1167.96 1354.75 1160.84 1366.81 1151.41C1370.64 1148.42 1374.93 1144.01 1379.67 1138.18C1379.74 1138.1 1379.77 1138 1379.74 1137.89C1379.73 1137.83 1379.7 1137.78 1379.65 1137.75C1379.53 1137.66 1379.42 1137.66 1379.31 1137.75C1363.12 1151.12 1345.58 1162.63 1326.7 1172.28ZM1428.1 1173.33C1422.53 1174.37 1422.57 1174.64 1428.21 1174.13C1444.53 1172.67 1460.98 1173.91 1477.55 1177.87C1477.62 1177.89 1477.66 1177.86 1477.67 1177.8C1477.69 1177.78 1477.69 1177.75 1477.69 1177.71C1477.73 1177.59 1477.69 1177.51 1477.57 1177.48C1461.39 1171.58 1444.9 1170.2 1428.1 1173.33ZM1383.89 1192.99L1383.98 1193.42C1384 1193.5 1384.05 1193.53 1384.12 1193.52C1409.99 1189 1434.77 1186.08 1458.46 1184.76C1467.94 1184.24 1467.95 1183.53 1458.49 1182.63C1434.24 1180.33 1409.01 1185.52 1384.21 1192.44C1383.92 1192.52 1383.81 1192.7 1383.89 1192.99ZM1468.32 1192.33V1192.32C1468.29 1192.18 1468.21 1192.13 1468.06 1192.15C1445.27 1195.18 1423.22 1197.83 1401.91 1200.11C1395.6 1200.79 1389.19 1201.28 1382.69 1201.6C1379.18 1201.78 1379.16 1202.13 1382.65 1202.63C1389.99 1203.7 1397.49 1204.04 1405.14 1203.67C1426.89 1202.59 1447.85 1198.98 1468.03 1192.84C1468.28 1192.77 1468.38 1192.6 1468.32 1192.33ZM1464.9 1206.25C1468.08 1204.83 1471.39 1202.76 1474.33 1200.82C1475.99 1199.72 1475.89 1199.51 1474.02 1200.2C1453.74 1207.74 1431.97 1212.11 1408.72 1213.3C1408.7 1213.3 1408.68 1213.3 1408.66 1213.31C1408.65 1213.32 1408.63 1213.33 1408.62 1213.34C1408.6 1213.36 1408.59 1213.37 1408.59 1213.39C1408.58 1213.41 1408.57 1213.42 1408.57 1213.44C1408.57 1213.46 1408.57 1213.48 1408.58 1213.49C1408.58 1213.51 1408.59 1213.52 1408.61 1213.54C1408.62 1213.55 1408.63 1213.56 1408.65 1213.56C1408.66 1213.57 1408.68 1213.57 1408.7 1213.57C1428.39 1216.59 1447.13 1214.14 1464.9 1206.25ZM1208.26 1224.76C1206.73 1225.17 1206.76 1225.34 1208.36 1225.27C1223.5 1224.53 1239.96 1224.83 1257.73 1226.16C1260.76 1226.39 1264.2 1226.16 1268.05 1225.47C1271.07 1224.93 1273.93 1223.61 1276.6 1221.51C1282.74 1216.69 1288.43 1212.09 1293.68 1207.7C1294.67 1206.88 1294.53 1206.56 1293.26 1206.76C1264.81 1211.09 1236.48 1217.09 1208.26 1224.76ZM781.834 1237.42C765.485 1225.78 747.12 1214.8 728.882 1207.85C727.211 1207.21 727.12 1207.38 728.609 1208.37C745.854 1220 763.499 1229.85 781.543 1237.93C783.348 1238.73 783.445 1238.56 781.834 1237.42ZM787.047 1250.55C787.071 1250.48 787.053 1250.43 786.993 1250.41C781.846 1248.42 776.857 1246.27 772.025 1243.94C755.216 1235.83 739.636 1226.45 725.285 1215.82C722.306 1213.61 722.052 1213.88 724.522 1216.66C739.745 1233.71 763.886 1245.49 786.629 1251.14C786.763 1251.16 786.847 1251.11 786.884 1250.99L787.047 1250.55ZM1306.34 1234.99C1324.04 1236.89 1340.91 1240.37 1356.93 1245.43C1358.61 1245.96 1358.7 1245.76 1357.2 1244.83C1339.42 1233.7 1320.49 1232.32 1299.35 1233.95C1299.24 1233.95 1299.18 1234.01 1299.18 1234.11L1299.15 1234.57C1299.15 1234.69 1299.21 1234.75 1299.33 1234.75C1301.68 1234.65 1304.01 1234.73 1306.34 1234.99ZM1353.68 1253.81C1338.33 1249.39 1320.87 1247.41 1304.72 1245.74C1304.52 1245.72 1304.39 1245.81 1304.34 1246.01V1246.03C1304.32 1246.2 1304.38 1246.3 1304.54 1246.34C1320.83 1250.55 1337.16 1253.3 1353.53 1254.57C1356.08 1254.76 1356.12 1254.51 1353.68 1253.81ZM676.984 1258.09C676.996 1257.89 676.893 1257.77 676.675 1257.75C671.104 1257.09 665.957 1256.66 661.234 1256.44C645.309 1255.69 630.717 1258.29 617.456 1264.25C614.477 1265.58 614.543 1265.76 617.656 1264.78C636.124 1258.96 655.851 1256.93 676.838 1258.67C676.911 1258.69 676.947 1258.66 676.947 1258.58L676.984 1258.09ZM1312.73 1259.11C1327.04 1264.14 1342.34 1265.54 1358.64 1263.32C1358.83 1263.3 1358.92 1263.19 1358.91 1263L1358.87 1262.54C1358.87 1262.43 1358.81 1262.37 1358.69 1262.36C1342.43 1261.71 1327.19 1260.31 1312.97 1258.18C1309.6 1257.67 1309.52 1257.98 1312.73 1259.11ZM718.8 1276.28C721.682 1276.57 721.719 1276.37 718.909 1275.68C702.682 1271.64 685.485 1269.16 667.32 1268.23C655.24 1267.61 642.76 1268.68 631.044 1270.21C628.67 1270.51 628.67 1270.83 631.044 1271.17C632.194 1271.34 633.32 1271.43 634.422 1271.44C662.7 1271.78 690.826 1273.39 718.8 1276.28ZM726.539 1287.14C727.326 1286.99 727.326 1286.85 726.539 1286.72C724.758 1286.42 722.966 1286.24 721.162 1286.18C690.402 1285.16 659.533 1283.43 628.555 1280.98C628.373 1280.96 628.27 1281.04 628.246 1281.22L628.173 1281.71C628.161 1281.78 628.192 1281.83 628.264 1281.85C660.471 1289.37 693.859 1292.93 726.539 1287.14ZM693.678 1301.62C695.143 1301.39 695.137 1301.23 693.659 1301.14C680.635 1300.31 667.356 1299.8 654.659 1297.73C642.633 1295.74 631.14 1293.19 620.181 1290.08C618.776 1289.69 618.709 1289.86 619.981 1290.59C642.233 1303.43 668.319 1305.47 693.678 1301.62ZM820.054 1317.73C820.041 1317.52 819.926 1317.41 819.708 1317.4C811.643 1317.24 803.208 1317.66 794.404 1318.64C780.853 1320.15 768.355 1324.45 757.038 1331.9C754.519 1333.56 754.677 1333.85 757.51 1332.79C777.323 1325.33 798.104 1320.39 819.854 1317.97C819.987 1317.95 820.054 1317.88 820.054 1317.75V1317.73ZM757.619 1343.45C757.656 1343.6 757.753 1343.66 757.91 1343.65C777.359 1341.27 795.93 1337.09 813.623 1331.14C813.744 1331.1 813.841 1331.03 813.914 1330.94C813.938 1330.89 813.962 1330.83 813.986 1330.77C814.083 1330.53 813.999 1330.43 813.732 1330.48C794.319 1333.44 775.712 1337.6 757.91 1342.96C757.668 1343.03 757.571 1343.19 757.619 1343.43V1343.45ZM756.312 1353.24C774.331 1355.34 791.007 1352.82 806.339 1345.7C807.925 1344.97 807.871 1344.81 806.175 1345.23C789.99 1349.19 773.151 1350.83 756.33 1352.43C753.787 1352.67 753.78 1352.94 756.312 1353.24Z" fill="#923535"/>
<path d="M1463.71 925.486C1463.28 925.498 1462.88 925.734 1462.51 926.194C1435.86 959.122 1403.48 984.856 1365.36 1003.4C1361.59 1005.24 1354.62 1008.27 1344.43 1012.5C1340.06 1013.99 1335.91 1015.37 1331.97 1016.66C1281.02 1033.21 1226.49 1032.95 1177.77 1010.74C1123.8 986.14 1108.19 929.936 1125.67 875.386C1141.51 825.904 1175.53 781.29 1215.26 746.104C1215.66 745.752 1215.89 745.238 1215.95 744.56C1220.21 742.707 1223.52 739.703 1225.87 735.549C1227.32 735.804 1227.85 736.603 1227.45 737.947C1224.38 748.241 1221.34 758.535 1218.31 768.828C1217.62 771.135 1215.97 773.915 1214.24 775.55C1170.92 817.039 1108.57 913.315 1156.82 970.118C1164.96 979.697 1175.01 987.351 1186.96 993.079C1197.51 998.141 1208.14 1001.83 1218.87 1004.14C1236.62 1007.97 1257.48 1009.68 1276.57 1008.47C1300.84 1006.91 1324.87 1001.42 1348.67 991.989C1349.46 991.674 1350.14 991.42 1350.7 991.226C1366.41 985.014 1381.25 977.33 1395.22 968.174C1407.38 960.206 1416.33 952.546 1422.07 945.195C1433.03 931.172 1440.14 915.683 1443.4 898.728C1443.52 898.123 1443.46 897.53 1443.22 896.948C1431.21 868.392 1423.18 837.875 1426.67 807.466C1430.12 785.668 1441.22 769.258 1459.98 758.238C1460.26 758.075 1460.57 757.971 1460.89 757.93C1461.21 757.89 1461.54 757.915 1461.85 758.003C1462.16 758.091 1462.45 758.241 1462.7 758.444C1462.95 758.647 1463.16 758.898 1463.31 759.183C1480.49 791.335 1477.06 829.01 1464.98 862.434C1461.36 872.461 1457.35 882.192 1452.95 891.626C1449.92 897.209 1448.21 900.939 1447.79 902.816C1445.27 914.296 1441.14 924.983 1435.4 934.877C1434.47 936.488 1434.66 936.633 1435.97 935.313C1443.97 927.248 1451.37 918.977 1458.17 910.5C1458.66 909.882 1458.78 909.319 1458.53 908.81C1458.97 908.822 1459.26 908.732 1459.4 908.538C1474.1 889.573 1485.77 869.028 1494.41 846.903C1495.52 844.069 1496.03 841.247 1495.95 838.438C1494.95 801.617 1501.29 745.177 1534.3 721.49C1544.17 714.417 1555.4 710.3 1568.01 709.137C1570.08 708.943 1571.26 709.882 1571.54 711.953C1578.27 763.978 1546.3 809.428 1508.94 843.615C1507.28 845.141 1506.03 847.115 1505.18 849.537C1495.71 876.978 1481.95 901.974 1463.91 924.523C1464.06 924.778 1464 925.098 1463.71 925.486ZM1549.79 720.763C1522.56 736.24 1509.08 772.134 1502.93 801.272C1502.89 801.441 1502.96 801.544 1503.12 801.58H1503.14C1503.34 801.641 1503.46 801.568 1503.52 801.362C1509.57 781.647 1518 763.034 1528.81 745.522C1534.64 736.1 1541.69 727.987 1549.97 721.181C1550.11 721.072 1550.12 720.951 1550.03 720.817C1549.97 720.721 1549.89 720.702 1549.79 720.763ZM1562.33 737.057C1553.19 766.158 1538.49 791.644 1521.13 817.893C1521.09 817.941 1521.1 817.99 1521.15 818.038C1521.3 818.208 1521.44 818.232 1521.54 818.111C1526.59 812.371 1531.43 806.449 1536.04 800.345C1550.28 781.478 1559.11 760.321 1562.53 736.876C1562.53 736.839 1562.53 736.809 1562.53 736.785C1562.51 736.748 1562.49 736.742 1562.45 736.767C1562.42 736.803 1562.39 736.845 1562.38 736.894C1562.36 736.942 1562.34 736.997 1562.33 737.057ZM1514.62 794.932L1515.06 795.15C1515.1 795.174 1515.12 795.168 1515.13 795.132C1526.08 776.773 1536.68 758.117 1546.92 739.164C1548.06 737.045 1547.89 736.936 1546.41 738.837C1533.79 755.029 1523.16 773.636 1514.51 794.659C1514.47 794.781 1514.5 794.871 1514.62 794.932ZM1554.46 738.965L1517.11 807.484C1517.11 807.484 1517.1 807.486 1517.1 807.489C1517.1 807.493 1517.09 807.498 1517.09 807.502C1517.09 807.507 1517.1 807.512 1517.1 807.515C1517.1 807.519 1517.11 807.52 1517.11 807.52L1517.2 807.557C1517.72 807.834 1520.16 804.511 1524.01 798.318C1527.86 792.125 1532.78 783.57 1537.71 774.532L1537.93 774.151C1542.85 765.127 1547.37 756.361 1550.49 749.776C1553.61 743.19 1555.09 739.322 1554.59 739.019L1554.48 738.965C1554.48 738.963 1554.47 738.962 1554.47 738.962C1554.47 738.962 1554.46 738.963 1554.46 738.965ZM1435.28 833.097C1435.27 833.23 1435.25 833.339 1435.24 833.424C1435.23 833.497 1435.24 833.545 1435.28 833.57C1435.28 833.57 1435.28 833.57 1435.3 833.57C1435.3 833.57 1435.3 833.563 1435.3 833.551C1436.99 813 1441.87 793.442 1449.92 774.877C1450.92 772.564 1450.62 772.377 1449.01 774.314C1436.42 789.476 1431.39 807.763 1433.93 829.174C1434.08 830.397 1434.48 831.553 1435.15 832.643C1435.25 832.788 1435.29 832.94 1435.28 833.097ZM1463.07 778.71C1464.73 807.097 1462.13 835.362 1455.28 863.506C1455.22 863.736 1455.3 863.881 1455.51 863.942H1455.53C1455.8 864.027 1455.98 863.936 1456.08 863.669C1462.35 846.86 1466.04 829.888 1467.14 812.752C1467.78 802.919 1466.72 791.583 1463.94 778.747C1463.91 778.577 1463.8 778.504 1463.63 778.529L1463.18 778.583C1463.11 778.595 1463.07 778.638 1463.07 778.71ZM1451.23 790.935C1446.27 809.319 1443.14 827.52 1442.73 846.594C1442.73 846.739 1442.79 846.818 1442.93 846.83H1442.94C1443.09 846.842 1443.18 846.776 1443.22 846.63C1446.8 828.223 1449.68 809.7 1451.84 791.063C1451.86 790.881 1451.77 790.772 1451.59 790.736L1451.57 790.718C1451.39 790.681 1451.28 790.754 1451.23 790.935ZM1449.93 856.269C1449.93 856.323 1449.91 856.376 1449.88 856.423C1449.85 856.47 1449.81 856.511 1449.77 856.544C1449.73 856.577 1449.68 856.6 1449.62 856.614C1449.57 856.627 1449.51 856.63 1449.46 856.622C1449.41 856.614 1449.35 856.596 1449.31 856.568C1449.26 856.54 1449.22 856.502 1449.18 856.458C1449.15 856.414 1449.13 856.364 1449.11 856.311C1449.1 856.258 1449.1 856.203 1449.11 856.148L1455.97 809.09C1455.98 809.035 1456 808.983 1456.03 808.936C1456.05 808.889 1456.09 808.848 1456.14 808.815C1456.18 808.782 1456.23 808.758 1456.28 808.745C1456.34 808.732 1456.39 808.729 1456.45 808.737C1456.5 808.744 1456.55 808.763 1456.6 808.791C1456.65 808.819 1456.69 808.856 1456.72 808.9C1456.75 808.944 1456.78 808.994 1456.79 809.048C1456.8 809.101 1456.81 809.156 1456.8 809.21L1449.93 856.269Z" fill="#923535"/>
<path d="M817.53 720.672L835.496 731.208C874.152 754.726 908.175 783.239 937.567 816.748C957.282 839.213 973.94 864.753 987.539 893.369C990.579 900.49 993.31 908.047 995.732 916.04C1000.76 932.619 1002.74 949.537 1001.69 966.794C999.607 1001.31 984.918 1028.83 957.621 1049.35C952.668 1053.07 946.365 1057.08 938.711 1061.36C920.982 1069.17 908.109 1074.13 900.092 1076.22C851.275 1088.91 803.131 1087.6 755.659 1072.28C746.238 1069.24 735.308 1065.06 722.871 1059.73C664.052 1032.93 617.542 991.989 583.343 936.912C582.629 935.35 580.921 932.28 578.221 927.702C574.297 921.053 569.386 910.463 563.489 895.931C563.259 895.374 562.907 894.907 562.435 894.532C517.694 859.527 477.548 809.082 481.908 748.683C482.199 744.705 486.958 745.086 489.737 745.304C554.006 750.735 570.046 824.577 573.407 875.658C573.897 883.124 573.807 889.246 577.004 896.349C580.467 904.014 584.064 911.129 587.794 917.693C588.012 918.08 588.284 918.335 588.611 918.456C604.185 946.503 623.937 970.729 647.866 991.135C649.344 992.395 649.532 992.225 648.43 990.627C641.745 980.89 636.701 970.227 633.298 958.637C632.172 954.762 630.615 951.105 628.629 947.666C616.156 926 606.637 903.173 600.074 879.182C597.373 867.29 595.914 855.337 595.696 843.324C595.381 826.769 598.772 811.038 605.868 796.131C607.116 793.503 609.047 793.024 611.663 794.695C615.369 797.081 619.074 799.437 622.78 801.762C627.37 805.782 630.567 808.828 632.371 810.899C652.916 834.605 655.133 866.539 650.192 897.184C647.309 915.107 642.944 932.213 637.094 948.501C636.925 948.986 636.901 949.482 637.022 949.991C643.513 976.137 656.719 997.22 676.64 1013.24C681.036 1016.78 687.352 1020.82 695.587 1025.38C702.102 1028.97 708.69 1032.52 715.351 1036.02C732.365 1044.26 750.21 1050.69 768.884 1055.33C811.221 1065.87 853.165 1065.61 894.715 1054.57C910.022 1050.5 924.778 1043.92 938.984 1034.82C941.648 1033.12 944.93 1030.5 948.829 1026.98C970.361 1008.99 980.419 985.77 979.002 957.311C978.614 949.67 977.512 942.113 975.696 934.641C973.697 925.268 970.791 916.137 966.976 907.248C946.104 858.692 910.428 816.203 869.465 783.379C855.817 772.443 842.029 762.47 828.103 753.46C827.582 753.133 827.237 752.679 827.067 752.098L817.53 720.672ZM563.834 845.213C558.651 824.723 550.864 806.061 540.473 789.228C531.875 775.277 520.764 764.523 507.14 756.966C506.958 756.857 506.777 756.857 506.595 756.966L506.086 757.257C505.989 757.317 506.02 757.396 506.177 757.493C520.364 766.83 531.391 781.944 539.983 796.349C549.271 811.898 557.107 828.223 563.489 845.322C563.525 845.419 563.598 845.455 563.707 845.431L563.725 845.413C563.822 845.389 563.858 845.322 563.834 845.213ZM500.673 793.133C498.19 787.732 496.089 782.264 494.37 776.73C494.358 776.694 494.339 776.682 494.315 776.694L493.879 776.821C493.613 776.894 493.51 777.063 493.57 777.329C498.281 797.081 504.972 813.799 513.643 827.484C522.035 840.72 532.42 853.26 544.796 865.104C544.966 865.262 545.13 865.262 545.287 865.104H545.305C545.438 864.971 545.444 864.832 545.323 864.686C527.013 841.943 512.129 818.092 500.673 793.133ZM550.083 836.458C539.486 814.744 526.431 794.847 510.918 776.766C510.797 776.633 510.664 776.621 510.519 776.73C510.385 776.827 510.361 776.948 510.446 777.093C522.835 797.293 535.847 817.208 549.483 836.839C549.532 836.9 549.586 836.912 549.647 836.875L550.028 836.639C550.101 836.591 550.119 836.53 550.083 836.458ZM547.975 852.497C533.77 828.501 519.147 804.632 505.014 782.216C501.842 777.202 501.503 777.384 503.997 782.761C507.328 789.93 511.572 797.699 516.731 806.067C526.322 821.592 536.664 837.208 547.757 852.915C547.939 853.17 548.036 853.139 548.048 852.824C548.06 852.715 548.036 852.606 547.975 852.497ZM642.925 880.599C645.959 856.639 640.691 827.448 622.38 810.245C621.581 809.494 621.424 809.609 621.908 810.59C632.771 832.812 639.619 856.149 642.453 880.599C642.598 881.919 642.756 881.919 642.925 880.599ZM605.832 859.146C606.171 859.909 606.347 860.932 606.359 862.216C606.371 863.451 606.486 864.656 606.704 865.831C609.55 881.429 614.248 896.821 620.8 912.007C620.873 912.164 620.982 912.219 621.127 912.171L621.145 912.152C621.315 912.092 621.375 911.977 621.327 911.807C615.55 891.426 611.378 870.711 608.811 849.664C607.963 839.612 607.509 829.476 607.449 819.255C607.437 817.705 607.582 816.276 607.885 814.968C607.888 814.964 607.891 814.96 607.893 814.955C607.895 814.951 607.896 814.946 607.896 814.941C607.896 814.936 607.895 814.931 607.893 814.926C607.891 814.921 607.888 814.917 607.885 814.913C607.881 814.91 607.877 814.907 607.872 814.905C607.867 814.903 607.862 814.902 607.857 814.902C607.852 814.902 607.847 814.903 607.843 814.905C607.838 814.907 607.834 814.91 607.83 814.913C607.418 815.277 607.019 816.439 606.631 818.401C604.003 831.783 603.737 845.365 605.832 859.146ZM634.206 888.065C632.281 867.805 628.012 848.368 621.4 829.755C620.952 828.471 620.836 828.501 621.054 829.845C624.542 850.578 628.853 871.111 633.988 891.444C634.073 891.795 634.194 892.134 634.351 892.461C634.763 893.357 634.89 893.321 634.733 892.352C634.515 890.875 634.339 889.446 634.206 888.065ZM617.846 852.184C617.834 852.123 617.81 852.065 617.775 852.014C617.741 851.962 617.697 851.918 617.645 851.883C617.594 851.849 617.536 851.825 617.475 851.813C617.414 851.801 617.351 851.801 617.291 851.813L617.255 851.82C617.132 851.844 617.024 851.916 616.954 852.02C616.884 852.124 616.859 852.252 616.883 852.375L626.516 901.022C626.528 901.082 626.552 901.14 626.586 901.192C626.621 901.244 626.665 901.288 626.716 901.322C626.768 901.357 626.826 901.381 626.886 901.393C626.947 901.405 627.01 901.405 627.071 901.393L627.106 901.386C627.229 901.362 627.337 901.29 627.407 901.185C627.477 901.081 627.502 900.954 627.478 900.831L617.846 852.184Z" fill="#923535"/>
<path d="M1502.92 801.272C1509.08 772.134 1522.56 736.24 1549.79 720.763C1549.89 720.702 1549.97 720.721 1550.03 720.817C1550.12 720.951 1550.11 721.072 1549.97 721.181C1541.69 727.987 1534.63 736.1 1528.81 745.522C1517.99 763.034 1509.57 781.647 1503.52 801.362C1503.46 801.568 1503.34 801.641 1503.14 801.58H1503.12C1502.95 801.544 1502.89 801.441 1502.92 801.272Z" fill="white"/>
<path d="M1562.33 737.057C1562.34 736.997 1562.36 736.942 1562.38 736.894C1562.39 736.845 1562.42 736.803 1562.45 736.767C1562.49 736.742 1562.51 736.748 1562.53 736.785C1562.53 736.809 1562.53 736.839 1562.53 736.876C1559.11 760.321 1550.28 781.477 1536.04 800.345C1531.43 806.449 1526.59 812.37 1521.54 818.111C1521.44 818.232 1521.3 818.208 1521.15 818.038C1521.1 817.99 1521.09 817.941 1521.13 817.893C1538.49 791.644 1553.19 766.158 1562.33 737.057Z" fill="white"/>
<path d="M1514.51 794.659C1523.16 773.636 1533.79 755.029 1546.41 738.837C1547.89 736.936 1548.06 737.045 1546.92 739.164C1536.68 758.117 1526.08 776.773 1515.13 795.132C1515.12 795.168 1515.1 795.174 1515.06 795.15L1514.62 794.932C1514.5 794.871 1514.47 794.781 1514.51 794.659Z" fill="white"/>
<path d="M1554.46 738.964L1554.47 738.962L1554.48 738.964L1554.59 739.019C1555.08 739.321 1553.61 743.19 1550.49 749.775C1547.37 756.361 1542.85 765.127 1537.93 774.151L1537.71 774.532C1532.78 783.569 1527.86 792.125 1524.01 798.318C1520.16 804.511 1517.72 807.834 1517.2 807.557L1517.11 807.52C1517.11 807.52 1517.1 807.518 1517.1 807.515C1517.1 807.511 1517.09 807.507 1517.09 807.502C1517.09 807.497 1517.1 807.493 1517.1 807.489C1517.1 807.486 1517.11 807.484 1517.11 807.484L1554.46 738.964Z" fill="white"/>
<path d="M563.832 845.213C563.856 845.322 563.82 845.389 563.723 845.413L563.705 845.431C563.596 845.456 563.523 845.419 563.487 845.322C557.105 828.223 549.27 811.898 539.981 796.349C531.389 781.944 520.363 766.83 506.176 757.493C506.018 757.396 505.988 757.318 506.085 757.257L506.593 756.967C506.775 756.858 506.957 756.858 507.138 756.967C520.762 764.523 531.873 775.277 540.472 789.228C550.862 806.061 558.649 824.723 563.832 845.213Z" fill="white"/>
<path d="M1435.15 832.643C1434.48 831.553 1434.08 830.397 1433.93 829.174C1431.39 807.763 1436.42 789.477 1449.01 774.315C1450.62 772.377 1450.92 772.565 1449.92 774.878C1441.87 793.443 1436.99 813.001 1435.3 833.552C1435.3 833.564 1435.3 833.57 1435.3 833.57C1435.28 833.57 1435.28 833.57 1435.28 833.57C1435.24 833.546 1435.23 833.497 1435.24 833.424C1435.25 833.34 1435.26 833.231 1435.28 833.098C1435.29 832.94 1435.25 832.789 1435.15 832.643Z" fill="white"/>
<path d="M500.673 793.133C512.129 818.092 527.013 841.943 545.323 864.686C545.445 864.832 545.438 864.971 545.305 865.104H545.287C545.13 865.261 544.966 865.261 544.797 865.104C532.42 853.26 522.036 840.72 513.643 827.484C504.972 813.799 498.281 797.081 493.571 777.329C493.51 777.063 493.613 776.893 493.879 776.821L494.315 776.694C494.339 776.681 494.358 776.694 494.37 776.73C496.089 782.264 498.191 787.732 500.673 793.133Z" fill="white"/>
<path d="M550.082 836.458C550.118 836.53 550.1 836.591 550.027 836.639L549.646 836.876C549.585 836.912 549.531 836.9 549.482 836.839C535.846 817.209 522.834 797.293 510.445 777.094C510.36 776.948 510.384 776.827 510.518 776.73C510.663 776.621 510.796 776.633 510.917 776.767C526.43 794.847 539.485 814.744 550.082 836.458Z" fill="white"/>
<path d="M1463.07 778.711C1463.07 778.638 1463.11 778.596 1463.18 778.583L1463.63 778.529C1463.8 778.505 1463.91 778.577 1463.94 778.747C1466.72 791.584 1467.78 802.919 1467.14 812.752C1466.04 829.888 1462.35 846.861 1456.08 863.67C1455.98 863.936 1455.8 864.027 1455.53 863.942H1455.51C1455.3 863.882 1455.22 863.736 1455.28 863.506C1462.13 835.362 1464.73 807.097 1463.07 778.711Z" fill="white"/>
<path d="M505.013 782.216C519.146 804.632 533.769 828.501 547.974 852.498C548.034 852.607 548.059 852.716 548.047 852.825C548.035 853.14 547.938 853.17 547.756 852.916C536.663 837.209 526.321 821.592 516.73 806.067C511.571 797.699 507.326 789.93 503.996 782.761C501.501 777.384 501.84 777.203 505.013 782.216Z" fill="white"/>
<path d="M1442.72 846.594C1443.14 827.52 1446.27 809.318 1451.23 790.935C1451.27 790.753 1451.39 790.681 1451.57 790.717L1451.59 790.735C1451.77 790.772 1451.86 790.881 1451.84 791.062C1449.68 809.7 1446.8 828.222 1443.22 846.63C1443.18 846.775 1443.09 846.842 1442.94 846.83H1442.92C1442.79 846.818 1442.72 846.739 1442.72 846.594Z" fill="white"/>
<path d="M1456.8 809.21C1456.83 808.982 1456.67 808.77 1456.44 808.737C1456.22 808.703 1456 808.861 1455.97 809.09L1449.11 856.148C1449.07 856.377 1449.23 856.589 1449.46 856.622C1449.69 856.655 1449.9 856.497 1449.93 856.269L1456.8 809.21Z" fill="white"/>
<path d="M608.81 849.664L605.831 859.146C603.735 845.365 604.002 831.783 606.63 818.401C607.017 816.44 607.417 815.277 607.829 814.914C607.832 814.91 607.837 814.907 607.841 814.905C607.846 814.903 607.851 814.902 607.856 814.902C607.861 814.902 607.866 814.903 607.871 814.905C607.875 814.907 607.88 814.91 607.883 814.914C607.887 814.917 607.89 814.922 607.892 814.926C607.893 814.931 607.895 814.936 607.895 814.941C607.895 814.946 607.893 814.951 607.892 814.956C607.89 814.96 607.887 814.965 607.883 814.968C607.58 816.276 607.435 817.705 607.447 819.255C607.508 829.476 607.962 839.612 608.81 849.664Z" fill="white"/>
<path d="M1642.11 855.041L1676.39 964.36C1654.96 962.725 1633.06 959.812 1610.66 955.622C1607.77 955.077 1605.58 956.076 1604.11 958.62C1603.68 959.322 1603.63 960.115 1603.94 960.999C1604.6 962.876 1605.89 964.039 1607.83 964.487C1631.94 970.07 1656.07 974.048 1680.22 976.422L1689.81 1007.05C1680.22 1007.47 1670.81 1007.39 1661.6 1006.79C1659.72 1006.67 1658.26 1007.54 1657.22 1009.41C1657.11 1009.62 1657.04 1009.84 1657 1010.08C1656.74 1012.1 1657.63 1013.15 1659.67 1013.21L1692.1 1014.13C1696.08 1026.97 1699.93 1039.54 1703.65 1051.84C1714.6 1088.08 1708.06 1119.78 1684.03 1146.94C1672.73 1159.7 1658.98 1168.53 1642.76 1173.42C1607.93 1183.91 1576.97 1177.37 1549.86 1153.81C1536.99 1142.62 1527.9 1128.71 1522.6 1112.1C1509.63 1071.43 1496.77 1030.74 1484.01 990.009C1484.15 989.573 1484.39 989.186 1484.74 988.847C1534.7 941.496 1587.15 896.894 1642.11 855.041Z" fill="white"/>
<path d="M394.422 901.671C402.052 906.588 409.591 911.614 417.038 916.749C465.188 949.87 511.958 984.85 557.347 1021.69C557.771 1022.04 558.062 1022.51 558.219 1023.09C551.97 1044.55 545.727 1066.02 539.491 1087.5C534.586 1104.46 530.608 1115.73 527.556 1121.33C514.453 1145.32 494.743 1161.23 468.428 1169.06C458.491 1172.03 446.103 1173.55 435.44 1172.3C424.105 1170.98 415.821 1169.28 410.59 1167.21C377.432 1154.1 356.79 1129.92 348.664 1094.68C366.708 1095.21 384.565 1094.19 402.234 1091.63C402.81 1091.54 403.34 1091.26 403.741 1090.84C404.142 1090.42 404.392 1089.88 404.45 1089.3C404.607 1087.71 403.644 1086.4 401.561 1085.36C400.755 1084.96 399.84 1084.8 398.927 1084.9C381.477 1087.1 364.419 1087.65 347.756 1086.56C346.739 1075.61 347.52 1065.2 350.099 1055.31C350.329 1055.19 350.535 1055.08 350.717 1054.99C350.971 1054.84 351.244 1054.76 351.534 1054.73C387.665 1051.54 421.761 1043.92 457.511 1033.81C460.005 1033.1 461.131 1031.46 460.889 1028.88C460.829 1028.23 460.617 1027.64 460.254 1027.1C458.413 1024.34 455.882 1023.38 452.66 1024.21C419.975 1032.69 387.259 1038.24 354.513 1040.87C354.441 1040.88 354.374 1040.86 354.313 1040.8C354.229 1040.73 354.132 1040.61 354.023 1040.45L394.422 901.671Z" fill="white"/>
<path d="M722.871 1059.73C735.308 1065.06 746.238 1069.24 755.659 1072.28C803.131 1087.6 851.276 1088.91 900.092 1076.22C908.109 1074.13 920.982 1069.17 938.711 1061.36C934.594 1075.36 930.519 1089.09 926.486 1102.56C918.566 1128.88 902.689 1149.64 878.857 1164.85C870.936 1158.94 863.192 1152.53 855.623 1145.61C848.303 1138.95 838.493 1149.81 845.56 1156.8C851.021 1162.24 856.374 1167 861.618 1171.08C862.272 1171.58 862.562 1172.09 862.49 1172.62C849.035 1176.95 837.04 1178.9 826.504 1178.49C823.949 1178.4 819.299 1177.67 812.553 1176.31C783.216 1170.41 759.474 1153.12 745.614 1127.05C742.708 1121.6 738.687 1110.62 733.552 1094.11C730.016 1082.73 726.456 1071.27 722.871 1059.73Z" fill="white"/>
</g>
<defs>
<clipPath id="clip0_5_24">
<rect width="2000" height="1362.4" fill="white"/>
</clipPath>
</defs>
</svg>
