<svg xmlns="http://www.w3.org/2000/svg" width="30.996" height="28.814" viewBox="0 0 30.996 28.814">
  <g id="Icon_ICON_feather_twitter_SIZE_LARGE_STYLE_STYLE1_" data-name="Icon [ICON=feather/twitter][SIZE=LARGE][STYLE=STYLE1]" transform="translate(1.091)">
    <rect id="Area_ICON:feather_twitter_SIZE:LARGE_STYLE:STYLE1_" data-name="Area [ICON:feather/twitter][SIZE:LARGE][STYLE:STYLE1]" width="28.814" height="28.814" fill="#fcfcfc" opacity="0"/>
    <g id="Icon" transform="translate(0 2.656)">
      <path id="_373f6a33-e03c-49b7-8ca8-6915a01b1503" data-name="373f6a33-e03c-49b7-8ca8-6915a01b1503" d="M29.905,3.275a14.28,14.28,0,0,1-4.113,2A5.867,5.867,0,0,0,15.5,9.209v1.309A13.961,13.961,0,0,1,3.711,4.585s-5.239,11.787,6.548,17.026a15.235,15.235,0,0,1-9.168,2.62c11.787,6.549,26.194,0,26.194-15.061a5.909,5.909,0,0,0-.1-1.088A10.114,10.114,0,0,0,29.905,3.275Z" transform="translate(-1.091 -3.262)" fill="none" stroke="#1c2126" stroke-linecap="round" stroke-linejoin="round" stroke-width="2.182"/>
    </g>
  </g>
</svg>
