<svg id="Component_9_1" data-name="Component 9 – 1" xmlns="http://www.w3.org/2000/svg" width="213.283" height="420.004" viewBox="0 0 213.283 420.004">
  <path id="Path_102" data-name="Path 102" d="M1498.524,654.884a2.721,2.721,0,0,1-2.919-2.541,2.753,2.753,0,0,1,2.545-2.96,2.757,2.757,0,1,1,.374,5.5m11.8-3.916a2.748,2.748,0,0,1,2.335-3.127,2.738,2.738,0,1,1,.792,5.418,1.189,1.189,0,0,1-.375.041,2.782,2.782,0,0,1-2.752-2.332m14.632-2.463a2.752,2.752,0,1,1,3.294,2.084,3.032,3.032,0,0,1-.583.085,2.766,2.766,0,0,1-2.712-2.169m14.425-3.5a2.708,2.708,0,0,1,1.835-3.417,2.764,2.764,0,0,1,3.418,1.873,2.726,2.726,0,0,1-1.834,3.421,2.786,2.786,0,0,1-.792.127,2.718,2.718,0,0,1-2.628-2m14.093-4.5a2.763,2.763,0,1,1,3.544,1.588h.041a2.94,2.94,0,0,1-1,.208,2.831,2.831,0,0,1-2.583-1.8m13.757-5.5a2.747,2.747,0,0,1,1.376-3.669,2.694,2.694,0,0,1,3.627,1.33,2.744,2.744,0,0,1-1.335,3.67,2.938,2.938,0,0,1-1.167.252,2.747,2.747,0,0,1-2.5-1.583m13.342-6.506a2.76,2.76,0,1,1,4.834-2.667,2.8,2.8,0,0,1-1.126,3.754,2.5,2.5,0,0,1-1.291.33,2.7,2.7,0,0,1-2.418-1.417m12.8-7.419a2.758,2.758,0,0,1,4.627-3,2.792,2.792,0,0,1-.792,3.835,2.915,2.915,0,0,1-1.5.42,2.738,2.738,0,0,1-2.335-1.251m12.256-8.338a2.755,2.755,0,0,1,4.419-3.292,2.779,2.779,0,0,1-.542,3.876,3.05,3.05,0,0,1-1.667.542,2.71,2.71,0,0,1-2.211-1.125m11.674-9.172a2.75,2.75,0,1,1,4.169-3.586,2.725,2.725,0,0,1-.293,3.876,2.653,2.653,0,0,1-1.792.667,2.741,2.741,0,0,1-2.084-.957m10.964-9.966a2.741,2.741,0,1,1,3.875,0,2.6,2.6,0,0,1-1.918.835,2.768,2.768,0,0,1-1.958-.835m10.213-10.712a2.764,2.764,0,0,1-.248-3.88,2.75,2.75,0,0,1,4.169,3.587,2.795,2.795,0,0,1-3.921.293m9.463-11.424a2.782,2.782,0,0,1-.541-3.876,2.756,2.756,0,1,1,2.21,4.415,2.76,2.76,0,0,1-1.669-.54m8.632-12.092a2.676,2.676,0,1,1,1.459.46,2.724,2.724,0,0,1-1.459-.46m7.712-12.674a2.729,2.729,0,0,1-1.085-3.708,2.8,2.8,0,0,1,3.752-1.124,2.751,2.751,0,0,1,1.085,3.749,2.707,2.707,0,0,1-2.418,1.418,2.608,2.608,0,0,1-1.334-.335m6.835-13.171a2.752,2.752,0,1,1,2.3-5,2.781,2.781,0,0,1,1.375,3.669,2.847,2.847,0,0,1-2.545,1.583,2.752,2.752,0,0,1-1.126-.249m5.836-13.635a2.758,2.758,0,0,1,1.92-5.171,2.755,2.755,0,0,1-.958,5.338,2.569,2.569,0,0,1-.961-.167m4.879-14.009a2.7,2.7,0,0,1-1.876-3.416,2.763,2.763,0,0,1,3.417-1.876,2.772,2.772,0,0,1-.791,5.418,2.311,2.311,0,0,1-.75-.126m3.835-14.3a2.844,2.844,0,1,1,.585.041,2.637,2.637,0,0,1-.585-.041m2.751-14.591a2.729,2.729,0,0,1-2.333-3.086,2.756,2.756,0,1,1,5.46.753,2.734,2.734,0,0,1-2.71,2.374,1.6,1.6,0,0,1-.417-.041m1.752-14.718a2.758,2.758,0,0,1,.415-5.5,2.784,2.784,0,0,1,2.545,2.96,2.709,2.709,0,0,1-2.752,2.541Zm-2.044-17.551a2.748,2.748,0,0,1,2.752-2.749,2.718,2.718,0,0,1,2.751,2.749,2.747,2.747,0,0,1-2.751,2.752,2.776,2.776,0,0,1-2.752-2.752m-.542-14.633a2.755,2.755,0,0,1,2.585-2.919,2.7,2.7,0,0,1,2.917,2.545,2.782,2.782,0,0,1-2.543,2.96h-.207a2.8,2.8,0,0,1-2.753-2.585m-1.543-14.506a2.747,2.747,0,0,1,2.335-3.126,2.706,2.706,0,0,1,3.126,2.333,2.792,2.792,0,0,1-2.334,3.126h-.418a2.773,2.773,0,0,1-2.709-2.333m-2.585-14.424h0a2.752,2.752,0,1,1,3.293,2.125,3.221,3.221,0,0,1-.625.041,2.754,2.754,0,0,1-2.668-2.166m-3.626-14.176h0a2.758,2.758,0,1,1,3.418,1.876,2.461,2.461,0,0,1-.792.122,2.747,2.747,0,0,1-2.626-2m-4.629-13.883a2.757,2.757,0,1,1,3.545,1.624,2.555,2.555,0,0,1-.959.167,2.729,2.729,0,0,1-2.585-1.791m-5.586-13.464a2.734,2.734,0,0,1,1.334-3.672,2.8,2.8,0,0,1,3.67,1.376,2.747,2.747,0,0,1-1.375,3.627,2.228,2.228,0,0,1-1.126.252,2.747,2.747,0,0,1-2.5-1.583m-6.587-13.052a2.781,2.781,0,0,1,1.125-3.75,2.694,2.694,0,0,1,3.711,1.083,2.757,2.757,0,0,1-1.084,3.754,3.028,3.028,0,0,1-1.334.334,2.841,2.841,0,0,1-2.418-1.421M1655.571,334a2.715,2.715,0,0,1,.835-3.8,2.744,2.744,0,0,1,3.794.794,2.8,2.8,0,0,1-.794,3.836,2.949,2.949,0,0,1-1.5.415,2.732,2.732,0,0,1-2.335-1.25m-8.338-12.007h0a2.693,2.693,0,0,1,.542-3.835,2.739,2.739,0,1,1,3.293,4.377,2.662,2.662,0,0,1-3.835-.542m-9.213-11.383a2.748,2.748,0,1,1,4.169-3.583,2.729,2.729,0,0,1-2.084,4.543,2.8,2.8,0,0,1-2.084-.96m-9.965-10.712a2.723,2.723,0,0,1,0-3.879,2.771,2.771,0,1,1,0,3.879m-10.714-9.966h0a2.763,2.763,0,1,1,3.878-.249,2.7,2.7,0,0,1-2.084.916,2.741,2.741,0,0,1-1.794-.667m-11.381-9.173a2.775,2.775,0,0,1-.542-3.876,2.733,2.733,0,0,1,3.836-.542,2.74,2.74,0,0,1-1.667,4.963,2.7,2.7,0,0,1-1.627-.545m-12.006-8.379a2.746,2.746,0,1,1,2.96-4.625,2.767,2.767,0,0,1,.833,3.836,2.839,2.839,0,0,1-2.333,1.25,2.411,2.411,0,0,1-1.459-.46m-12.591-7.462a2.753,2.753,0,0,1-1.084-3.75,2.7,2.7,0,0,1,3.71-1.087,2.8,2.8,0,0,1,1.126,3.754,2.753,2.753,0,0,1-2.418,1.417,2.523,2.523,0,0,1-1.334-.334m-13.09-6.543a2.768,2.768,0,1,1,1.125.249,2.738,2.738,0,0,1-1.125-.249m-13.507-5.631a2.728,2.728,0,0,1-1.627-3.541,2.756,2.756,0,1,1,5.169,1.917,2.728,2.728,0,0,1-2.583,1.791,2.413,2.413,0,0,1-.958-.167m-13.926-4.624a2.746,2.746,0,1,1,1.586-5.257,2.669,2.669,0,0,1,1.834,3.38,2.714,2.714,0,0,1-2.628,2,2.913,2.913,0,0,1-.792-.122m-14.175-3.587a2.767,2.767,0,0,1-2.084-3.293,2.752,2.752,0,0,1,5.378,1.169,2.76,2.76,0,0,1-2.709,2.166,2.965,2.965,0,0,1-.584-.042m-14.383-2.584a2.668,2.668,0,1,1,.376.041,1.188,1.188,0,0,1-.376-.041m-17.092-4.5a2.736,2.736,0,0,1,2.96-2.545,2.76,2.76,0,0,1-.417,5.5,2.731,2.731,0,0,1-2.543-2.96" transform="translate(-1480.35 -234.888)" fill="#f6152a"/>
  <path id="Path_104" data-name="Path 104" d="M1481.892,634.213a2.756,2.756,0,1,1,0-5.513c100.32,0,181.94-81.617,181.94-181.937s-81.62-181.938-181.94-181.938a2.756,2.756,0,1,1,0-5.512c103.362,0,187.452,84.088,187.452,187.45s-84.09,187.45-187.452,187.45" transform="translate(-1479.136 -236.737)" fill="#f6152a"/>
</svg>
