<svg id="Component_13_1" data-name="Component 13 – 1" xmlns="http://www.w3.org/2000/svg" width="73.946" height="73.946" viewBox="0 0 73.946 73.946">
  <path id="Path_17" data-name="Path 17" d="M120.592,384.082a11.912,11.912,0,1,0,11.791,11.908,11.924,11.924,0,0,0-11.791-11.908m-5.785,19.571a9.581,9.581,0,0,1-3.392-10.676,9.744,9.744,0,0,1,9.652-6.512,9.317,9.317,0,0,1,6.689,3.395.744.744,0,0,1,.143.915,26.522,26.522,0,0,1-12.048,12.989.835.835,0,0,1-1.044-.111m12.312-.828c-2.339,2.292-6.479,3.4-8.841,2.333a29.135,29.135,0,0,0,11.194-12.072c1.288,2.968.253,7.185-2.352,9.739m-6.527-18.742a11.912,11.912,0,1,0,11.791,11.908,11.924,11.924,0,0,0-11.791-11.908m-5.785,19.571a9.581,9.581,0,0,1-3.392-10.676,9.744,9.744,0,0,1,9.652-6.512,9.317,9.317,0,0,1,6.689,3.395.744.744,0,0,1,.143.915,26.522,26.522,0,0,1-12.048,12.989.835.835,0,0,1-1.044-.111m12.312-.828c-2.339,2.292-6.479,3.4-8.841,2.333a29.135,29.135,0,0,0,11.194-12.072c1.288,2.968.253,7.185-2.352,9.739m-6.527-18.742a11.912,11.912,0,1,0,11.791,11.908,11.924,11.924,0,0,0-11.791-11.908m-5.785,19.571a9.581,9.581,0,0,1-3.392-10.676,9.744,9.744,0,0,1,9.652-6.512,9.317,9.317,0,0,1,6.689,3.395.744.744,0,0,1,.143.915,26.522,26.522,0,0,1-12.048,12.989.835.835,0,0,1-1.044-.111m12.312-.828c-2.339,2.292-6.479,3.4-8.841,2.333a29.135,29.135,0,0,0,11.194-12.072c1.288,2.968.253,7.185-2.352,9.739m-6.527-18.742a11.912,11.912,0,1,0,11.791,11.908,11.924,11.924,0,0,0-11.791-11.908m-5.785,19.571a9.581,9.581,0,0,1-3.392-10.676,9.744,9.744,0,0,1,9.652-6.512,9.317,9.317,0,0,1,6.689,3.395.744.744,0,0,1,.143.915,26.522,26.522,0,0,1-12.048,12.989.835.835,0,0,1-1.044-.111m12.312-.828c-2.339,2.292-6.479,3.4-8.841,2.333a29.135,29.135,0,0,0,11.194-12.072c1.288,2.968.253,7.185-2.352,9.739m-6.527-18.742a11.912,11.912,0,1,0,11.791,11.908,11.924,11.924,0,0,0-11.791-11.908m-5.785,19.571a9.581,9.581,0,0,1-3.392-10.676,9.744,9.744,0,0,1,9.652-6.512,9.317,9.317,0,0,1,6.689,3.395.744.744,0,0,1,.143.915,26.522,26.522,0,0,1-12.048,12.989.835.835,0,0,1-1.044-.111m12.312-.828c-2.339,2.292-6.479,3.4-8.841,2.333a29.135,29.135,0,0,0,11.194-12.072c1.288,2.968.253,7.185-2.352,9.739m-6.527-18.742a11.912,11.912,0,1,0,11.791,11.908,11.924,11.924,0,0,0-11.791-11.908m-5.785,19.571a9.581,9.581,0,0,1-3.392-10.676,9.744,9.744,0,0,1,9.652-6.512,9.317,9.317,0,0,1,6.689,3.395.744.744,0,0,1,.143.915,26.522,26.522,0,0,1-12.048,12.989.835.835,0,0,1-1.044-.111m12.312-.828c-2.339,2.292-6.479,3.4-8.841,2.333a29.135,29.135,0,0,0,11.194-12.072c1.288,2.968.253,7.185-2.352,9.739m-6.527-18.742a11.912,11.912,0,1,0,11.791,11.908,11.924,11.924,0,0,0-11.791-11.908m-5.785,19.571a9.581,9.581,0,0,1-3.392-10.676,9.744,9.744,0,0,1,9.652-6.512,9.317,9.317,0,0,1,6.689,3.395.744.744,0,0,1,.143.915,26.522,26.522,0,0,1-12.048,12.989.835.835,0,0,1-1.044-.111m12.312-.828c-2.339,2.292-6.479,3.4-8.841,2.333a29.135,29.135,0,0,0,11.194-12.072c1.288,2.968.253,7.185-2.352,9.739m-6.527-18.742a11.912,11.912,0,1,0,11.791,11.908,11.924,11.924,0,0,0-11.791-11.908m-5.785,19.571a9.581,9.581,0,0,1-3.392-10.676,9.744,9.744,0,0,1,9.652-6.512,9.317,9.317,0,0,1,6.689,3.395.744.744,0,0,1,.143.915,26.522,26.522,0,0,1-12.048,12.989.835.835,0,0,1-1.044-.111m12.312-.828c-2.339,2.292-6.479,3.4-8.841,2.333a29.135,29.135,0,0,0,11.194-12.072c1.288,2.968.253,7.185-2.352,9.739m20.119,11.144c-2.2-2.323-4.5-4.548-6.775-6.8a1.12,1.12,0,0,0-1.767-.072c-.359.329-.514.176-.763-.079-.814-.834-1.628-1.671-2.48-2.468a.687.687,0,0,1-.14-.993,16.53,16.53,0,0,0-2.756-19.015,1.173,1.173,0,0,1-.347-1.049A28.6,28.6,0,0,0,103.532,351.9a24.224,24.224,0,0,0-5.167.5,28.55,28.55,0,0,0-23.042,30.934,27.506,27.506,0,0,0,9.309,18.382c6.968,6.2,15.153,8.423,24.35,6.9a.973.973,0,0,1,.873.191,16.333,16.333,0,0,0,16.69,2.694.622.622,0,0,1,.772.16q1.475,1.525,3,3c.283.275.338.434.04.763a1.108,1.108,0,0,0,.055,1.714c2.292,2.305,4.544,4.654,6.918,6.872a7.064,7.064,0,0,0,9.909-10.048m-43.147-59.2a.8.8,0,0,1,.916-.458c8.876.683,15.886,4.606,20.854,12.072.247.368.259.525-.171.762q-2.827,1.563-5.607,3.206c-.454.269-.665.148-.959-.213-1.508-1.843-3.061-3.648-4.554-5.5a1.862,1.862,0,0,0-1.785-.812,3.048,3.048,0,0,1-.6,0,16.41,16.41,0,0,0-9.471,1.775c-.4.219-.617.207-.775-.324-.44-1.469-.94-2.917-1.455-4.362a.931.931,0,0,1,.147-.947q1.75-2.583,3.455-5.195m-22.7,12.166c1.1,1.106,2.192,2.157,3.229,3.255a3.118,3.118,0,0,0,1.65.917c.987.226,1.964.5,2.951.725.281.064.416.159.464.458.261,1.613.539,3.222.824,4.831.05.283-.081.392-.3.5-1.838.913-3.669,1.837-5.505,2.749a3.994,3.994,0,0,1-1.827.127c-2.756.04-2.187-.292-3.64,2.072-.412.668-.811,1.345-1.242,2.066-1.1-4.991-.057-12.2,3.4-17.7m3.332,31.5a25.783,25.783,0,0,1-4.427-6.333,26.2,26.2,0,0,1-1.458-3.571.908.908,0,0,1,.088-.836q1.353-2.221,2.673-4.461a.581.581,0,0,1,.647-.352,8.56,8.56,0,0,0,5.628-1.419c1.31-.746,2.7-1.357,4.045-2.032,1.127-.564,1.236-.792,1.025-2.048-.357-2.128-.723-4.251-1.053-6.381a1.331,1.331,0,0,0-1.168-1.246,9.372,9.372,0,0,0-1.079-.267c-2.681-.175-4.4-1.88-6.063-3.716-.828-.913-.878-.891-.094-1.831a26.12,26.12,0,0,1,17.292-9.473,5.461,5.461,0,0,1,.661,0c-1.06,1.592-2.066,3.148-3.122,4.665a1.991,1.991,0,0,0-.267,2.006c.752,2.094,1.423,4.22,2.131,6.33.371,1.094.908,1.335,1.991.91a16.245,16.245,0,0,0,2.128-.864c2.539-1.455,5.3-1.4,8.082-1.32a.883.883,0,0,1,.716.422q2.5,3.006,5,6c.716.858,1.136.934,2.107.38,2.193-1.25,4.389-2.5,6.573-3.763.366-.214.539-.277.756.2a26.5,26.5,0,0,1,2.436,12.2c-.011.324.07.694-.494.352-5.842-3.545-11.741-3.573-17.679-.24a.733.733,0,0,1-.114.033q-1.341-3.687-2.687-7.382c-.169-.464-.319-.937-.509-1.393a1.165,1.165,0,0,0-1.817-.621c-1.943,1.141-3.864,2.318-5.8,3.471a1.766,1.766,0,0,0-.7.923c-.94,2.207-1.893,4.408-2.827,6.618-.155.37-.3.523-.756.418-1.4-.321-2.818-.552-4.221-.86a1.45,1.45,0,0,0-1.573.549q-2.82,3.412-5.67,6.8a1.778,1.778,0,0,0-.41,1.229c.014,2.252.006,4.5.006,6.9m17.762,8.248a26.134,26.134,0,0,1-14.919-5.605,1.093,1.093,0,0,1-.47-.989c.02-2.63.014-5.26,0-7.892a1.321,1.321,0,0,1,.318-.939q2.29-2.693,4.532-5.426a.861.861,0,0,1,1.009-.336c1.449.331,2.912.593,4.368.888a1.262,1.262,0,0,0,1.7-.892q1.558-3.609,3.1-7.224a1.4,1.4,0,0,1,.575-.737c1.324-.774,2.638-1.568,4.031-2.4.961,2.634,1.9,5.214,2.85,7.786.14.376-.079.53-.3.734a16.656,16.656,0,0,0-2.269,22.178c.128.177.251.354.422.6a21.391,21.391,0,0,1-4.948.257m17.81,3.6a14.294,14.294,0,1,1,14.466-14.105A14.325,14.325,0,0,1,120.3,410.29m11.743,2.734c-.93-.925-1.855-1.85-2.842-2.838a17.523,17.523,0,0,0,4.488-4.052c.925.927,1.826,1.838,2.741,2.739.2.2.141.316-.026.482-1.264,1.255-2.528,2.51-3.776,3.781-.292.3-.42.054-.585-.112m11.892,9.925a4.309,4.309,0,0,1-4.991-.7c-1.993-1.826-3.85-3.8-5.774-5.7-.233-.228-.227-.37,0-.6q3.036-3.014,6.052-6.056c.273-.276.421-.2.651.036,1.851,1.869,3.728,3.712,5.565,5.595a4.629,4.629,0,0,1,1.252,3.307,4.569,4.569,0,0,1-2.757,4.118m-23.341-38.868a11.912,11.912,0,1,0,11.791,11.908,11.924,11.924,0,0,0-11.791-11.908m-5.785,19.571a9.581,9.581,0,0,1-3.392-10.676,9.744,9.744,0,0,1,9.652-6.512,9.317,9.317,0,0,1,6.689,3.395.744.744,0,0,1,.143.915,26.522,26.522,0,0,1-12.048,12.989.835.835,0,0,1-1.044-.111m12.312-.828c-2.339,2.292-6.479,3.4-8.841,2.333a29.135,29.135,0,0,0,11.194-12.072c1.288,2.968.253,7.185-2.352,9.739m-6.527-18.742a11.912,11.912,0,1,0,11.791,11.908,11.924,11.924,0,0,0-11.791-11.908m-5.785,19.571a9.581,9.581,0,0,1-3.392-10.676,9.744,9.744,0,0,1,9.652-6.512,9.317,9.317,0,0,1,6.689,3.395.744.744,0,0,1,.143.915,26.522,26.522,0,0,1-12.048,12.989.835.835,0,0,1-1.044-.111m12.312-.828c-2.339,2.292-6.479,3.4-8.841,2.333a29.135,29.135,0,0,0,11.194-12.072c1.288,2.968.253,7.185-2.352,9.739m-6.527-18.742a11.912,11.912,0,1,0,11.791,11.908,11.924,11.924,0,0,0-11.791-11.908m-5.785,19.571a9.581,9.581,0,0,1-3.392-10.676,9.744,9.744,0,0,1,9.652-6.512,9.317,9.317,0,0,1,6.689,3.395.744.744,0,0,1,.143.915,26.522,26.522,0,0,1-12.048,12.989.835.835,0,0,1-1.044-.111m12.312-.828c-2.339,2.292-6.479,3.4-8.841,2.333a29.135,29.135,0,0,0,11.194-12.072c1.288,2.968.253,7.185-2.352,9.739m-6.527-18.742a11.912,11.912,0,1,0,11.791,11.908,11.924,11.924,0,0,0-11.791-11.908m-5.785,19.571a9.581,9.581,0,0,1-3.392-10.676,9.744,9.744,0,0,1,9.652-6.512,9.317,9.317,0,0,1,6.689,3.395.744.744,0,0,1,.143.915,26.522,26.522,0,0,1-12.048,12.989.835.835,0,0,1-1.044-.111m12.312-.828c-2.339,2.292-6.479,3.4-8.841,2.333a29.135,29.135,0,0,0,11.194-12.072c1.288,2.968.253,7.185-2.352,9.739m-6.527-18.742a11.912,11.912,0,1,0,11.791,11.908,11.924,11.924,0,0,0-11.791-11.908m-5.785,19.571a9.581,9.581,0,0,1-3.392-10.676,9.744,9.744,0,0,1,9.652-6.512,9.317,9.317,0,0,1,6.689,3.395.744.744,0,0,1,.143.915,26.522,26.522,0,0,1-12.048,12.989.835.835,0,0,1-1.044-.111m12.312-.828c-2.339,2.292-6.479,3.4-8.841,2.333a29.135,29.135,0,0,0,11.194-12.072c1.288,2.968.253,7.185-2.352,9.739m-6.527-18.742a11.912,11.912,0,1,0,11.791,11.908,11.924,11.924,0,0,0-11.791-11.908m-5.785,19.571a9.581,9.581,0,0,1-3.392-10.676,9.744,9.744,0,0,1,9.652-6.512,9.317,9.317,0,0,1,6.689,3.395.744.744,0,0,1,.143.915,26.522,26.522,0,0,1-12.048,12.989.835.835,0,0,1-1.044-.111m12.312-.828c-2.339,2.292-6.479,3.4-8.841,2.333a29.135,29.135,0,0,0,11.194-12.072c1.288,2.968.253,7.185-2.352,9.739m-6.527-18.742a11.912,11.912,0,1,0,11.791,11.908,11.924,11.924,0,0,0-11.791-11.908m-5.785,19.571a9.581,9.581,0,0,1-3.392-10.676,9.744,9.744,0,0,1,9.652-6.512,9.317,9.317,0,0,1,6.689,3.395.744.744,0,0,1,.143.915,26.522,26.522,0,0,1-12.048,12.989.835.835,0,0,1-1.044-.111m12.312-.828c-2.339,2.292-6.479,3.4-8.841,2.333a29.135,29.135,0,0,0,11.194-12.072c1.288,2.968.253,7.185-2.352,9.739" transform="translate(-75.177 -351.898)" fill="#4d4d4d"/>
  <path id="Path_18" data-name="Path 18" d="M104.73,415.11Q98.863,416.274,93,417.467a1.171,1.171,0,0,0-.837,1.864q1.708,2.914,3.481,5.79a1.163,1.163,0,0,0,1.988.24c2.731-2.706,5.443-5.433,8.163-8.152a1.345,1.345,0,0,0,.444-.773,1.23,1.23,0,0,0-1.512-1.327m-7.824,7.481c-.587-.977-1.2-1.995-1.869-3.1l6.29-1.254-4.421,4.359" transform="translate(-76.447 -356.68)" fill="#4d4d4d"/>
  <path id="Path_19" data-name="Path 19" d="M153.688,384.078c-1.132-1.889-2.256-3.786-3.405-5.667a1.183,1.183,0,0,0-2.034-.276q-4.1,4.064-8.164,8.156a1.15,1.15,0,0,0-.292,1.477,1.206,1.206,0,0,0,1.457.6c.9-.189,1.8-.367,2.693-.548,2.938-.589,5.875-1.184,8.815-1.763a1.271,1.271,0,0,0,1.186-1.206,1.382,1.382,0,0,0-.255-.77m-3.328.031c-1.9.352-3.788.749-5.527,1.1,1.349-1.343,2.783-2.774,4.222-4.209.47.78.993,1.68,1.546,2.559.216.348.211.468-.241.554" transform="translate(-80.056 -353.849)" fill="#4d4d4d"/>
  <path id="Path_20" data-name="Path 20" d="M114.956,416.527a1.181,1.181,0,0,0-1.54.3q-4.049,4.057-8.1,8.111a1.2,1.2,0,0,0,.283,2.08c1.862,1.129,3.733,2.242,5.6,3.365a1.563,1.563,0,0,0,1,.266,1.258,1.258,0,0,0,1-1.134q1.149-5.791,2.327-11.577a1.2,1.2,0,0,0-.569-1.408m-3.8,11.036-3.115-1.855c1.445-1.439,2.882-2.868,4.343-4.32-.4,2.021-.807,4.052-1.228,6.175" transform="translate(-77.422 -356.777)" fill="#4d4d4d"/>
  <path id="Path_21" data-name="Path 21" d="M148.222,368.384q-2.7-1.636-5.41-3.25a1.658,1.658,0,0,0-1.017-.319c-.6.076-.942.494-1.079,1.192q-1.105,5.646-2.259,11.282c-.146.7-.138,1.294.555,1.668.675.364,1.168.014,1.636-.456q3.914-3.929,7.838-7.844c.887-.89.8-1.63-.264-2.275m-6.694,5.692c.4-2.016.81-4.054,1.236-6.182l3.1,1.855c-1.455,1.453-2.89,2.888-4.333,4.327" transform="translate(-79.961 -352.876)" fill="#4d4d4d"/>
  <path id="Path_22" data-name="Path 22" d="M123.324,386.717a11.912,11.912,0,1,0,11.791,11.908,11.924,11.924,0,0,0-11.791-11.908m-5.785,19.571a9.581,9.581,0,0,1-3.392-10.676A9.744,9.744,0,0,1,123.8,389.1a9.317,9.317,0,0,1,6.689,3.395.744.744,0,0,1,.143.915A26.522,26.522,0,0,1,118.584,406.4a.835.835,0,0,1-1.044-.111m12.312-.828c-2.339,2.292-6.479,3.4-8.841,2.333A29.135,29.135,0,0,0,132.2,395.721c1.288,2.968.253,7.185-2.352,9.739" transform="translate(-77.91 -354.534)" fill="#4d4d4d"/>
  <path id="Path_23" data-name="Path 23" d="M123.324,386.717a11.912,11.912,0,1,0,11.791,11.908,11.924,11.924,0,0,0-11.791-11.908m-5.785,19.571a9.581,9.581,0,0,1-3.392-10.676A9.744,9.744,0,0,1,123.8,389.1a9.317,9.317,0,0,1,6.689,3.395.744.744,0,0,1,.143.915A26.522,26.522,0,0,1,118.584,406.4a.835.835,0,0,1-1.044-.111m12.312-.828c-2.339,2.292-6.479,3.4-8.841,2.333A29.135,29.135,0,0,0,132.2,395.721c1.288,2.968.253,7.185-2.352,9.739" transform="translate(-77.91 -354.534)" fill="#4d4d4d"/>
</svg>
