<svg id="Component_15_1" data-name="Component 15 – 1" xmlns="http://www.w3.org/2000/svg" width="459.965" height="421.06" viewBox="0 0 459.965 421.06">
  <path id="Path_53" data-name="Path 53" d="M1004.988,389.624c.438.425.313.883-.081,1.288q-1.36,1.393-2.721,2.788a.842.842,0,0,1-1.325-.016q-.623-.638-1.246-1.277a.824.824,0,0,1-.082-1.288c.4-.4.811-.26,1.2.1.843.78.849.773,1.644-.043.453-.465.91-.925,1.358-1.394.385-.4.816-.585,1.257-.156" transform="translate(-988.354 -246.1)"/>
  <path id="Path_54" data-name="Path 54" d="M1007.092,384.964q-5.1-.007-10.2,0c-.924,0-1.132.212-1.137,1.167-.008,1.728,0,3.456,0,5.185,0,1.783-.009,3.566,0,5.349.007.878.245,1.123,1.1,1.125q5.141.01,10.282,0c.853,0,1.1-.25,1.1-1.131q.01-5.267,0-10.534c0-.944-.222-1.16-1.143-1.16m-1.006,11.193c-2.73-.024-5.46-.019-8.189,0-.406,0-.552-.091-.548-.537q.029-4.237,0-8.474c0-.445.144-.546.553-.543,2.729.018,5.46.022,8.189,0,.5,0,.552.214.545.632-.019,1.4-.007,2.8-.007,4.2,0,1.369-.015,2.741.008,4.112.006.429-.06.623-.552.618" transform="translate(-988.088 -245.766)"/>
  <path id="Path_55" data-name="Path 55" d="M1005,368.052a.767.767,0,0,1,.008,1.165c-.947,1-1.914,1.982-2.881,2.963a.77.77,0,0,1-.567.266.9.9,0,0,1-.7-.339c-.414-.425-.829-.852-1.246-1.276-.4-.4-.514-.859-.081-1.286.4-.4.813-.26,1.2.1.843.773.849.765,1.646-.054.492-.5.971-1.015,1.476-1.5a.748.748,0,0,1,1.143-.033" transform="translate(-988.354 -244.468)"/>
  <path id="Path_56" data-name="Path 56" d="M1008.236,364.557c0-.956-.215-1.171-1.135-1.171q-5.1-.007-10.2,0c-.928,0-1.145.215-1.147,1.155q-.01,5.224,0,10.453c0,.995.214,1.215,1.173,1.217q5.061,0,10.121,0c.967,0,1.184-.221,1.189-1.2.007-1.728,0-3.456,0-5.186,0-1.754.006-3.512,0-5.266m-2.227,10.019q-4.012-.036-8.026,0c-.486,0-.642-.116-.636-.634.023-2.767.018-5.537,0-8.306,0-.43.055-.621.548-.617q4.093.036,8.187,0c.488,0,.563.174.555.612-.023,1.4-.008,2.8-.008,4.194,0,1.372-.021,2.743.01,4.112.013.511-.14.643-.631.639" transform="translate(-988.088 -244.133)"/>
  <path id="Path_57" data-name="Path 57" d="M1005.241,411.853a.747.747,0,0,1-.253.553c-.939.973-1.883,1.944-2.835,2.9a.787.787,0,0,1-1.212.035q-.735-.7-1.418-1.45a.792.792,0,0,1-.016-1.172.735.735,0,0,1,1.137,0c.295.271.593.77.877.762.417-.016.668-.566.995-.881.467-.451.9-.931,1.369-1.385a.726.726,0,0,1,.95-.14.8.8,0,0,1,.406.775" transform="translate(-988.354 -247.734)"/>
  <path id="Path_58" data-name="Path 58" d="M1008.235,407.654c0-.876-.245-1.116-1.109-1.116q-5.141-.011-10.282,0c-.855,0-1.087.244-1.092,1.131-.008,1.756,0,3.512,0,5.268,0,1.784.008,3.567,0,5.35-.006.766.333,1.085,1.074,1.083q5.18-.021,10.363,0c.75,0,1.061-.341,1.059-1.1-.011-3.54,0-7.079-.006-10.618m-2.229,10.074c-1.362-.03-2.729-.011-4.094-.011-1.311,0-2.621-.019-3.932.009-.467.011-.642-.073-.639-.613.032-2.769.028-5.539,0-8.306,0-.513.144-.641.634-.636q4.012.036,8.026,0c.488,0,.638.121.634.634q-.036,4.154,0,8.308c.006.538-.17.624-.636.615" transform="translate(-988.088 -247.399)"/>
  <path id="Path_59" data-name="Path 59" d="M1013.7,364.228c-.011-.685.451-.848,1.03-.848q5.866.007,11.729,0c.592,0,1.053.207,1.035.854s-.495.81-1.079.8c-1.955-.018-3.911-.006-5.864-.006-1.928,0-3.857-.006-5.785,0-.568,0-1.053-.11-1.066-.806" transform="translate(-989.447 -244.133)"/>
  <path id="Path_60" data-name="Path 60" d="M1026.377,384.955c.606,0,1.132.145,1.122.848s-.561.817-1.155.812c-1.9-.016-3.8-.007-5.7-.007-1.956,0-3.911,0-5.864,0-.564,0-1.062-.1-1.073-.8-.01-.747.509-.855,1.1-.855q5.783.011,11.568,0" transform="translate(-989.447 -245.766)"/>
  <path id="Path_61" data-name="Path 61" d="M1027.5,407.34c.011.773-.582.852-1.2.848-1.9-.016-3.8-.006-5.7-.006-1.927,0-3.854,0-5.782,0-.59,0-1.124-.084-1.107-.841s.568-.814,1.145-.812q5.744.007,11.487,0c.594,0,1.148.11,1.16.812" transform="translate(-989.447 -247.398)"/>
  <path id="Path_62" data-name="Path 62" d="M1013.7,391.815a.756.756,0,0,1,.75-.8,4.981,4.981,0,0,1,.563-.008h25.4c.187,0,.376-.011.561.007a.753.753,0,0,1,.758.792.763.763,0,0,1-.79.844c-.185.018-.374.006-.561.006h-12.7q-6.311,0-12.62,0a4.522,4.522,0,0,1-.643-.008.758.758,0,0,1-.717-.83" transform="translate(-989.447 -246.223)"/>
  <path id="Path_63" data-name="Path 63" d="M1040.332,377.127h-25.238a3.522,3.522,0,0,1-.72-.022.764.764,0,0,1-.673-.872.724.724,0,0,1,.715-.739c.238-.022.482-.014.723-.014H1040.3c.242,0,.483-.008.724.014a.725.725,0,0,1,.712.744.762.762,0,0,1-.677.867,3.537,3.537,0,0,1-.721.022" transform="translate(-989.447 -245.048)"/>
  <path id="Path_64" data-name="Path 64" d="M1013.7,370.19a.736.736,0,0,1,.715-.744,6.216,6.216,0,0,1,.642-.009q12.661,0,25.321,0a5.72,5.72,0,0,1,.642.009.735.735,0,0,1,.711.749.765.765,0,0,1-.677.87,3.757,3.757,0,0,1-.722.019h-25.239a3.54,3.54,0,0,1-.722-.022.761.761,0,0,1-.673-.872" transform="translate(-989.446 -244.591)"/>
  <path id="Path_65" data-name="Path 65" d="M1013.7,397.809a.734.734,0,0,1,.717-.742c.214-.019.428-.006.643-.006h25.318a6.228,6.228,0,0,1,.644.009.733.733,0,0,1,.712.746.755.755,0,0,1-.6.85,3.241,3.241,0,0,1-.8.042h-25.239a3.6,3.6,0,0,1-.722-.024.767.767,0,0,1-.673-.874" transform="translate(-989.446 -246.682)"/>
  <path id="Path_66" data-name="Path 66" d="M1061.246,408.33c-.9-6.5-6.444-12.031-12.792-12.66-.894-.089-1.044-.357-1.044-1.2q.044-20.546.021-41.1c0-1.341-.122-1.469-1.414-1.471q-28.574,0-57.151,0c-1.291,0-1.405.121-1.405,1.469v70.993c0,1.354.117,1.48,1.4,1.48q28.736,0,57.474,0a14.625,14.625,0,0,0,3.35-.324,15.152,15.152,0,0,0,11.565-17.19m-22.178,15.862q-24.675.006-49.354.018c-.526,0-.657-.141-.657-.676q.019-34.67,0-69.345c0-.577.191-.652.678-.652q27.692.017,55.383,0c.542,0,.72.106.72.7q-.026,20.3-.01,40.6c0,.438.019.734-.59.79a14.807,14.807,0,0,0-13.009,11.611c-.144.625-.352.763-.931.762-6.055-.02-12.111-.013-18.167-.013a5.719,5.719,0,0,0-.642.008.763.763,0,0,0-.774.859.742.742,0,0,0,.772.775c.213.014.427,0,.642,0,5.948,0,11.9.018,17.844-.019.765,0,.941.228.873.947a14.073,14.073,0,0,0,.224,3.023h-8.926q-5.145,0-10.289,0c-.582,0-1.13.06-1.132.817s.533.836,1.121.836c6.3,0,12.595,0,18.891-.013a.894.894,0,0,1,1.03.709,14.736,14.736,0,0,0,6.2,7.72c.2.124.4.253.6.385-.115.266-.331.159-.492.159m7.579,0a13.518,13.518,0,1,1,13.165-13.513,13.342,13.342,0,0,1-13.165,13.513m7.307-18.783a.7.7,0,0,0-.957-.046,5.4,5.4,0,0,0-.529.5c-2.537,2.6-5.088,5.186-7.6,7.813-.443.462-.655.4-1.051-.022-1.051-1.136-2.151-2.219-3.228-3.328a1.128,1.128,0,0,0-.834-.451.758.758,0,0,0-.677.48.923.923,0,0,0,.273,1.039c1.388,1.411,2.766,2.833,4.149,4.244.714.727.993.72,1.724-.029q4.232-4.333,8.46-8.674a2.215,2.215,0,0,0,.43-.482.8.8,0,0,0-.164-1.045" transform="translate(-987.461 -243.264)"/>
  <path id="Path_67" data-name="Path 67" d="M1004.988,389.624c.438.425.313.883-.081,1.288q-1.36,1.393-2.721,2.788a.842.842,0,0,1-1.325-.016q-.623-.638-1.246-1.277a.824.824,0,0,1-.082-1.288c.4-.4.811-.26,1.2.1.843.78.849.773,1.644-.043.453-.465.91-.925,1.358-1.394.385-.4.816-.585,1.257-.156" transform="translate(-988.354 -246.1)" fill="#fdfdfd"/>
  <path id="Path_68" data-name="Path 68" d="M1007.092,384.964q-5.1-.007-10.2,0c-.924,0-1.132.212-1.137,1.167-.008,1.728,0,3.456,0,5.185,0,1.783-.009,3.566,0,5.349.007.878.245,1.123,1.1,1.125q5.141.01,10.282,0c.853,0,1.1-.25,1.1-1.131q.01-5.267,0-10.534c0-.944-.222-1.16-1.143-1.16m-1.006,11.193c-2.73-.024-5.46-.019-8.189,0-.406,0-.552-.091-.548-.537q.029-4.237,0-8.474c0-.445.144-.546.553-.543,2.729.018,5.46.022,8.189,0,.5,0,.552.214.545.632-.019,1.4-.007,2.8-.007,4.2,0,1.369-.015,2.741.008,4.112.006.429-.06.623-.552.618" transform="translate(-988.088 -245.766)" fill="#fdfdfd"/>
  <path id="Path_69" data-name="Path 69" d="M1005,368.052a.767.767,0,0,1,.008,1.165c-.947,1-1.914,1.982-2.881,2.963a.77.77,0,0,1-.567.266.9.9,0,0,1-.7-.339c-.414-.425-.829-.852-1.246-1.276-.4-.4-.514-.859-.081-1.286.4-.4.813-.26,1.2.1.843.773.849.765,1.646-.054.492-.5.971-1.015,1.476-1.5a.748.748,0,0,1,1.143-.033" transform="translate(-988.354 -244.468)" fill="#fdfdfd"/>
  <path id="Path_70" data-name="Path 70" d="M1008.236,364.557c0-.956-.215-1.171-1.135-1.171q-5.1-.007-10.2,0c-.928,0-1.145.215-1.147,1.155q-.01,5.224,0,10.453c0,.995.214,1.215,1.173,1.217q5.061,0,10.121,0c.967,0,1.184-.221,1.189-1.2.007-1.728,0-3.456,0-5.186,0-1.754.006-3.512,0-5.266m-2.227,10.019q-4.012-.036-8.026,0c-.486,0-.642-.116-.636-.634.023-2.767.018-5.537,0-8.306,0-.43.055-.621.548-.617q4.093.036,8.187,0c.488,0,.563.174.555.612-.023,1.4-.008,2.8-.008,4.194,0,1.372-.021,2.743.01,4.112.013.511-.14.643-.631.639" transform="translate(-988.088 -244.133)" fill="#fdfdfd"/>
  <path id="Path_71" data-name="Path 71" d="M1005.241,411.853a.747.747,0,0,1-.253.553c-.939.973-1.883,1.944-2.835,2.9a.787.787,0,0,1-1.212.035q-.735-.7-1.418-1.45a.792.792,0,0,1-.016-1.172.735.735,0,0,1,1.137,0c.295.271.593.77.877.762.417-.016.668-.566.995-.881.467-.451.9-.931,1.369-1.385a.726.726,0,0,1,.95-.14.8.8,0,0,1,.406.775" transform="translate(-988.354 -247.734)" fill="#fdfdfd"/>
  <path id="Path_72" data-name="Path 72" d="M1008.235,407.654c0-.876-.245-1.116-1.109-1.116q-5.141-.011-10.282,0c-.855,0-1.087.244-1.092,1.131-.008,1.756,0,3.512,0,5.268,0,1.784.008,3.567,0,5.35-.006.766.333,1.085,1.074,1.083q5.18-.021,10.363,0c.75,0,1.061-.341,1.059-1.1-.011-3.54,0-7.079-.006-10.618m-2.229,10.074c-1.362-.03-2.729-.011-4.094-.011-1.311,0-2.621-.019-3.932.009-.467.011-.642-.073-.639-.613.032-2.769.028-5.539,0-8.306,0-.513.144-.641.634-.636q4.012.036,8.026,0c.488,0,.638.121.634.634q-.036,4.154,0,8.308c.006.538-.17.624-.636.615" transform="translate(-988.088 -247.399)" fill="#fdfdfd"/>
  <path id="Path_73" data-name="Path 73" d="M1013.7,364.228c-.011-.685.451-.848,1.03-.848q5.866.007,11.729,0c.592,0,1.053.207,1.035.854s-.495.81-1.079.8c-1.955-.018-3.911-.006-5.864-.006-1.928,0-3.857-.006-5.785,0-.568,0-1.053-.11-1.066-.806" transform="translate(-989.447 -244.133)" fill="#fdfdfd"/>
  <path id="Path_74" data-name="Path 74" d="M1026.377,384.955c.606,0,1.132.145,1.122.848s-.561.817-1.155.812c-1.9-.016-3.8-.007-5.7-.007-1.956,0-3.911,0-5.864,0-.564,0-1.062-.1-1.073-.8-.01-.747.509-.855,1.1-.855q5.783.011,11.568,0" transform="translate(-989.447 -245.766)" fill="#fdfdfd"/>
  <path id="Path_75" data-name="Path 75" d="M1027.5,407.34c.011.773-.582.852-1.2.848-1.9-.016-3.8-.006-5.7-.006-1.927,0-3.854,0-5.782,0-.59,0-1.124-.084-1.107-.841s.568-.814,1.145-.812q5.744.007,11.487,0c.594,0,1.148.11,1.16.812" transform="translate(-989.447 -247.398)" fill="#fdfdfd"/>
  <path id="Path_76" data-name="Path 76" d="M1013.7,391.815a.756.756,0,0,1,.75-.8,4.981,4.981,0,0,1,.563-.008h25.4c.187,0,.376-.011.561.007a.753.753,0,0,1,.758.792.763.763,0,0,1-.79.844c-.185.018-.374.006-.561.006h-12.7q-6.311,0-12.62,0a4.522,4.522,0,0,1-.643-.008.758.758,0,0,1-.717-.83" transform="translate(-989.447 -246.223)" fill="#fdfdfd"/>
  <path id="Path_77" data-name="Path 77" d="M1040.332,377.127h-25.238a3.522,3.522,0,0,1-.72-.022.764.764,0,0,1-.673-.872.724.724,0,0,1,.715-.739c.238-.022.482-.014.723-.014H1040.3c.242,0,.483-.008.724.014a.725.725,0,0,1,.712.744.762.762,0,0,1-.677.867,3.537,3.537,0,0,1-.721.022" transform="translate(-989.447 -245.048)" fill="#fdfdfd"/>
  <path id="Path_78" data-name="Path 78" d="M1013.7,370.19a.736.736,0,0,1,.715-.744,6.216,6.216,0,0,1,.642-.009q12.661,0,25.321,0a5.72,5.72,0,0,1,.642.009.735.735,0,0,1,.711.749.765.765,0,0,1-.677.87,3.757,3.757,0,0,1-.722.019h-25.239a3.54,3.54,0,0,1-.722-.022.761.761,0,0,1-.673-.872" transform="translate(-989.446 -244.591)" fill="#fdfdfd"/>
  <path id="Path_79" data-name="Path 79" d="M1041.13,398.665a3.235,3.235,0,0,1-.8.042h-25.239a3.6,3.6,0,0,1-.722-.024.767.767,0,0,1-.673-.874.733.733,0,0,1,.718-.741c.213-.02.427-.006.642-.006h25.318a6.234,6.234,0,0,1,.644.008.734.734,0,0,1,.712.747.754.754,0,0,1-.6.849" transform="translate(-989.446 -246.682)" fill="#fdfdfd"/>
  <path id="Path_80" data-name="Path 80" d="M1058.338,410.82a2.194,2.194,0,0,1-.43.482q-4.229,4.338-8.46,8.674c-.73.748-1.01.755-1.723.029-1.384-1.411-2.762-2.834-4.15-4.244a.925.925,0,0,1-.273-1.04.761.761,0,0,1,.677-.48,1.13,1.13,0,0,1,.835.451c1.076,1.11,2.177,2.193,3.227,3.329.4.427.608.484,1.051.022,2.51-2.627,5.061-5.214,7.6-7.813a5.2,5.2,0,0,1,.529-.5.7.7,0,0,1,.956.046.8.8,0,0,1,.164,1.045" transform="translate(-991.682 -247.628)" fill="#fdfdfd"/>
  <path id="Path_81" data-name="Path 81" d="M1005,368.052a.767.767,0,0,1,.008,1.165c-.947,1-1.914,1.982-2.881,2.963a.77.77,0,0,1-.567.266.9.9,0,0,1-.7-.339c-.414-.425-.829-.852-1.246-1.276-.4-.4-.514-.859-.081-1.286.4-.4.813-.26,1.2.1.843.773.849.765,1.646-.054.492-.5.971-1.015,1.476-1.5a.748.748,0,0,1,1.143-.033" transform="translate(-988.354 -244.468)"/>
  <path id="Path_82" data-name="Path 82" d="M1008.236,364.557c0-.956-.215-1.171-1.135-1.171q-5.1-.007-10.2,0c-.928,0-1.145.215-1.147,1.155q-.01,5.224,0,10.453c0,.995.214,1.215,1.173,1.217q5.061,0,10.121,0c.967,0,1.184-.221,1.189-1.2.007-1.728,0-3.456,0-5.186,0-1.754.006-3.512,0-5.266m-2.227,10.019q-4.012-.036-8.026,0c-.486,0-.642-.116-.636-.634.023-2.767.018-5.537,0-8.306,0-.43.055-.621.548-.617q4.093.036,8.187,0c.488,0,.563.174.555.612-.023,1.4-.008,2.8-.008,4.194,0,1.372-.021,2.743.01,4.112.013.511-.14.643-.631.639" transform="translate(-988.088 -244.133)"/>
  <path id="Path_83" data-name="Path 83" d="M1004.988,389.624c.438.425.313.883-.081,1.288q-1.36,1.393-2.721,2.788a.842.842,0,0,1-1.325-.016q-.623-.638-1.246-1.277a.824.824,0,0,1-.082-1.288c.4-.4.811-.26,1.2.1.843.78.849.773,1.644-.043.453-.465.91-.925,1.358-1.394.385-.4.816-.585,1.257-.156" transform="translate(-988.354 -246.1)"/>
  <path id="Path_84" data-name="Path 84" d="M1007.092,384.964q-5.1-.007-10.2,0c-.924,0-1.132.212-1.137,1.167-.008,1.728,0,3.456,0,5.185,0,1.783-.009,3.566,0,5.349.007.878.245,1.123,1.1,1.125q5.141.01,10.282,0c.853,0,1.1-.25,1.1-1.131q.01-5.267,0-10.534c0-.944-.222-1.16-1.143-1.16m-1.006,11.193c-2.73-.024-5.46-.019-8.189,0-.406,0-.552-.091-.548-.537q.029-4.237,0-8.474c0-.445.144-.546.553-.543,2.729.018,5.46.022,8.189,0,.5,0,.552.214.545.632-.019,1.4-.007,2.8-.007,4.2,0,1.369-.015,2.741.008,4.112.006.429-.06.623-.552.618" transform="translate(-988.088 -245.766)"/>
  <path id="Path_85" data-name="Path 85" d="M1005.241,411.853a.747.747,0,0,1-.253.553c-.939.973-1.883,1.944-2.835,2.9a.787.787,0,0,1-1.212.035q-.735-.7-1.418-1.45a.792.792,0,0,1-.016-1.172.735.735,0,0,1,1.137,0c.295.271.593.77.877.762.417-.016.668-.566.995-.881.467-.451.9-.931,1.369-1.385a.726.726,0,0,1,.95-.14.8.8,0,0,1,.406.775" transform="translate(-988.354 -247.734)"/>
  <path id="Path_86" data-name="Path 86" d="M1008.235,407.654c0-.876-.245-1.116-1.109-1.116q-5.141-.011-10.282,0c-.855,0-1.087.244-1.092,1.131-.008,1.756,0,3.512,0,5.268,0,1.784.008,3.567,0,5.35-.006.766.333,1.085,1.074,1.083q5.18-.021,10.363,0c.75,0,1.061-.341,1.059-1.1-.011-3.54,0-7.079-.006-10.618m-2.229,10.074c-1.362-.03-2.729-.011-4.094-.011-1.311,0-2.621-.019-3.932.009-.467.011-.642-.073-.639-.613.032-2.769.028-5.539,0-8.306,0-.513.144-.641.634-.636q4.012.036,8.026,0c.488,0,.638.121.634.634q-.036,4.154,0,8.308c.006.538-.17.624-.636.615" transform="translate(-988.088 -247.399)"/>
  <path id="Path_87" data-name="Path 87" d="M1041.73,370.195a.765.765,0,0,1-.677.87,3.759,3.759,0,0,1-.722.019h-25.24a3.542,3.542,0,0,1-.722-.022.76.76,0,0,1-.672-.872.737.737,0,0,1,.715-.744,6.214,6.214,0,0,1,.642-.008q12.661,0,25.32,0a5.733,5.733,0,0,1,.643.008.736.736,0,0,1,.711.749" transform="translate(-989.446 -244.591)"/>
  <path id="Path_88" data-name="Path 88" d="M1041.731,376.237a.761.761,0,0,1-.677.867,3.549,3.549,0,0,1-.722.022h-25.24a3.516,3.516,0,0,1-.719-.022.763.763,0,0,1-.673-.872.724.724,0,0,1,.715-.74c.238-.022.482-.013.722-.013H1040.3c.243,0,.483-.009.725.013a.726.726,0,0,1,.711.744" transform="translate(-989.447 -245.048)" fill="#010101"/>
  <path id="Path_89" data-name="Path 89" d="M1041.13,398.665a3.235,3.235,0,0,1-.8.042h-25.239a3.6,3.6,0,0,1-.722-.024.767.767,0,0,1-.673-.874.733.733,0,0,1,.718-.741c.213-.02.427-.006.642-.006h25.318a6.234,6.234,0,0,1,.644.008.734.734,0,0,1,.712.747.754.754,0,0,1-.6.849" transform="translate(-989.446 -246.682)"/>
  <path id="Path_90" data-name="Path 90" d="M1041.731,391.805a.762.762,0,0,1-.79.843c-.185.018-.374.006-.561.006h-12.7q-6.311,0-12.621,0a4.38,4.38,0,0,1-.642-.009.819.819,0,0,1,.032-1.629,4.767,4.767,0,0,1,.563-.009h25.4c.187,0,.375-.011.56.007a.753.753,0,0,1,.759.792" transform="translate(-989.447 -246.223)"/>
  <path id="Path_91" data-name="Path 91" d="M1027.5,364.233c-.016.647-.494.811-1.08.8-1.956-.018-3.91-.006-5.864-.006-1.928,0-3.858-.006-5.784,0-.568,0-1.054-.11-1.066-.806s.45-.848,1.03-.848q5.866.007,11.728,0c.594,0,1.053.207,1.036.854" transform="translate(-989.447 -244.133)"/>
  <path id="Path_92" data-name="Path 92" d="M1027.5,385.8c-.012.711-.562.817-1.154.812-1.9-.016-3.8-.007-5.7-.007-1.957,0-3.912,0-5.865,0-.563,0-1.061-.1-1.072-.8-.012-.747.509-.855,1.1-.855q5.783.011,11.566,0c.606,0,1.134.145,1.123.848" transform="translate(-989.447 -245.766)" fill="#010101"/>
  <path id="Path_93" data-name="Path 93" d="M1027.5,407.34c.011.773-.582.852-1.2.848-1.9-.016-3.8-.006-5.7-.006-1.927,0-3.854,0-5.782,0-.59,0-1.124-.084-1.107-.841s.568-.814,1.145-.812q5.744.007,11.487,0c.594,0,1.148.11,1.16.812" transform="translate(-989.447 -247.398)" fill="#010101"/>
  <path id="Path_94" data-name="Path 94" d="M1058.338,410.82a2.194,2.194,0,0,1-.43.482q-4.229,4.338-8.46,8.674c-.73.748-1.01.755-1.723.029-1.384-1.411-2.762-2.834-4.15-4.244a.925.925,0,0,1-.273-1.04.761.761,0,0,1,.677-.48,1.13,1.13,0,0,1,.835.451c1.076,1.11,2.177,2.193,3.227,3.329.4.427.608.484,1.051.022,2.51-2.627,5.061-5.214,7.6-7.813a5.2,5.2,0,0,1,.529-.5.7.7,0,0,1,.956.046.8.8,0,0,1,.164,1.045" transform="translate(-991.682 -247.628)"/>
  <path id="Path_95" data-name="Path 95" d="M1005.005,369.217c-.947,1-1.914,1.982-2.882,2.963a.767.767,0,0,1-.567.266.9.9,0,0,1-.7-.339c-.415-.424-.829-.851-1.246-1.276-.4-.4-.514-.859-.082-1.286.4-.4.812-.26,1.2.1.842.773.849.766,1.646-.053.492-.5.971-1.015,1.476-1.5a.748.748,0,0,1,1.143-.033.768.768,0,0,1,.008,1.165" transform="translate(-988.354 -244.468)" fill="#fdfdfd"/>
  <path id="Path_96" data-name="Path 96" d="M1004.906,390.912q-1.36,1.393-2.72,2.787a.842.842,0,0,1-1.326-.015q-.621-.638-1.246-1.277a.824.824,0,0,1-.081-1.288c.4-.4.81-.26,1.2.1.842.779.849.773,1.643-.044.454-.464.911-.924,1.358-1.393.385-.4.817-.586,1.257-.156s.314.883-.081,1.288" transform="translate(-988.354 -246.1)" fill="#fdfdfd"/>
  <path id="Path_97" data-name="Path 97" d="M1005.241,411.853a.747.747,0,0,1-.253.553c-.939.973-1.883,1.944-2.835,2.9a.787.787,0,0,1-1.212.035q-.735-.7-1.418-1.45a.792.792,0,0,1-.016-1.172.735.735,0,0,1,1.137,0c.295.271.593.77.877.762.417-.016.668-.566.995-.881.467-.451.9-.931,1.369-1.385a.726.726,0,0,1,.95-.14.8.8,0,0,1,.406.775" transform="translate(-988.354 -247.734)" fill="#fdfdfd"/>
  <path id="Path_98" data-name="Path 98" d="M1005.005,369.217c-.947,1-1.914,1.982-2.882,2.963a.767.767,0,0,1-.567.266.9.9,0,0,1-.7-.339c-.415-.424-.829-.851-1.246-1.276-.4-.4-.514-.859-.082-1.286.4-.4.812-.26,1.2.1.842.773.849.766,1.646-.053.492-.5.971-1.015,1.476-1.5a.748.748,0,0,1,1.143-.033.768.768,0,0,1,.008,1.165" transform="translate(-988.354 -244.468)" fill="#010101"/>
  <path id="Path_99" data-name="Path 99" d="M1004.906,390.912q-1.36,1.393-2.72,2.787a.842.842,0,0,1-1.326-.015q-.621-.638-1.246-1.277a.824.824,0,0,1-.081-1.288c.4-.4.81-.26,1.2.1.842.779.849.773,1.643-.044.454-.464.911-.924,1.358-1.393.385-.4.817-.586,1.257-.156s.314.883-.081,1.288" transform="translate(-988.354 -246.1)" fill="#010101"/>
  <path id="Path_100" data-name="Path 100" d="M1005.241,411.853a.747.747,0,0,1-.253.553c-.939.973-1.883,1.944-2.835,2.9a.787.787,0,0,1-1.212.035q-.735-.7-1.418-1.45a.792.792,0,0,1-.016-1.172.735.735,0,0,1,1.137,0c.295.271.593.77.877.762.417-.016.668-.566.995-.881.467-.451.9-.931,1.369-1.385a.726.726,0,0,1,.95-.14.8.8,0,0,1,.406.775" transform="translate(-988.354 -247.734)" fill="#010101"/>
  <path id="Path_101" data-name="Path 101" d="M1481.884,239.861a2.775,2.775,0,0,1-2.75-2.753,3.163,3.163,0,0,1,.207-1.083,2.523,2.523,0,0,1,.584-.874,2.846,2.846,0,0,1,3.919,0,2.774,2.774,0,0,1,.792,1.958,2.745,2.745,0,0,1-.792,1.918,2.7,2.7,0,0,1-1.961.835" transform="translate(-1024.672 -234.369)" fill="#f6152a"/>
  <path id="Path_103" data-name="Path 103" d="M1481.884,689.452a2.884,2.884,0,0,1-1.043-.212,4.56,4.56,0,0,1-.916-.623,2.51,2.51,0,0,1-.584-.875,2.841,2.841,0,0,1,0-2.13,2.558,2.558,0,0,1,.584-.874,2.845,2.845,0,0,1,3-.623,2.978,2.978,0,0,1,.918.623,2.562,2.562,0,0,1,.584.874,2.341,2.341,0,0,1,.208,1.043,2.4,2.4,0,0,1-.208,1.087,2.514,2.514,0,0,1-.584.875,2.716,2.716,0,0,1-1.961.835" transform="translate(-1024.672 -268.392)" fill="#f6152a"/>
</svg>
