<svg xmlns="http://www.w3.org/2000/svg" width="1870.753" height="1377.163" viewBox="0 0 1870.753 1377.163">
  <g id="Component_3_1" data-name="Component 3 – 1" transform="translate(0.596 0.52)">
    <path id="Path_3" data-name="Path 3" d="M2027.752,0V789.491c-53.475,25.1-99.956,43.229-157.907,59.427-93.676,26.211-151.7,42.924-304.364,42.924-102.295,0-211.808-27.833-305.485-54.023C861.3,726.4,568.415,408.529,507.062,0Z" transform="translate(-239.377 503.039) rotate(-2)" fill="#ff9da3" opacity="0.31"/>
    <path id="Path_372" data-name="Path 372" d="M2339.568,0V970.245c-64.441,30.843-120.451,53.126-190.286,73.033-112.884,32.211-182.811,52.752-366.773,52.752-123.27,0-255.24-34.206-368.124-66.391C933.932,892.705,581,502.062,507.062,0Z" transform="translate(-468.502 -17.696) rotate(2)" fill="#fd152a" stroke="rgba(0,0,0,0)" stroke-width="1" opacity="0.31"/>
  </g>
</svg>
