<svg xmlns="http://www.w3.org/2000/svg" width="321.435" height="162.821" viewBox="0 0 321.435 162.821">
  <g id="Group_315" data-name="Group 315" transform="translate(1806.97 -5882.804) rotate(90)">
    <path id="Path_90" data-name="Path 90" d="M111.157,688.144a2.2,2.2,0,0,1-.8-.162,3.478,3.478,0,0,1-.7-.476,1.916,1.916,0,0,1-.446-.668,2.16,2.16,0,0,1,0-1.626,1.953,1.953,0,0,1,.446-.667,2.171,2.171,0,0,1,2.291-.476,2.274,2.274,0,0,1,.7.476,1.954,1.954,0,0,1,.446.667,1.785,1.785,0,0,1,.159.8,1.828,1.828,0,0,1-.159.83,1.917,1.917,0,0,1-.446.668,2.073,2.073,0,0,1-1.5.637" transform="translate(5773.747 1118.826)" fill="#f6152a"/>
    <g id="Group_311" data-name="Group 311" transform="translate(5882.804 1485.535)">
      <path id="Path_88" data-name="Path 88" d="M111.157,238.562a2.12,2.12,0,0,1-2.1-2.1,2.416,2.416,0,0,1,.159-.827,1.927,1.927,0,0,1,.446-.668,2.173,2.173,0,0,1,2.992,0,2.118,2.118,0,0,1,.6,1.495,2.1,2.1,0,0,1-.6,1.464,2.062,2.062,0,0,1-1.5.637" transform="translate(-109.057 -234.369)" fill="#f6152a"/>
      <g id="Group_310" data-name="Group 310" transform="translate(0.002 0.366)">
        <g id="Group_309" data-name="Group 309">
          <path id="Path_89" data-name="Path 89" d="M127.657,555.511a2.077,2.077,0,0,1-2.228-1.94,2.1,2.1,0,0,1,1.943-2.259,2.1,2.1,0,1,1,.286,4.2m9.007-2.99a2.1,2.1,0,0,1,1.782-2.387,2.09,2.09,0,1,1,.6,4.136.908.908,0,0,1-.286.031,2.124,2.124,0,0,1-2.1-1.78m11.17-1.88a2.1,2.1,0,1,1,2.515,1.591,2.318,2.318,0,0,1-.445.065,2.111,2.111,0,0,1-2.07-1.656m11.012-2.673a2.067,2.067,0,0,1,1.4-2.609,2.11,2.11,0,0,1,2.609,1.43,2.081,2.081,0,0,1-1.4,2.611,2.124,2.124,0,0,1-.6.1,2.075,2.075,0,0,1-2.006-1.529M169.6,544.53a2.109,2.109,0,1,1,2.705,1.212h.031a2.244,2.244,0,0,1-.765.159,2.162,2.162,0,0,1-1.972-1.371m10.5-4.2a2.1,2.1,0,0,1,1.051-2.8,2.057,2.057,0,0,1,2.769,1.015,2.1,2.1,0,0,1-1.019,2.8,2.242,2.242,0,0,1-.891.193,2.1,2.1,0,0,1-1.91-1.209m10.185-4.967a2.107,2.107,0,1,1,3.69-2.036,2.141,2.141,0,0,1-.859,2.865,1.911,1.911,0,0,1-.985.252,2.058,2.058,0,0,1-1.846-1.082m9.77-5.663a2.106,2.106,0,0,1,3.532-2.293,2.132,2.132,0,0,1-.6,2.928,2.225,2.225,0,0,1-1.145.32,2.091,2.091,0,0,1-1.782-.955m9.357-6.365a2.1,2.1,0,0,1,3.374-2.513,2.122,2.122,0,0,1-.413,2.959,2.328,2.328,0,0,1-1.272.413,2.069,2.069,0,0,1-1.688-.859m8.912-7a2.1,2.1,0,1,1,3.182-2.738,2.08,2.08,0,0,1-.224,2.959,2.026,2.026,0,0,1-1.367.509,2.092,2.092,0,0,1-1.591-.73m8.37-7.608a2.092,2.092,0,1,1,2.959,0,1.987,1.987,0,0,1-1.464.637,2.113,2.113,0,0,1-1.495-.637m7.8-8.177a2.11,2.11,0,0,1-.189-2.962,2.1,2.1,0,0,1,3.182,2.738,2.133,2.133,0,0,1-2.993.224m7.224-8.721a2.123,2.123,0,0,1-.413-2.959A2.1,2.1,0,1,1,243,492.24a2.106,2.106,0,0,1-1.274-.412m6.59-9.231a2.043,2.043,0,1,1,1.114.351,2.08,2.08,0,0,1-1.114-.351m5.888-9.675a2.083,2.083,0,0,1-.828-2.831,2.138,2.138,0,0,1,2.864-.858,2.1,2.1,0,0,1,.828,2.862,2.066,2.066,0,0,1-1.846,1.082,1.991,1.991,0,0,1-1.018-.255m5.218-10.054a2.1,2.1,0,1,1,1.751-3.82,2.123,2.123,0,0,1,1.051,2.8,2.173,2.173,0,0,1-1.943,1.209,2.1,2.1,0,0,1-.859-.19m4.455-10.409a2.105,2.105,0,0,1,1.466-3.947,2.1,2.1,0,0,1-.732,4.075,1.961,1.961,0,0,1-.734-.128m3.725-10.694a2.059,2.059,0,0,1-1.432-2.608,2.109,2.109,0,0,1,2.609-1.432,2.116,2.116,0,0,1-.6,4.136,1.763,1.763,0,0,1-.572-.1m2.928-10.915a2.171,2.171,0,1,1,.447.031,2.012,2.012,0,0,1-.447-.031m2.1-11.139a2.083,2.083,0,0,1-1.781-2.356,2.1,2.1,0,1,1,4.168.575,2.087,2.087,0,0,1-2.069,1.812,1.225,1.225,0,0,1-.318-.031m1.338-11.236a2.106,2.106,0,0,1,.317-4.2,2.125,2.125,0,0,1,1.943,2.259,2.068,2.068,0,0,1-2.1,1.94Zm-1.56-13.4a2.1,2.1,0,0,1,2.1-2.1,2.075,2.075,0,0,1,2.1,2.1,2.1,2.1,0,0,1-2.1,2.1,2.119,2.119,0,0,1-2.1-2.1m-.414-11.171a2.1,2.1,0,0,1,1.974-2.228,2.057,2.057,0,0,1,2.227,1.943,2.124,2.124,0,0,1-1.941,2.259h-.158a2.137,2.137,0,0,1-2.1-1.974m-1.178-11.074a2.1,2.1,0,0,1,1.782-2.386,2.066,2.066,0,0,1,2.386,1.781,2.131,2.131,0,0,1-1.782,2.386h-.319a2.116,2.116,0,0,1-2.068-1.781m-1.974-11.011h0a2.1,2.1,0,1,1,2.514,1.622,2.463,2.463,0,0,1-.477.031,2.1,2.1,0,0,1-2.037-1.653M266.069,351h0a2.105,2.105,0,1,1,2.609,1.432,1.879,1.879,0,0,1-.6.093,2.1,2.1,0,0,1-2-1.526m-3.534-10.6a2.105,2.105,0,1,1,2.706,1.24,1.952,1.952,0,0,1-.732.128,2.083,2.083,0,0,1-1.974-1.367m-4.264-10.278a2.087,2.087,0,0,1,1.018-2.8,2.136,2.136,0,0,1,2.8,1.051,2.1,2.1,0,0,1-1.05,2.769,1.7,1.7,0,0,1-.859.193,2.1,2.1,0,0,1-1.91-1.209m-5.028-9.964a2.123,2.123,0,0,1,.859-2.863,2.056,2.056,0,0,1,2.833.827,2.1,2.1,0,0,1-.828,2.866,2.311,2.311,0,0,1-1.018.255,2.169,2.169,0,0,1-1.846-1.085m-5.7-9.61a2.073,2.073,0,0,1,.637-2.9,2.1,2.1,0,0,1,2.9.606,2.136,2.136,0,0,1-.606,2.928,2.251,2.251,0,0,1-1.145.317,2.086,2.086,0,0,1-1.782-.954m-6.365-9.166h0a2.056,2.056,0,0,1,.413-2.928,2.091,2.091,0,1,1,2.514,3.341,2.032,2.032,0,0,1-2.928-.413m-7.033-8.69a2.1,2.1,0,1,1,3.182-2.735,2.084,2.084,0,0,1-1.591,3.468,2.134,2.134,0,0,1-1.591-.733m-7.607-8.177a2.079,2.079,0,0,1,0-2.961,2.115,2.115,0,1,1,0,2.961m-8.179-7.608h0a2.11,2.11,0,1,1,2.961-.19,2.064,2.064,0,0,1-1.591.7,2.092,2.092,0,0,1-1.37-.509m-8.688-7a2.118,2.118,0,0,1-.413-2.959,2.087,2.087,0,0,1,2.928-.414,2.092,2.092,0,0,1-1.273,3.788,2.063,2.063,0,0,1-1.242-.416m-9.165-6.4a2.1,2.1,0,1,1,2.259-3.531,2.112,2.112,0,0,1,.636,2.928,2.167,2.167,0,0,1-1.781.954,1.84,1.84,0,0,1-1.114-.351m-9.612-5.7a2.1,2.1,0,0,1-.828-2.863,2.059,2.059,0,0,1,2.832-.83,2.135,2.135,0,0,1,.859,2.866,2.1,2.1,0,0,1-1.846,1.082,1.927,1.927,0,0,1-1.018-.255m-9.993-5a2.113,2.113,0,1,1,.859.19,2.089,2.089,0,0,1-.859-.19m-10.311-4.3a2.082,2.082,0,0,1-1.242-2.7,2.1,2.1,0,1,1,3.946,1.463,2.083,2.083,0,0,1-1.972,1.368,1.843,1.843,0,0,1-.732-.128m-10.631-3.53a2.1,2.1,0,1,1,1.211-4.013,2.038,2.038,0,0,1,1.4,2.58,2.072,2.072,0,0,1-2.007,1.526,2.223,2.223,0,0,1-.6-.093m-10.821-2.739a2.113,2.113,0,0,1-1.591-2.514,2.1,2.1,0,0,1,4.105.893,2.107,2.107,0,0,1-2.068,1.653,2.263,2.263,0,0,1-.446-.032m-10.98-1.973a2.037,2.037,0,1,1,.287.031.907.907,0,0,1-.287-.031m-13.048-3.438a2.088,2.088,0,0,1,2.259-1.943,2.107,2.107,0,0,1-.318,4.2,2.085,2.085,0,0,1-1.941-2.259" transform="translate(-113.783 -234.888)" fill="#f6152a"/>
          <path id="Path_91" data-name="Path 91" d="M111.164,545.51a2.1,2.1,0,1,1,0-4.208c76.584,0,138.892-62.306,138.892-138.89S187.748,263.521,111.164,263.521a2.1,2.1,0,1,1,0-4.208c78.906,0,143.1,64.192,143.1,143.1s-64.194,143.1-143.1,143.1" transform="translate(-109.06 -242.078)" fill="#f6152a"/>
        </g>
      </g>
    </g>
  </g>
</svg>
