<svg xmlns="http://www.w3.org/2000/svg" xmlns:xlink="http://www.w3.org/1999/xlink" width="1601.181" height="876.987" viewBox="0 0 1601.181 876.987">
  <defs>
    <clipPath id="clip-path">
      <rect id="Rectangle_763" data-name="Rectangle 763" width="1601.181" height="876.987" fill="none"/>
    </clipPath>
  </defs>
  <g id="Group_31" data-name="Group 31" clip-path="url(#clip-path)">
    <path id="Path_10" data-name="Path 10" d="M183.68,190.6c3.175,0,3.568,1.152,6.293,0s10.763-6.453,13.487-7.182,4.469.239.457,2.473-12.068,7.069-10.632,6.7a100.794,100.794,0,0,0,11.28-4.829c5.77-2.718,5.245-1.51,6.733-4.406s2.275-4.412,2.275-4.412,9.137,9.36,9.981,9.725,1.174-.063,1.625-1.208,1.424-2.782,2.725-2.235.188,2.776.963,3.078,2.075-.057,4.475-.843,1.168-2.531,1.168-2.531-.256-.068,2.531-.309,11.537,2.959,14.132,3.985,10.443,1.875,12.648,2.594,3.038-1.265,6.094.365,5.319,3.8,3.044,4.947-7.975,2-5.056,2.72a44.627,44.627,0,0,0,11.543,1.51c4.212-.125,11.794-1.688,14.125-1.688s3.762,1.448,5.968,5.131,3.951,5.13,4.794,5.432-.844-1.75-.394-3.562-.45-5.376-.97-6.578,0-1.813-1.037-3.569-2.719-1.447.394-2.952,5.25-3.74,9.012-3.261,4.793,5.256,8.038,5.609,3.829,1.63,9.4,2.058,3.244.063,9.469.484,3.956-.673,5.25-3.865,2.725-3.808,4.213-3.682,6.737.843,6.737,1.51-2.2,4.1-1.1,5.792,5.587,4.469,5.587,4.469-.975-3.865-.975-4.287-.325-3.438.324-3.985,4.344.3,6.675-4.23-1.561-4.286-1.561-4.286-1.425.068-.714-1.807,4.863-3.016,4.863-3.016.263.844-.263-.672-3.232-1.2-6.156-1.386-4.919-.6-5.444-3.078a71.73,71.73,0,0,1-.713-11.23c0-3.562,2.856-2.3,3.369-4.285s-.131-11.709-.837-13.7,1.032-6.283,1.431-9.115c.375-2.839,3.3-1.574,3.3-1.574-.519-.97.837-3.682,4.731-4.828s11.287.057,11.287.057-.655.062-2.468,2.416-.645,6.528-3.375,9.481c-2.714,2.958-9.656,1.994-9.656,1.994s2.137,4.891,1.231,6.453a19.34,19.34,0,0,0-1.488,4.778s6.094,1.687,6.418,5.551,3.364,4.526,4.081,8.09-2.98,6.521-2.205,7.063,1.037.786,3.249.906c2.2.119,5.182.542,5.182.542a3.722,3.722,0,0,0-.13,3.745c1.1,1.933.262,3.141.387,5.193s1.362,3.8,1.875,3.443,2.924-5.621,3.442-7.969.907-3.625,1.939-3.625,4.543,3.2,4.93,4.349.65,2.719-1.294,5.855-1.75,4.588-.063,5.8,1.75.849,4.794,2.3,2.469,1.323,4.344.781-.781-5.313-.587-5.432,4.48-.6,3.511-3.021-1.956-3.621.056-4.829,3.438-2.172,3.438-2.172a23.405,23.405,0,0,1-2.525-5.677c-1.425-4.048,1.225-2.953,6.812-2.537,5.569.428,5.825,2.355,8.812,3.865s1.1,2.053,2.069,4.47-2.461,2.776-2.461,2.776-2.269.421-1.751,2.291A33.632,33.632,0,0,0,420,194.524c1.619,2.9-.45,4.891-2.986,7.246a12.175,12.175,0,0,1-8.488,3.078c-2.987.057-4.281,1.265-4.469.421-.205-.843-1.63-1.631-3.243-1.265-1.63.36-5.324,1.813-4.024,2.291s4.732.365,3.306,3.022-2.662,2.656-5.513,2.354-5.506-.3-7.331-.427c-1.807-.114-10.762-.662-10.762-.662a61.444,61.444,0,0,0,10.836,5.193,23.4,23.4,0,0,0,9.857.6s-1.95,3.62-4.287,7.484-4.538,2.178-6.476,2.418c-1.955.238-3.118,1.812-6.743,2.29s-11.218-1.026-10.057-.479,1.688,1.5,3.763,1.813a8.842,8.842,0,0,1,5.187,2.172c1.813,1.51-1.168,1.875-3.562,2.291s-3.05.849-4.15,2.354-5.193,7.365-6.487,9.178a19.974,19.974,0,0,0-2.981,8.391c-.525,3.569-3.563,7.849-2.2,8.755s6.476,1.027,8.619,2.354,4.543,7.85,6.156,10.325c1.63,2.473,2.919,4.349,4.732,2.416s5.387-1.447,8.755-.239,10.244,5.974,12.388,8.083,5.893,1.756,10.106,2.36,4.692,2.189,4.692,2.189,4.39.228,2.576,2.1-2.337.056-.524,3.2a14.214,14.214,0,0,1,1.238,9.479c-.525,2.115,5.808,1.049,8.47,2.617s2.8,7.952,4.172,7.165,3.625-2.178,3.888-3.865-.063-3.922-.324-6.824-.975-8.213-2.4-10.323,2.571-2.958,1.921-3.865-.5-2.714,2.229-3.443,2.918-.056,4.406-1.208,1.751-6.516,2.007-8.448a21.131,21.131,0,0,0-1.094-7.667,49.957,49.957,0,0,0-4.276-7.666c-.986-1.089-2.205-1.391.457-4.771s1.094-2.656.706-3.682-.969-3.562-1.488-5.855,1.1-4.833.126-8.094-2.006-2.531-1.813-3.26,6.35-.542,10.894-.058,6.35-.483,7.643-.483,3.637,1.271,6.162,2.9,3.5,1.208,4.8,3.2,2.007,3.078,4.657,2.958a14.268,14.268,0,0,1,5.524,1.146s-1.887,1.089-1.557,4.651-.393,6.15-.33,7.6.787,1.51,2.006,1.692,4.549,3.135,7.975,4.344,4.344.844,5.444-1.933,1.368-2.536,2.73-2.713,1.813.3,2.394-.3-1.038-1.813-.65-3.74,2.269-4.468,3.83-5.923,2.656,1.455,4.019,4.11,6.094,11.287,7.456,14.12,3.112,3.022,1.487,5.683-2.4,3.8.131,5.005,4.8,3.324,4.611,5.313c-.205,1.995-.724,2.052.126,2.6s3.888-1.089,6.093-.12,4.857,1.876,6.418,3.438,1.432,2.115-.78,2.9a38.652,38.652,0,0,0-5.513,2.235c-1.105.666-2.851,1.937-2.787,2.963s-.457,2.714,1.3,1.386a23.414,23.414,0,0,1,6.675-3.26c2.075-.6.519-.063,2.4-.3s3.694.907,6.294,1.631c2.582.73,1.875,2.355,1.226,3.865s-1.226,2.953-.194,4.652-.45,3.2-2.725,5.25-3.951,2.354-7.644,2.839-5.454,2.713-8.042,5.124-3.888,1.813-7.651,2-2.268-1.87-3.431-1.448-2.656,1.693-5.056,1.938-10.511.359-13.624,1.265-2.132,3.015-2.913,4.766-2.012,1.026-4.344,1.812-5.124,4.231-7.843,8.939a29.329,29.329,0,0,1-6.418,7.6,20.392,20.392,0,0,0,6.481-4.834c1.881-2.291,9.725-7.725,12.124-9.411s7.581-4.167,8.812-3.807,4.287,2.719,4.287,3.927-.912,2.172-3.112,4.223-5.124,0-4.931.844a5.691,5.691,0,0,0,3.438,3.2c1.687.422,1.613,2.48,1.613,3.506s-.969,2.354,2.919,5.614,6.617,3.5,9.473,3.318,1.357.969,2.525.849,1.425-2.355,1.813-4.168,1.044-3.5,2.075-4.287,1.813-2.234,2.143.548-1.168,6.577-2.668,7.421c-1.483.844-1.157,1.933-1.157,2.776s-1.688.907-5.711,3.141-5.313,2.777-6.026,2.474-2.206.365-4.144,2.115-4.019,4.11-5.444,4.041-2.662-.661-.718-2.656,2.6-4.766,4.537-5.735a7.858,7.858,0,0,1,4.475-.843c1.619,0,.844-.97,2.138-1.927s-.975-.672-3.181-1.032-.513-2.3-.513-2.3l-2.275,1.208a28.864,28.864,0,0,1-4.343,1.938c-.9.114-.707.718-.97,1.083s-3.5.6-3.5.6-1.688,3.438-4.219,3.922-.769.3-2.594,1.083-1.482-.9-1.875-.421a11.89,11.89,0,0,1-2.719,2.417c-2.012,1.516-3.186,1.995-4.606,7.491s.257,7.484.194,8.333-2.531-.546-3.238.115c-.724.667-2.343,2.719-4.48,3.323s-6.35,1.692-7.325,2.719-1.037,2.473-1.493,4.582-2.982,7.069-2.982,7.069a3.41,3.41,0,0,0-1.169-3.443c-1.75-1.447-1.482-2.776-1.482-2.776a9,9,0,0,0,.257,4.041c.655,2.053,1.937,4.11,1.362,6.339-.593,2.235-1.693,5.017-3.044,5.8-1.368.787.319-1.51.319-3.317s-.907-1.933-1.494-2.833-.587-3.2.45-6.287-.969-1.2-2.137.849-2,5.854-.194,8.333-1.163,2.229.068,5.792-1.488,5.313-.981,5.86c.525.542,1.95-.239,2.6,1.5s-1.295.969-1.945,1.454-.33,1.145.064,2.115,1.168.353.843.661a6.988,6.988,0,0,1-2.918,2.052c-1.682.543-1.819-.307-2.856.907s-1.807,2.291-2.913,3.677-1.875.911-3.044,1.875-1.618,1.751-3.055,2.959c-1.42,1.209-4.663,3.078-6.413,5.432s-1.3,2.959-2.143,6.766,2.143,10.444,4.024,16.726,2.656,4.526,2.394,6.516a10.753,10.753,0,0,1-2.468,5.8c-1.35,1.392-2.126-.969-4.008-2.36s-.394-2.348-2.205-5.244a10.165,10.165,0,0,1-1.881-6.042,26.721,26.721,0,0,0-1.488-7.421c-.975-2.3-3.055-5.2-6.162-4.048s-2.331.6-4.019.114-6.156-2.286-8.431-1.083-9.457-.364-10.955,0-2.6.491-2.6,1.517-.639,1.2,2.018,1.926,2.269,1.51,2.081,2.656-2.148-.6-3.186-1.026-2.007.844-3.819.844-2.143-1.75-3.768-1.99-2.269,0-3.825-.6-3.625-1.631-5.444-1.511-8.819,4.771-12.124,7.245-5.838,4.891-6.607,6.881-.849,2.178,1.813,5.136,1.425,2.479.907,4.167-2.075,3.74-3.951,8.089-.781,6.459,1.482,10.626,4.287,7.182,6.1,8.932,3.108,3.625,4.669,4.287a6.207,6.207,0,0,1,2.594,1.63c.713.73.519,1.027,2.987.365,2.451-.661,4.269-1.63,6.026-1.63s3.375.056,4.344.969,1.1.365,1.1-.126a12.082,12.082,0,0,1,1.038-2.776c.257-.485,2.594-3.8,2.981-5.615s.388-5.438,2.663-5.677,7.125-1.385,11.536-1.083,2.463,2.474,1.3,4.766-1.63,2.536-1.63,4.287.524,1.755-.895,2.781-.525-.6-1.106.421a9.13,9.13,0,0,1-2.4,2.235c.256-.24.906,1.744.906,2.713s-.193,1.448-.193,3.808-4.606,4.766-4.606,4.766a9.033,9.033,0,0,0,4.149.969c2.469,0,5.444,0,8.038,1.209s7.519-.97,11.156.843,2.337,2.9,2.588,4.589a52.4,52.4,0,0,1,.4,8.812c-.268,1.328-1.955,5.067-2.861,7.729s2.593,4.589,5.843,6.761a27.039,27.039,0,0,0,7.781,3.62c1.67.484,4.788-2.537,10.5-2.172a8.983,8.983,0,0,1,7.645,5.193,24.539,24.539,0,0,1,3.243-7.126c2.6-4.1,2.719-5.312,6.219-6.64s4.674-1.568,10.38-3.38,4.662-.479,7.639-.24a83.043,83.043,0,0,1,16.736,2.9c6.869,2.053,17.381,2.656,21.393,4.344s5.837,6.406,9.987,10.266,9.331,7.365,11.537,9.177,14.525,3.506,17.25,4.59,6.481,5.55,6.737,8.208,2.981,3.985,6.738,5.552,4.93,3.386,7.4,8.214,1.682,6.157,5.05,7.365,26.718,7.484,32.543,9.781,13.231,8.454,15.175,9.178,5.449-.61,7.005.239-.911,5.431,1.038,8.692,2.074,3.506.906,5.918-5.837,8.213-7.644,11.109c-1.825,2.9-5.711,4.709-7.912,5.923-2.206,1.2-4.156,0-2.206,2.411s.132,4.463-1.556,6.64.13,1.927-.394,8.938,0,14.6-.78,17.626-5.307-2.657-10.5,3.865-6.606,11.469-9.718,12.193-10.375,4.35-12.837,6.641-2.982,3.141-4.543,6.521-3.108,10.261-4.794,14.491-4.406,6.64-10.631,12.313-8.949,11.474-12.974,15.943-2.981,3.495-3.819,4.344c-2.149,2.155-11-3.477-8.71-.359,1.687,2.29-.951,0,.473,2.166s2.469,3.021-.644,6.885-6.7,3.1-9.167,3.706-6.138-2.536-6.4-.962-1.682,5.472-3.631,6.435-7.126,2.417-6.994,3.022c2.45,11.439,7.484,12.631,2.155,12.107-14.622-1.424-4.19-4.9-14.354,16.383-1.55,3.266-3.106,1.574-2.85,5.439s0,6.76,2.08,9.178.645,2.291-2.855,5.551-3.762,2.782-7,7.73-6.357,4.708-5.194,8.454,1.432,9.3,3.375,14.849,5.963,4.583,12.319,8.454,7.131,1.806,10.243,2.776-2.206,1.209-7.786,2.171-9.2,2.052-13.094,1.215-13.088-6.162-16.206-8.459-8.163-6.4-9.982-10.38-3.112-7.969-5.443-13.4-.655-8.818.387-20.772,1.819-21.25,3.5-27.645,6.874-34.9,8.294-42.268,8.042-37.309,8.562-42.018a112.9,112.9,0,0,1,1.944-13.042c1.037-4.708.393-14.251.393-14.729s-.393-.844-1.824-5.313-3.757-6.282-7-8.209-6.617-4.349-9.205-6.162a39.332,39.332,0,0,1-8.3-7.6c-2.6-3.261-5.062-9.9-6.355-12.684a169.908,169.908,0,0,0-10.5-18.708c-4.407-6.521-4.669-6.647-6.875-13.533s1.944-7,2.725-10.865,3.369-7.73,6.225-13.157,6.612-7.005,8.818-11.834.519-4.833-.262-9.542.262-3.979-1.175-6.521-2.194-5.666-3.494-6.516-3.238-1.454-4.407-.12-3.243,5.187-4.537,5.432-1.819-1.214-2.595-2.058-4.537-.843-5.319-1.688-2.718-.969-4.012-1.567a58.573,58.573,0,0,1-7.786-4.469,10.335,10.335,0,0,1-3.238-7.246c0-3.135-2.719-4.349-8.812-8.692s-8.693-4.954-16.087-6.767-10.369-7-12.837-8.448-2.2-3.02-7.65-2.416-12.056-2.417-16.212-4.1c-4.139-1.692-11.538-2.895-14.656-4.948-3.1-2.058-8.544-2.781-10.882-7.729s-1.949-3.021-1.037-7.365-5.319-7.969-9.081-12.073-6.613-4.708-8.556-9.782-4.794-4.833-8.556-8.453-3.893-8.214-5.449-12.318-11.92-10.021-11.92-10.021,2.713,6.886,3.882,9.662a104.844,104.844,0,0,0,7.005,14.37c3.107,4.949,5.837,6.157,8.688,11.1s.131,7.969-.912,6.042-5.187-2.782-5.187-5.073-1.032-3.745-1.943-5.552-4.927-3.871-8.82-7.012-6.606-4.583-4.149-4.583,5.968,2.291,5.319.843-5.056-5.917-7.131-9.057-2.73-6.641-4.8-11.953-9.72-10.387-13.488-10.745-4.794-2.172-6.088-6.037-1.556-7.969-3.244-10.99-8.949-13.157-9.074-17.02-2.206-15.1.387-21.377,1.944-20.282,1.556-23.064-5.062-8.083-5.062-10.141,2.73-.844,4.806-.245,6.476,2.416,6.476,2.416-3.364-6.275-5.438-8.447-8.175-4.953-10.894-5.558-6.224-1.568-7.65-3.859-2.982-5.313-4.024-7.251-5.449-4.218-6.476-6.276c-1.043-2.057-.781-6.037-2.205-8.089s-3.506-3.26-5.844-2.416-3.1-1.209-4.919-4.23-5.837-4.464-7.005-4.823-5.182-5.677-5.444-7.006-6.618-8.334-8.687-9.78-22.174-7.97-22.687-7.97-6.361.844-7.912.365-6.874-5.073-9.587-6.037c-2.731-.969-4.681,1.083-5.969,4.1-1.305,3.015-7.655,8.208-11.156,10.5s-6.356,2.542-6.1,1.334A22.755,22.755,0,0,1,107.9,268.6c1.163-2.895,1.812-3.739,5.438-5.552,3.643-1.812,3.5-1.932,2.081-1.812s-2.468-.24.388-1.927,4.018-1.938,3.888-3.386-6.225,1.938-10.119,5.073a35.369,35.369,0,0,0-9.588,10.865c-3.375,5.558.387,3.5-2.468,7.126s-12.575,10.99-15.425,13.767-14.65,8.932-19.456,10.385-6.737,2.053-9.074,3.986-8.164,2.531-6.225,1.208,5.575-4.355,8.042-5.8a104.054,104.054,0,0,1,11.02-4.823,35.733,35.733,0,0,0,10.118-7.125c2.719-3.022,4.537-6.522,6.35-9.417s2.206-4.23-1.55-3.022a15.946,15.946,0,0,1-9.6,0c-1.945-.724-7.005,2.291-8.819.969s.131-4.11-1.043-5.438c-1.157-1.327-5.182-.479-7.775-.969s-6.22-2.531-6.22-6.157-2.593-6.76-1.174-9.536,3.511-3.506,5.837-5.068a33.8,33.8,0,0,1,10.112-3.625c1.305,0,3.119-1.328,4.281-2.536s-2.725-5.558-2.725-5.558.65-.479,2.206-1.447.393-3.016-2.338-2.656-8.556,3.146-12.187,4.1-8.551.364-8.425-1.2.907-2.537-.387-3.745-2.337-2.537-1.038-3.135,9.337-5.074,9.337-5.074,2.85,3.135,5.963,3.5,9.719-5.432,9.719-5.432c-4.145-2.537-3.238-3.261-3.238-3.261s-6.744-.119-8.3-1.089-2.075-2.895-2.462-4.583-7-3.022-5.182-5.8,5.182-3.74,7.388-6.516,4.149-7.975,10.506-10.871,14.005-5.551,17.374-7.969,4.925-.114,6.224.239,9.337-.353,12.445-.353,3.63,3.494,4.668,4.337,28.4,1.693,28.4,1.693,23.2.365,27.875,1.692,13.094,4.829,13.094,4.829c5.124-.661,4.674-6.886,7.844-6.886M495.459,50.534S493.121,60.2,483.8,62.853s-26.46,10.141-27.236,10.625,1.037,5.792,3.369,8.448,4.537,4.469,6.612,7.125,5.706,2.418,8.562,5.193,4.92,1.808,12.707,1.934,5.706.723,14.393,1.208,17.768,1.208,20.75,3.865,7.256,13.042,9.981,19.318,7.525,16.663,7.525,17.631-2.987,8.574-2.987,9.776,1.557,3.261,2.987,4.953.643,3.016.382,4.584,1.556,5.558,1.818,6.042,4.144-3.865,6.613-4.589,8.562,4.349,8.562,7.85c0,7.934,2.16,5.232-10.763,14.61-1.7,1.237-3.368,10.744-2.075,15.328s4.407,10.026,6.87,16.548,9.725,15.693,12.056,19.923,2.986,10.021,8.168,11.354,10.118,3.135,13.875,3.979,6.224,2.052,8.037-1.448,5.45-16.781,8.437-26.444-.268-12.557,6.738-14.729,18.149-6.521,21.131-7.849,2.468-10.865,9.08-14.011,7.518-2.89,14-4.949a88.249,88.249,0,0,0,22.049-10.745c6.481-4.588,8.294-2.171,10.632-6.4s-2.338-10.387-2.851-16.663,2.075-6.641,3.364-12.317c1.305-5.673,1.949-9.418,7.005-13.282s7.775-6.031,6.874-9.656-3.5-9.058-3.5-13.042.906-1.687-1.168-7.239-2.075-6.282-.137-11.474c1.955-5.194,7.137-3.86,6.748-6.162s-8.3-5.792-8.424-12.194,1.424-8.327,2.719-9.9,14.524-12.073,15.43-13.042-.256-3.619,6.225-6.76,8.687-5.187,11.15-6.156,6.356-.844-1.169-3.022-9.2-3.135-14.131-2.531-6.606,3.38-15.431,4.23-18.805,4.948-18.805,4.948,2.987-2.656.394-5.2,6.743-10.865,8.3-11.834c1.545-.959-12.194-4.344-19.33-5.666S648.2-.541,640.167.057,620.33.548,616.305,1.87s-3.494,6.521-8.037,6.767-12.963-2.656-19.45-1.693-16.86,5.438-18.023,5.677,4.023,3.381,7.393,4.1,7.775,7.73,7.775,7.73-9.068-3.022-18.28-5.559-19.975,0-23.732,1.09-8.687,3.135-16.205,3.5S511.67,30.008,507.39,32.9s-17.632,10.626-21.007,12.438S484.309,48,487.94,48.967s7.519,1.568,7.519,1.568M303.3,150.352c1.032,4.424,1.032,10.785-1.392,8.048s-4.406-8.293-8.294-6.041-8.123,1.618-7.432,1.134-.086-2.9-2.081-3.625c-1.978-.725-3.193.4-5.261,1.613s-8.648,2.815-5.969.718,1.814-3.215.861-5.632-7.782,1.688-11.412,4.27-5.786,6.515-7.952,9.171-.6,4.355,2.679,5.313,8.562,1.613,4.149,3.226-7.78,2.73-5.529,4.1,6.14,1.606,10.027,1.122,7.176-1.521,13.4.166a39.036,39.036,0,0,0,9.935,1.606,19.733,19.733,0,0,1-6.481,2.178c-4.149.718-11.76,0-15.652.718s-10.021,1.767-8.465,3.221,2.764,3.7,8.123,5.392,6.315.086,9.508.884,1.477,4.43,2.338,4.994,6.919-.479,12.968-1.607,3.8-2.1,8.561-3.306,4.92-4.823,7.69-5.633.781,1.853,4.059,2.657,1.471,1.048,5.016,1.613,2.851,1.932,6.31,1.687,7.518-2.571,7-2.981a3.009,3.009,0,0,1-.684-3.055c.342-1.607-3.472.319-4.845,1.129s-1.294-2.178,1.636-3.626c2.947-1.447,5.547,0,7.268,0s.177-4.993-2.942-5.791-4.491-2.742-9.166-5.313-2.246-3.706-3.625-7.079-4.327-13.373-6.92-15.14-5.358-1.288-7.946-3.056a17.625,17.625,0,0,0,.52,6.92m-71.75-6.84c1.129,3.214,1.294,1.2-.952,4.743s-.952,4.833-2.509,7.49-5.7,6.2-4.406,7.969,5.444,2.815,7.176,4.183,3.455,4.184,6.562,3.141a34.067,34.067,0,0,0,6.316-2.9c2.166-1.123,3.978-2.412,3.888-5.233s-.171-4.179.7-3.939,2.241,1.528,2.93-.324a17.006,17.006,0,0,1,3.375-5.712c1.465-1.447,5.7-2.9,7.69-4.588s5.363-3.539,6.309-4.988-1.732-2.577-3.368-3.227-3.54-3.215-7.348-3.215-5.877,2.9-5.706,1.607-2.594-1.933-4.144-2.5-3.027-1.448-7.958-.884a55.719,55.719,0,0,0-10.893,2.012c-3.368.963,1.215,3.135,2.338,6.362M344.1,182.069c-.513.719-2.765,1.448-4.144,3.056s2.935.73,4.315,1.208,2.423,1.848,3.546,2.257,7.177.639,9.685-.569,2.759-1.607,2.5-2.166a37.838,37.838,0,0,0-8.82-7.331c-3.631-1.933-3.716-2.007-4.491-1.528s-2.075,4.343-2.594,5.073M327.755,144.4c-2.342,1.168-4.048,2.571-.079,4.589s5.272,3.7,7.952,5.392,3.8,6.521,9.423,4.349,7.867-4.748,8.653-7.005c.764-2.257-.786-2.736-2.166-4.834s-1.728-2.975-4.583-2.656-3.808.325-3.808.325a15.974,15.974,0,0,1,5.016-3.944c3.112-1.533.513-2.577,1.984-4.025s-3.711-2.171-5.956-1.612-2.338-.16-6.054-.32-9.594,3.22-9.337,4.424,3.027.729,5.621,2.177,3.369,1.289.775,5.393-3.973-.964-4.84-1.614-.171-1.847-2.6-.639m-16.588-7.4c-3.882.364-5.193,3.055-3.717,3.46s2.417-.4,4.748,2.093,4.412,3.864,5.358-.24-.428-5.883-6.39-5.312m-62.419-31.159c-4.331,3.465-5.181,6.2-8.55,8.379s-2.6,4.025-1.471,5.222c1.123,1.215,4.491-.074,6.048-.878s2.851-2.815,3.8-1.607,4.931-4.1,6.488-5.882,3.973-3.62,4.412-3.535-1.482,2.092-.781,3.78,3.8,1.773,6.567-1.123.262-5.558,2.422-7.81,3.974-1.937-.256-3.951-6.92.245-7.786,1.294-2.417-.65-10.894,6.111m26.364,5.478c-2.45.114-3.54.484-7.6,2.252s-5.791,6.361-6.737,8.858.427,2.5,4.149,3.945,8.9-.4,10.107-3.865,2.691.8,1.995,2.576,2.594.16,4.15-.65,6.219-1.122,6.566-1.122-3.8,3.14-7.871,4.508a57.561,57.561,0,0,1-8.47,2.253c-1.123.165,1.048,1.851,5.791,2.821,4.76.963,7.61-2.9,14.444-5.478s6.481-3.061,8.727-2.412,4.669-1.129,7.433-1.778,3.888.41,5.107-3.7c1.2-4.1,3.364-8.049-.524-8.294s-4.149-.239-4.668,4.19-.867,1.693-.867,1.693-2.594-3.865-4.149-5.883-2.68-5.148-4.407-6.84-2.508.724-5.187,3.7-.519,4.1,2.161,5.392,4.583,4.589,3.289,5.473-2.77-.16-7.695.4-4.755-1.528-6.14-2.172,2.332-2.012-2.947-4.184c-5.261-2.177-4.914-1.778-6.652-1.692M259.124,115.5c.547-.934-6.562,4.184-7.644,5.832s1.082,1.367,3.243,1.288,2.594-4.024,4.4-7.12m13.663-10.67c-1.778.8-1.778,1.408,1.117,1.727s4.589-.962,3.979-2.171-3.671-.2-5.1.445m14.735-15.288c-1.9.313-7.519,2.291-7.827,3.249a7.652,7.652,0,0,0,.912,4.714c.866,1.648,1.175,1.893,6,.6,4.845-1.288,8.175-3.785,6.566-4.23s-2.582-1.169-4.007-1.362,1.249-.97,4.446-1.972,4.281-2.742-6.093-1m-16.377,2.531c-1.368.627-1.863.638.992,1.733s5.923,1,5.529.119a4.756,4.756,0,0,0-6.521-1.852m11.145-7.929c-2.7,1.066-3.318,3.015-3.928,3.779s3.067-.558,4.749-.963,2.075.6,3.722-.849,4.885.045,7.826-.6,3.409-2.571,2.765-4.258-7.394-.165-15.134,2.9M311.6,91.428c-.8.382-.519,1.647.177,3.141s.866,1.123,2.331,1.688a11.318,11.318,0,0,1,3.283,2.092c.353.365.558.484,1.169-.963s-.3-1.208-1.945-3.142-2.936-3.824-5.015-2.815m9.986,12.638c-2.241-.61-3.5.683-4.327,1.082s.434,1.328,1,3.056.086,2.3,3.369,2.542,4.281-.364,4.537-2.457-2.5-3.659-4.577-4.223m12.752,3.785c-2.035-1.495-3.027-2.7-5.1-1.853s-.348,1.887-.348,2.457,2.509-.079,2.554,1.288.815,1.926-2.206,2.092-3.853.04-5.016.923,2.252-.119,3.29,1.249,2.81,1.527,5.7,1.089,6.829-1.089,6.829-1.089a23.114,23.114,0,0,0-2.982,3.42c-.861,1.408-1.208,3.421.3,4.424s1.687-1.037,5.883-1.123,5.443-2.252,5.443-2.252a3.943,3.943,0,0,1-.82-3.022,8.376,8.376,0,0,0-.046-2.576,17.384,17.384,0,0,1,2.074,1.693s-.3-1.249-.906-3.506-.126-2.417-.78-5.472-.52-3.707-3.671-3.626-5.319,1.175-7.918,1.175c-2.583,0-3.717.479-1.808,1.447s2.167,2.131,3.067,3.215.736,3.7.781,3.585-4.32-3.539-4.32-3.539m-15.778,11.468a1.1,1.1,0,0,0-.138.057,3.752,3.752,0,0,0-1.852,3.124c-.085,1.048,1.733.439,4.628-.565s1.472-3.939-2.638-2.617m40.8-5.472a21.237,21.237,0,0,0-5.706,4.629c-1.38,1.568-.171,1.766,3.414,3.58s7.433,2.172,9.115.279-.775-11.794-6.823-8.488M376.037,99.8c-4.6.456-3.175,1.14-8.494-.6a49.915,49.915,0,0,0-13.807-1.938c-1.818,0-.969.849.913,3.933s2.393,4.161,6.286,3.193,7.064-1.625,9.919,2.473,4.344,5.381,2.007,6.886-1.237,3.922.13,7.069,4.47,3.009,8.819,3.009,31.831-.416,36.112-1.2,8.1-4.406,10.374-6.036,3.5-4.168.388-6.043-7.525-3.62-11.024-3.62-6.481,1.813-11.8,2.354-4.144,3.084-8.944,3.2-2.468,2.235-8.368-.182-10.243-5.439-7.444-5.86c2.781-.422,5.05-.781,3.494-2.109s-4.281-4.953-8.562-4.525m-54.974-22.46c2.85.964,3.569,1.688.387,2.531s-5.643,3.079-2.462,2.656,5.9.3,9.981.97,3.757.239,5.576,2.536,3.762,2.291,6.555,1.63,3.169-.849,1.362-2.845-3.7-5.665-6.162-7.119-4.537-3.506-7.005-3.255-3.045.3-5.187-2.6-3.819-1.516-6.937-.729-4.1,3.01-5.313,3.99c-2.462,1.995,6.357,1.265,9.206,2.234m37.348-29.584c-3.374,4.223-6.1,7.786-2.279,8.208s5.512-.3,5.774.912c.262,1.2-.65,2.046-6.356,2.046s-3.951,1.27-.776,5.011,3.506,2.473,8.363,2.354,6.48-1.876,10.506-.838,5.25,2.052,1.618,3.134-12.193,3.136-10.243,4.949,7.974,6.156,10.7,6.583,3.3-1.812,9.205-1.151,4.476,1.271,5.119-.36,3.893-5.792,4.537-7.308,2.275-2.473,5.513-3.2,4.281-1.75,1.231-2.838-6.481-1.569-6.156-2.412,2.205-3.323.9-4.595-3.364-1.208-5.056-1.87c-1.677-.661-3.563-3.739-5.707-5.067s-4.012-1.454-6.612-3.443-6.738-6.852-11.926-6.578c-3.494.177-4.993,2.229-8.357,6.459m-6.624,35.319c-1.294.661-4.531.78-2.132,2.77s1.75,2.058,4.788.911c3.056-1.152,7.462-3.99,7.855-4.833s-3.049-2.473-5.386-3.2-3.951-2.594-8.819-3.927c-7.068-1.926,4.994,7.6,3.694,8.277M510.411,20.271c-5.358-1.454-24.545-5.16-30.771-3.711s-5.883-3.215-14.524-2.086-21.953.479-26.1,1.123,2.069,2.417,4.32,3.865-10.717-1.607-20.578,1.129-16.251,4.184-5.695,8.208c10.54,4.025,11.926,5.154,11.926,5.154s-13.488-2.417-19.193-4.669-2.588-2.093-13.316.963c-10.711,3.056-21.086,4.674-20.567,7.889s8.648,7.57,14,8.693,16.428-1.607,17.294-1.933-4.326,4.35-4.326,4.35,5.528-1.129,11.754-2.742,11.064-3.375,16.946-5.472A51.42,51.42,0,0,0,438.5,38.3s-10.2,7.895-17.289,10.626a77.5,77.5,0,0,1-20.573,4.673c-4.32.16-3.637,2.9.69,5.154s7.6,7.079,9.856,8.687a6.793,6.793,0,0,1,2.594,4.19,11.985,11.985,0,0,0-14.177,0c-7.439,5.307-6.4,8.049-4.5,8.693s8.471,1.288,9.68,3.539,9.856-2.092,9.856-2.092-4.315,5.472-8.47,5.472-3.974-3.539-10.027-2.9-5.706,2.1-3.107,4.184,4.669,2.742.171,4.834-6.573,2.736-6.744,5.312,5.877,2.577,9.679,2.577,7.433-.331,14.354-.484,6.048-2.417,8.641-2.417,5.187.8,4.149,3.38,1.032.969,8.648-1.767c7.6-2.736,4.138-6.931,3.631-8.373s-3.289-1.933-5.016-2.737,5.187-7.894,4.145-10.3c-1.026-2.417,8.476-.491,12.792-6.123s2.77-9.821-.342-10.785,5.711-.319,8.47-1.938c2.77-1.6,8.824-3.534,11.241-6.594s3.283-4.19-2.588-3.541,8.459-2.576,15.38-7.09,14.872-9.816,16.594-11.1,3.294-.65-4.84-.159-17.809-.644-12.444-1.289,21.268-2.577,25.418-5.632a49.247,49.247,0,0,1,6.042-4.024M413.6,132c-8.653-.81-21.262-2.9-23.861,4.5s-6.567,23.839-6.915,26.894,10.375,7.565,17.808,7.884,19.54.8,17.118-.963-.348-2.736,6.566-2.417,7.61-1.447,7.61-2.9,1.208,1.767,6.048,4.343,9,9.827,13.316,14.012,14,9.816,12.1,13.042,2.069,14.491-12.8,17.068-15.727.8-15.551,4.183.855,4.829,6.737,4.829,14.006-4.829,16.771-1.289,6.567,4.828,9,5.637-2.942,2.246-4.327,2.737,2.941.963,11.412,4.987,18.668,4.51,13.653,1.614-7.428-8.208-9.68-9.987-.171-.319,3.808.65,7.6,4.184,9.331,5.632,2.593-.479,3.8-6.122-.513-5.632-7.262-10.135-8.813-8.049-9.509-11.275,3.46-3.865,5.193-6.123,6.572,4.03,9.855,7.729,6.043,10.147,8.642,5.478,5-15.135,5-17.551-2.587.159-13.647-5.313-16.775-7.565-17.807-7.565,2.936-2.092,7.781-4.509c4.829-2.417,6.909-2.086-3.466-11.914s-13.31-11.914-20.053-12.558-8.642-7.729-13.481-10.141-16.081,2.9-19.37,3.7-2.246,2.087-6.4-3.865S413.6,132,413.6,132m7.775,0c-4.3.513,2.593,8.368,8.123,8.7s10.2-2.417,11.412-2.742S428.12,131.188,421.378,132m-19.4,79.85a41.18,41.18,0,0,0-2.725,9.908c-.262,3.26-.781,3.739-1.425,5.791s2.075-.359,3.894,2.656,1.026,3.865,4.275.365,6.874-4.708,11.406-3.261,8.043,2.052,6.487-.718-3.632-2.543-6.744-6.282-5.443-4.708-9.331-6.161-4.287-6.037-5.837-2.3M434.6,493.957c-1.339-2.793-3.352-7.32-11.759-8.882s-11.247,1.562-14.354,2.611,2.9,1.562,6.9,0,7.046-.336,7.593.382c.53.724-1.351,1.157-2.029.394s-.816,1.875,3.7,3.506,5.62,2.411,6.076,4.349.417,2.975,1.443,4.595,1.42,2.3-.479,3.01-1.231.616.165,1.482a18.513,18.513,0,0,0,8.175,2.633c3.95.336,5.256,1.072,2.508-2.542s-7.525-10.659-7.946-11.537m12.558,17.682c2.189,2.246,1.557,4.685,1.4,5.974s-2.514.291-6.858-.855-3.676-.588.1,1.448,6.213,1.539,6.048,4.253,3.465.251,5.068-1.323,1.494-.177,8.2.833,8.083,2.223,7.017-.718,3.072-2.7-2.885-5.507-20.573-6.658-18.087-4.1m-19.09,1.676c-2.525-2.793-5.678-3.2-5.706-.821s.855,2.235,3.181,2.885c2.348.649,4.138-.286,2.525-2.064m48.7,12.113c-2.742-.941-3.306,1.123-1.482,2.844s4.628,1.124,7.387.992-1.117-2.189-5.905-3.836m-31.546-336.94c-3.636,1.533-5.769,2.594-2.594,6.76s5.062,6.76,6.282,3.745c1.237-3.016,2.469-13.106-3.688-10.506m-29.1,44.7c-5.478.883-7.269,1.043-6.4,4.11s2.337,2.571,6.048.718,6.316-5.792.354-4.828m11.406,4.668c-.935.286-1.209,2.417,0,4.344s3.539-.639,4.583-2.975-1.123-2.417-4.583-1.369M367.7,89.256c-5.182.171-12.968,2.008-8.647,2.087s7.872.969,14.878.569,7.685-.889,7.861-4.269-4.578,1.288-14.092,1.613M335.286,60.84c-5.29,1.642-3.979,2.735,2.24,5.472s6.4,1.447,5.712-3.7-4.84-2.736-7.952-1.767M704.791,195.579c-6.55,1.829-8.743.735-9.986,4.058s-3.808,1.54-5.29,1.949-3.574,9.679-4.611,8.3a25.2,25.2,0,0,1-2.925-5.313c-1.5-3.186.5-2.622-2.383-5.979s-8.573-2.975-8.978-1.6,3.933,2.531,2.462,4.081-5,3.466-6.338,4.589,2.564.632,5.015.057,4.127,1.841,5.13,3.551-1.122,3.38-2.182,4.212,3.562.633,5.409.975,2.816,1.9,1.557,3.99,5.5.3,9.24.079,4.72,2.565,10.375.792,8.35-1.648,13.5-5.461,4.754-2.925,8.174-5.387,2.6-3.215,2.742-5.94,2.258.764,1.454-3.352-5.022-3-7.969-3.317-2.845-2.633-4.327-3.364-3.432,1.226-10.073,3.079M1142.44,550.252a12.875,12.875,0,0,0-.7,4.265c0,2.177-.257,4.514-.086,6.68s.3,3.706,1.511,4.19a4.014,4.014,0,0,0,4.025.04c1.989-.923,3.848-2.576,2.856-5.073a68.639,68.639,0,0,0-3.94-7.764c-1.078-1.847-3.153-4.184-3.67-2.338m-1.585-2.986c.211.923.507.73.947,1.368s.906.079.3-.763-.531-.946-.531-.946-.769-.263-.769.5m186.7,128.338c-.029.1-.143.148-.211.227-3.551,3.592-6.778,2.589-12.877,4.481-6.22,1.926-16.988,8.209-17.769,10.99s0,3.134-.775,2.77a9.5,9.5,0,0,1-2.081-2.052,13.186,13.186,0,0,0-1.294,6.4c.387,3.016,1.813,4.829,1.687,8.693s-1.556,6.157-1.425,8.813,4.532,7.729,5.707,10.875,1.944,2.291,2.588,7.969,3.631,8.807.644,11.828-5.182,2.412-1.551,5.552,6.618,5.193,12.444,3.141,4.286-3.865,8.824-4.833,5.444-1.927,9.332-2.172,6.613.119,8.049-2.651c1.42-2.782.382-2.657,4.269-4.594s3.5-2.418,6.1-2.9,4.275,1.333,7.775-1.448.906-3.021,8.687-3.021,11.03,1.094,13.875,2.051,7.524,3.5,8.687,5.314,2.725,3.989,3.238,3.989,1.175.115,2.987-1.692a77.875,77.875,0,0,1,7-5.432s-.263,3.865-1.425,5.312a6.826,6.826,0,0,0-1.174,4.231c0,.717,2.987-2.3,3.38-2.418s.776,5.313,1.163,5.792,1.561.239,2.725,1.813,2.725,2.782,3.893,5.8,6.093,6.038,9.206,6.516a25.746,25.746,0,0,0,8.168-.119c2.331-.359,2.462-3.141,4.925-2.047s-.125,3.375,5.707,2.9,7.393-2.418,9.724-3.99,2.595,2.178,5.576-1.927,3.5-3.141,4.019-8.094.387-5.917,3.238-10.625,3.51-2.418,5.454-9.292,4.406-13.407,4.151-19.079.119-1.933-1.175-8.34-.388-5.665-4.537-8.322-5.182-1.938-6.224-5.678.262-4.833-1.688-4.833-3.632.844-4.794-1.687-1.031-3.5-3.238-5.918-4.275-1.932-8.3-3.739-1.955-2.3-1.955-5.438.227-6.476-2.975-7.929-1.294.8-1.294-4.35,0-4.424-2.594-5.307-3.461-.8-5.1-3.951-3.8-8.287-4.578-10.374-1.727.239-2.77,1.767a16.189,16.189,0,0,0-2.509,8.048c0,3.135,1.385,4.914,1.385,9.1s-2.936,8.368-4.755,10.785-3.283.239-4.844-.4-1.9-2.981-5.182-4.588-9.332-3.056-12.1-5.552-.866-2.577,0-5.153a13.145,13.145,0,0,1,4.15-6.361c2.074-1.688,1.471-2.337-1.123-3.785s-6.224-1.528-10.637-1.528-7-.32-6.744,2.178,2.851,3.454-.854,2.736c-3.722-.729-6.92-1.049-8.562.718s-2,2.827-2.941,6.606.262,4.019-1.294,4.019-7.7-2.975-9.771-3.853-3.192-.81-5.615,1.448-10.807,9.577-13.919,11.343-2.948,1.368-6.1,11.276M1212.154,566.932c-1.835-.25-2.855-.729-.61,2.167a34.46,34.46,0,0,0,5.016,5.477c2.161,2.012,2.941-1.453,4.584,2.412s1.037,3.945,2.68,5.393,3.026,1.859,3.454,3.306.951,3.7,2.855,5.313,1.9,1.368,3.022,4.5,2.855,5.392,3.722,8.049,5.792,5.153,8.294,8.373,6.749,7.889,7.439,6.6,2.5,0,3.8-.479,1.727-2.338,2.593-6.847-.781-6.6-1.995-7.649-3.454-1.284-4.053-2.252-1.642-4.264-3.112-5.313-1.824.08-1.824-2.5,1.732-2.331-.428-3.779a11.537,11.537,0,0,1-3.119-3.221c-.683-.724-5.353-1.852-6.566-3.141s-6.3-3.625-8.727-6.041-5.1-4.344-5.877-6.112-3.2-3.226-11.15-4.264m50.306,51.919c-2.07,0-3.107-1.209-4.492,1.288s-1.209,2.5.952,2.5,1.727,1.129,1.636,1.447-1.031-.245,3.374,1.528,7.525,1.049,8.733.4,1.642,1.613,7.7,2.576,9.246-.558,13.134.4,2.947-.484.176-2.571-2.508-.969-5.278-2.981c-2.754-2.011-6.653-2.092-8.466-2.416s1.551,1.932-3.973,1.2c-5.54-.719-3.546.49-6.4-1.362s-2.855-2.172-4.759-2.5-2.331.484-2.331.484m43.914,8.852c-1.556.485-4.754,1.374-3.283,2.012s.338,1.049,4.926.644,8.562-.963,9.16-1.933-.776-.319-2.684-.889-1.728.406-4.321.729a5.576,5.576,0,0,1-3.8-.564m16.08-.324c-3.066.376-2.683,1.048-.262,1.778a12.506,12.506,0,0,0,6.481.558c1.813-.479,2.075-.969,5.449-1.527s4.493-.485,7.166-.81l2.691-.32s-.263-.558-2.081-.478-3.1.159-4.926.159-4.925,1.607-6.224,1.527-3.8-.883-4.407-.483-.6-.8-3.888-.4m17.289,3.945a.623.623,0,0,0-.114.08c-2.138,1.465-2.229,1.87-2.034,3.033a2.194,2.194,0,0,1-.234,1.687,9.179,9.179,0,0,0,5.546-2.565c2.4-2.417,2.5-2.383,4.954-3.26a18.778,18.778,0,0,0,5.255-3.558,15.427,15.427,0,0,1-4.081.239,7.671,7.671,0,0,0-4.931,1.688c-.677.575.673.729-4.361,2.656m-18.069,1.271c-2.252-1.613-4.434-1.386-4.6-.394s-1.949.934,1.226,2.115,6.2,2.719,5.968,1.112-1.619-2.144-2.594-2.833m-20.658-67.117c-1.3,1.853,1.208,1.369-.7,2.982s-3.363.884-5.261,3.3-4.76,4.1-5.968,4.993-5.108,1.926-6.834,4.269a2.3,2.3,0,0,0,.61,3.62s-1.043.48-3.808-.564-2.936-2.332-2.936-2.332-1.989-.08-3.107,2.9-1.739,3.3.245,5.074-1.374,1.847-.946,3.055.439,3.466,1.642,3.706,1.471-1.129,2.948.724.257,7.08,2.155,7.325,3.283-.565,4.925.16,2.851,1.368,5.017.644a7.415,7.415,0,0,1,5.621.643c1.117.644,5.181,2.012,7.17,1.852s2.332.325,2.679-2.5.091-5.473,2.508-7.645,2.508-2.177,2.679-4.19.177-4.1,1.648-6.2,2.331,1.208,3.113-.4,1.556-1.6,1.117-2.411-2.679-.81-3.54-2.338.263-2.338-.781-5.472-1.635-1.933-.171-3.706,2.68-2.093,2.851-3.46.775-1.454,2.6-2.737c1.807-1.288-.291-.684-2.018-1.972s-4.965-6.115-6.977-6.076c-1.083.018-5.188,4.908-6.481,6.76m255.425,170.9c-.832-.609-1.545-.16.359,2.092s2.069,1.607,3.277,1.687,2.253,4.515,2.937,5.644a19.459,19.459,0,0,0,1.99,2.491s.7,4.828.091,7.006-1.9,3.135-2.332,5.153,1.984,1.448,3.546,2.092,1.294.644.69,2.412-2.423,2.576-2.423,2.9,3.546,2.33,5.365.16,4.657-5.393,5.449-7.724c.77-2.338-1.39-1.294,1.118-2.982s2.16-.889,3.459-2.981,2.674-4.264,1.209-5.392-3.107,1.368-4.418,1.852a4.532,4.532,0,0,1-4.144-.325c-1.813-.883-2.16-.883-2.85-2.5a9,9,0,0,0-1.557-2.5s-.525,2.736-1.813,1.858-.958-1.858-1.9-3.386a32.22,32.22,0,0,1-1.562-3.135c-.6-1.129-.085-3.306-3.107-3.626s-2.6-.239-3.38-.8m.524,29.225a32.84,32.84,0,0,0-4.577,5.068,22.254,22.254,0,0,0-3.2,5.717c-.691,1.608-3.2,3.54-7.348,5.712s-5.711,3.061-7.091,5.074-6.309,8.287-6.908,9.018,2.326,1.448,5.358,1.448,7.775,2.735,10.369-.081,5.187-9.5,6.829-11.914,3.2-3.3,5.792-5.637,6.914-6.681,6.914-8.374a15.611,15.611,0,0,0-1.122-4.423,3.252,3.252,0,0,1-3.2,1.607c-2.246-.239-1.813-3.216-1.813-3.216m-20.384,30.919c-3.038-1.607-3.631,1.385-4.121,4.457s1.311.462,3.95-.923,1.328-2.918.171-3.534m-102.793-21.1c-3.421-1.14-2.851,2.1-2.332,4.509a17.844,17.844,0,0,0,2.509,6.357c1.294,2.018,6.133,2.736,8.043,1.858s3.277-3.865,5.182-6.687,2.764-6.037,2.422-7.724-2.764,1.528-4.326,2.252-3.632,2.576-6.567,1.772-3.717-1.932-4.93-2.337m-43.044-172.828c-2.765.644-4.15-1.773-6.4-6.442s-3.974-5.306-9.679-3.22-4.84,1.613-1.037,3.061,4.326,1.933,4.839,1.933,6.053.8,4.84,1.606-6.4,1.608-3.112,3.866,1.9.644,10.551,4.993,10.027,1.129,12.8,6.76,2.759,4.669.513,6.123-5.187,2.895-3.974,3.055a79.578,79.578,0,0,0,9.333.97c5.882.319.347,3.7,6.913,3.7s8.3-2.092,10.894-5.153,3.113-1.448,8.641-.16,7.439,6.117,14.354,8.049,9.851,4.51,5.529.484-5.878-6.919-11.76-11.594-6.219-5.153-7.946-8.693-7.781-7.73-14.518-10.465-10.6-3.119-18.5-5.314c-8.128-2.251-9.508,5.8-12.273,6.442m-45.483-16.1c-2.588,1.808-2.907.7-4.844-.5s-1.4,2.5-5.707.5-5.917-3.01-10.552.4-1.721,4.812-1.835,7.217-3.876,9.223-5.279,11.732-1.385,3.408-.319,5.015,2.588,1,3.232,1.8,0,7.12-.759,9.224,1.837,2.509,4.526,1.9.325-.8.325-3,1.288-3.209,1.288-7.324v-6.009s.757-.4,1.727,1,2.372,5.319,3.552,7.324,2.364,3.506,4.2,2.1,3.546-3,3.546-3-3.546-1.1-3.546-2.309,1.5-2.2-.974-6.212-3.762-4.213-.639-4.413,3.015-3.312,4.84-4.213a9.231,9.231,0,0,1,4.417-.6,4.814,4.814,0,0,0-4.628-1.106c-2.8.8-5.279,1.2-7.651,2.508s-4.417,2.109-4.844-.3a16.559,16.559,0,0,1-.428-6.322c.325-3.306,4.087-.8,6.892-1.6s2.8-.6,8.938-.205,6.566-1,8.4-3.505a25.643,25.643,0,0,0,2.9-5.422s-4.2,3.511-6.778,5.319m14.536-8.772c.547-1-4.5,3.453-5.443,4.343s0,2.172.683,3.465.525,5.712.781,6.675,2.856,1.852,2.856,1.852-.086-2.975.862-4.343,0-3.061,0-5.552-1.38-3.465.262-6.441m-9.941,26.426c-3.967-1.516-5.449-.519-5.449,1.556s-.439,3.108,3.784,3.108,9.007-1.864,1.665-4.663m7.9-1.345c-.975.307-2,3.42-1.443,5.278s1.22.628,3.449.211,1.882-2.172,4.663-2.382,8.568,1.966,8.568,1.966,1.226-1.447-3.215-4.242c-4.458-2.8-6.47-2.593-12.022-.831m-79.087-102.4s-3.974.113-4.583.113-1.99,1.54-2.982,2.143-.992,1.443-.3,3.011,1.852,1.653,3.8,2.178,1.253-.844,2.684-1.368,1.814-1.813,2.12-2.976a4.513,4.513,0,0,1,1.6-2.1c.342-.4-1.123-1.767-1.123-1.893a8.245,8.245,0,0,0-1.214.89m46.811,5.591c-1.562-1.156-2.424,2.9-2.856,4.989s-.952,3.465-.172,4.993.433,2.018.433,2.018l-2.251-1.7a14.421,14.421,0,0,0-.6,3.625c0,1.693-.7,2.417,1.9,3.626s3.461.558,3.8,2.416.348,2.651,2.081,2.976,3.717,1.043,4.406,2.178.342-2.987,1.557-2.742,2.6,1.772,3.46,3.14a2.988,2.988,0,0,0,2.155,1.448s-1.984-3.3-1.117-3.706,1.117-.718-1.13-2.092-4.059-1.044-5.785-1.288-1.727,1.209-3.027-2.171-.256-5.473-.256-6.2.946,1.129,1.989-1.209a12.284,12.284,0,0,0,1.117-6.435c-.171-2.252,1.557-3.142.257-3.22s-5.1,0-5.956-.645m20.566,43.26c.262,1.63-1.55-.456-2.234.479s-1.037.753-2.138,1.208a23.187,23.187,0,0,0-3.756,2.93s-.034-1.6.029-1.961-.81-2.234-1.618-.97a7.409,7.409,0,0,1-3.41,2.987,5.225,5.225,0,0,0-3.169,3.865c-.234,1.631,1.1,1.574,1.1,1.574a10.4,10.4,0,0,0,1.915-2.417c1.2-1.87,1.42-1.813,3.592-2.086s2.006-.239,2.7.935.159,2.964.222,4.264-.063,2.861,2.166,3.62c2.246.758,1.175.063,3.215-.12s2.013-.125,1.716-1.152a17.755,17.755,0,0,1-1.043-3.134c-.126-1.208,1.179-1.722,1.6-1.961s.684,1.208,1.3,2.714.872,1.448,1.134.3.97-3.859.713-5.313a20.244,20.244,0,0,1-.387-3.773,4.7,4.7,0,0,0-1.591-3.079c-.587-.427-2.593-2.2-2.593-2.2s.3,1.658.546,3.289m-9.947-9.855s.045-1.027-1.83-2.868-1.926-2.376-4.795-2.873-5.722.25-4.514,3.324,1.563,3.522,3.985,3.893a4.986,4.986,0,0,0,3.888-.946s.182.49-2.1,1.927-2.547,4.178-.758,5.244,1.744,2.7,2.776,1.881,1.785-3.643,3.888-5.61,2.235-2.251,2.509-4.342a16.592,16.592,0,0,0,.046-3.768Zm4.9-5.9c-.262.205-1.755-.153-.2,1.357s2.982,1.841,2.788,2.952-.063,1.335-.934,1.209-1.141-.33-1.528-.359-.445.724-.189,1.419.189-.091.935,1.083.553,1.573.781,2.93.809.7.809.7-.193-3.261-.1-3.922-.261-2.268.838-1.755.81,2.451,1.459.638a8.315,8.315,0,0,0,.04-4.862c-.324-1.453-1.464-1.511-2.793-1.511a10.26,10.26,0,0,0-1.91.126m-22.362,5.581c-.644.16-1.043.787-1.431,2.993s-1.624,3.352-2.947,4.646-4.937,4.77-5.125,5.466c-.205.69-.233.268,2.463-1s4.828-2.953,5.141-4.675c.336-1.721-.313-.661,2.058-1.778s1.163-1.482,1.26-3.237-.235-2.714-1.42-2.412M1461.761,605c-.292,2.241.643,2.907-1.432,4.549s-4.406,1.653-6.618,2.019-.593-.366-3.323-.446-3.42.12-2.16,1.488.946,2.7,4.965,2.536,7.348-2.331,9.948-3.135,2.376-2.9,2.594-3.865-3.677-5.558-3.973-3.146m11.229,4.833c1.112,1.58.689,1.335,2.116,3.421s3.682,2.457,5.364,3.022.006-.6-1.249-2.292-1.345-2.622-3.2-4.309-4.97-2.616-3.027.159m-146-135.359c-5.541,3.523-8.038,3.261-5.832,7.729s3.585,6.362,3.888,7.206,1.425-.565,2.93-4.1c1.521-3.546,1.693-8.174,2.3-9.576s-1.385-2.463-3.283-1.254m94.87-173.672c.61,2.337,1.209,5.957-.171,6.356s-2.337,2.982-2.68,5.644-1.037,6.03.428,8.128.433,2.246.433,4.024.519,6.275-.348,8.932-1.38,3.3-1.032,6.117,0,3.38,0,7.41-.256,7.239-.085,8.847,1.032-.8,1.636-1.362a3.56,3.56,0,0,1,4.235.484l1.305,1.369s2.069.884-.781-5.233-3.369-4.828-2.593-10.386,1.208-5.632,4.144-6.2,4.492,3.466,4.845,3.865-.262-1.368-1.3-4.5-1.989-4.184-2.331-8.129-1.561-7.25-3.112-8.373-.775-2.981-.085-4.509a12.684,12.684,0,0,0,.61-6.521,69.049,69.049,0,0,0-1.557-7.81c-.439-1.448-2.166.883-2.166.883Zm-2.594,61.666a7.72,7.72,0,0,1-.861,5.388c-1.214,2.011-.348,2.5-1.037,5.312s-4.064,0-4.064.57a5.863,5.863,0,0,1-1.386,3.294c-.861.724-3.808.889-2.941,3.706a39.838,39.838,0,0,0,2.428,5.791,13.918,13.918,0,0,1,2.241-1.766c.524-.16,1.9-.559,1.9-.559s-.256-.809-2.16-1.693a2.6,2.6,0,0,1-1.471-3.3c.262-.57,2.679.16,4.235,0s2.855-.969,4.76.558a12.637,12.637,0,0,0,4.668,2.1,14.24,14.24,0,0,1,1.2-3.865c.867-1.606,3.376-.889,5.883-1.606s4.406-1.13,3.546-2.179-.781-3.38-1.306-5.152-2.16-.08-3.454.564-2.936.16-4.669-.963-4.839-5.392-5.962-7.086c0,0-1.733-.884-1.557.889m-7.741,26.4c-.821.4-1.875,2.536-1.681,4.891s2.2-.182-.394,7.063-3.893,8.875-6.418,10.751-4.856,1.87-5.831,1.386.262-2.115.975-2.6-2.212-.662-3.438-.479-.068,1.573-.2,2.713-2.524,4.23-2.263,5.621.257,1.813-1.3,2.291-2.588-1.152-3.044-1.391-2.788.428-5.837.844-3.819,1.448-5.12,3.688-4.349,2.594-6.549,3.437-1.362,3.991-3.763,5.074-2.4,3.079-2.594,4.708,1.488.484,1.751.365.262-2.3,1.755-2.052,1.682.3.9,1.989-1.226,2.537-2,3.985.257,2.115,1.42,3.569,2.274-.428,4.731-3.022,2.662-3.2,2.469-6.161-1.175-3.022-2.982-3.859-2.212,0-.2-2.3,2.919-.056,4.281-1.082,4.669-.97,7.844-1.751,6.23-1.807,6.356-.787,1.105,4.469,1.226,5.193,2.217-1.026,4.343-1.813c2.143-.787.137-1.14-.063-2.531a2.371,2.371,0,0,1,.975-2.178s1.106,2.3,4.538.667,3.7-2.3,4.6-2.058,1.495,1.152,2.913.246,1.693-.064,1.431.666,4.15-1.39,5.119-2.052.456-.063.063-2.6-1.619-2.714-.9-5.974a28.747,28.747,0,0,0,.712-5.622c.189-2.051.969-2.348,1.488-2.473s.525-2.839,1.619-4.281.843-2.115.843-5.438-1.818-2.72-1.937-5.068a17.718,17.718,0,0,1,.444-4.651s-3.693,1.39-4.075,2.234l-.4.844s-.576-.6-1.813,0m-24.2,36.282a67.69,67.69,0,0,0-8.8,1.773c-2.276.73-2.76,1.728-2.406,4a47.17,47.17,0,0,0,1.557,5.723c.313,1.18,1.556,0,3.694-1.134s2-4.452,4.047-4.452,1.288,2.366,4.041-.952.667-3.591.753-5.267-2.885.313-2.885.313m242.252-178.8c-4.1-.8-5.283-1.688-5.659-.206-.394,1.494-.826,1.978,1.766,2.9s3.889-.685,6.317,1.128,3.107,1.728,4.964,1.488a4,4,0,0,0,2.594-1.168s-6.869-3.54-9.982-4.144m-46.822-64.5c-1.5.421-2.729-1.026-2.337,2.656s1.226,4.1,5.957,3.437,1.168-.177,7.655-.661,7.838-1.391,7.838-1.391a11.415,11.415,0,0,0-3.107-3.5c-2.206-1.686-5.125,1.152-10.119.3a54.824,54.824,0,0,0-5.889-.844m-146.071-54.4c.064,1.413,6.482,5.369,8.813,6.521s4.145.662,9.08.119,5.319-2.65,5.894-3.859-2.331-.787-5.631-1.447c-3.318-.673-6.031.6-7.2,0s1.75-1.208-1.169-2.3-3.631.359-4.281-.12-.776-1.516-2.2-1.631-3.374,1.391-3.306,2.714m-25.417,8.271c-2.235.895-2.075,1.692.45,3.8s1.693,1.63.587,3.141,0-.063,3.631,1.567,5.125,4.595,7.394,5.257a5.354,5.354,0,0,0,3.825-.182,20.692,20.692,0,0,0-2.919-5.313c-2.137-2.9-6.748-3.74-7.592-6.276s-2.2-3.267-5.375-2m23.143-11.828s-3.3-1.995-8.3-5.135-6.87-3.986-8.556-4.225-1.42,1.756-2.075,3.317-1.1,1.266-3.7,0-5.187-3.2-7.838-3.808-4.275,1.574-7.324,4.595-1.295,3.866,2.4,8.328,5.318,4.715,8.294,2.959,2.137-2.9,4.282-2.052,9.53-.844,9.792-.844-.456,4.1,2.788,3.022,6.219-1.63,7.713-3.261,2.525-2.9,2.525-2.9M1209.9,37.657c-.946.8-6.481.32-9.336,4.823s-4.833,1.374-6.31,4.11a56.985,56.985,0,0,0-2.68,6.037s2.6,3.061,5.365,2.822a12.275,12.275,0,0,1,10.283,4.669c2.679,3.7,4.669,3.7,11.15,4.743s3.54,1.938,6.92,1.618,8.031.4,7-1.294a7.3,7.3,0,0,1-1.379-6.037c.427-3.3,3.448-3.141-.092-5.312s-6.052-.4-5.877-.8,3.2-1.614,1.99-1.692-7.176-.4-7.867-3.78,1.636-3.632,2.845-3.871.872-.639-2.594-3.135a94.769,94.769,0,0,0-8.117-5.073c-2.16,1.129-.348,1.367-1.3,2.177m32.5,24.386c-2.509.484-4.583,2.981-6.049,5.153a39.214,39.214,0,0,1-6.224,6.92c-1.818,1.447-1.3,1.858,1.643,2.907s8.122-1.858,9.593-1.938,2.594,2.178,7.263,1.607,11.754-1.447,8.3-3.944-2.245-1.289-6.053-4.344a16.718,16.718,0,0,0-8.641-3.3s7.867-2.656,5.968-2.816-5.8-.245-5.8-.245M1042.558,22.357c-4.525,1.624-2.941,2.417-5.882,4.755s-.958,2.974,5.364,1.447,6.652-2.178,10.717-4.024-3.454-4.595-10.2-2.178m10.021,11.355c-4.246,1.881-3.111,3.865-1.984,5.472s4.231-.969,5.091.81,1.129,1.037,5.108-1.619,2.508-1.847.958-4.662-1.9-3.22-9.173,0m-23.616-1.168c-2.718,1.293-2.718,1.145-.137,2.353,2.6,1.209,8.887,2.172,12.125.057s2.992-1.688-1.1-2.291-7.849-1.573-10.888-.119M988.9,37.428a62.165,62.165,0,0,1,11.48-.176c3.364.364,2.132,3.26-4.093,3.927s.587,1.63,4.993,1.447,1.557-3.808,5.256-5.074,6.026-.484,10.432-2.052-2.525-3.078-7.65-2.958-6.806.416-11.15.119-7.849,1.653-12.318,2.417c-9.206,1.568-1.163,2.713,3.05,2.348m33.055,1.152c-3.7,0-12.637,2.053-5.119,2.777s6.943,1.208,10.05.062-1.032-2.839-4.931-2.839m26.2,1.573c-5.279-1.744-5.392-1.031-9.473-.849s-5.7,2.718-3.038,3.8,4.463.661,6.67.308,2.074-1.026.649-1.573,8.3-.661,5.193-1.688m22.169-6.521c-4.048.5-4.281,1.209-4.669,2.531s.581,1.026,4.863.485,6.287-1.146,9.075-2.656-.581-5.194-.581-5.859-3.952,2-5.056,2.958,1.156,1.937-3.632,2.542m-317.5,231.582c-2.041,5.632-5.4,8.231-1.424,6.67s7.952-6.407,7.752-2.253-4.082,3.551-2.862,7.622.308,3.728,6.937,5.2,1.22.958,2.856,4.856,2.747,5.108,1.015,6.236-6.83-3.551-7.132-1.561.707,3.466,1.933,6.236-.815,4.332-4.685,6.15-.513,2.947,2.446,2.776,10.4-1.561,9.171,1.037-4.788-.433-7.331,3.9c-2.559,4.332-11.942,8.055-7.045,7.8s4.184-1.562,18.771-3.636,4.475-.177,14.063-3.124,6.528-3.728,1.227-2.855,3.471-5.206,2.245-10.826c-1.226-5.637-4.685-.263-6.937-3.818s-1.938-4.59,2.349-3.3,3.877-.861-4.39-6.145-3.158-4.247-6.931-8.665-10.193-3.9-10.193-3.9a12.979,12.979,0,0,0,4.378-4.851c1.63-3.2,1.938-2.947,3.671-6.84s-1.733-3.551-6.111-2.606-5.82,1.391-4.9-.342a18.062,18.062,0,0,1,3.569-4.594c2.041-2.167,2.439-3.29-1.328-2.423s-4.343.781-7.542,2.252c-4.9,2.252-1.533,5.369-3.574,11m-10.3,13.254c-6.663,2.627-4.789,4.337-3.666,5.284s3.157-.867-3.061,2.69-6.321,7.444-3.06,8.226,2.856-1.9-.6,4.594c-3.477,6.493-5.814,10.916,1.226,9.269s8.967-5.284,12.329-5.718,3.979-3.118,3.979-7.193-2.241-4.157.41-7.537,2.85-6.931-2.354-8.573-1.015-2.691-5.2-1.043m83.748,90.921c-.359.911.44,3.38-2.251,5.067s1.3,3.226,2.16,4.833,1.99-5.472,1.727-8.858-.513-3.945-1.637-1.043m-1.293,13.361c-4.4,2.081-4.663,3.619-5.193,6.926s3.551.638,2.508,3.534-.079,4.429,4.5,1.7,1.989-5.233,2.68-8.7,1.3-6.2-4.492-3.46m67.766,35.575c-3.865-.376-5.576,2.052,1.037,2.782s9.594.843,12.061.238.383-.119-2.861-2.291-5.313-.245-10.238-.729m36.817,2.052c-5.323-1.145-3.881,5.319,1.563,4.355s3.368.36,5.837-3.625-1.819.479-7.4-.73M797.143,390.393c-4.327.553-4.663,2.018-1.294,2.9s2.936-.16,4.84-1.533-1.636-1.607-3.546-1.368M535.264,311.586c-2.656,2.108-5.706,5.194-9.468,11.954s-3.364,6.042-7,9.781-1.813,2.9,9.468,5.074,10.369,3.865,12.968,3.141,3.113,1.442,3.113,3.745,2.456.957,3.625-2.656-1.169-10.147-3.494-13.886-2.863-3.751-6.488-2.782-2.468-.844-3.756-3.739-3.38-.6-.263-4.953,3.888-7.725,1.294-5.678m-345.115-7.724c0,3.591,3.8,9.736,6.653,11.754s2.251.889.951-3.386-.256-4.264-.866-7-6.738-2.656-6.738-1.367m18.931,19.644a33.274,33.274,0,0,0,6.994,6.68,24.606,24.606,0,0,0,9.166,4.184c4.15,1.208,5.962-.4,3.283-2.816s-.434-2.177-5.273-3.306-5.871-.717-8.3-2.251-7.518-4.184-5.871-2.491m-105.4-40.051c-3.118-.707-4.343-.844-6.487.843s-2.719,3.142-1.55,5.016.45.844,3.169-1.026,1.436-2.115,4.867-2.964,2.725-1.995,2.725-1.995a3.758,3.758,0,0,1-2.725.126m-1.1-4.161c-2.1,1.26-2.793,2.291-.457,1.807s2.007-1.807,3.5-1.51,2.012-.3,2.012-.3-2.85-1.334-5.056,0m-59.842-9.6c-2.85,1.39-5.552-.24-3.791.814s4.15,2.052,6.026,1.842,3.118-.24,2.434-1.146a2.946,2.946,0,0,1-.907-2.082c-.068-1.271-.906-.814-3.762.571M999.68,663.119c-3.289,7.251-10.209,3.706-15.737,9.019s-4.67,3.7-.519,11.109-3.449,6.6-5.364,15.294c-1.9,8.693,2.252,7.086,4.5,14.491s3.29,5.153,7.44,4.184a24.149,24.149,0,0,0,7.085-2.9,103.732,103.732,0,0,1,3.455-15.937c2.769-9.5,4.668-16.422,5.187-22.7s1.037-10.785,2.428-8.858,1.55,1.932,1.55-1.129-1.658-11.663-4.32-13.681c-4.674-3.546-2.423,3.865-5.7,11.1m4.845-495.221c-4.531,1.037-6.68,3.807-3.38,4.891s2.982.49,8.432-1.448-.587-4.469-5.051-3.443m84.7-82.267c-1.546-2.417-2.93.81-18.834,7.73s-15.738.963-30.605,12.717-11.583,10.3-12.45,17.392-4.32,4.019-5.706,10.461-8.983,6.766-5.187,12.079,8.813,8.368,16.765,10.625,10.2-.159,8.481-.969-7.781-10.306-6.573-21.092,5.187-9.177,8.648-13.2,12.443-14.491,18.326-18.036c5.711-3.443,20.92-8.254,28.581-10.888.216-.08.491-.063.633-.217,6.048-6.76-.52-4.183-2.081-6.6M1046.36,158c-1.881.268-2.764.325.7,3.706s6.481,5.956,5.353,1.447-4.321-5.392-6.049-5.153m56.787-32.76c-2.525-1.179-3.882-2.417-4.492-.484s2.856,4.509,6.224,5.152.69-3.539-1.732-4.668M507.988,327.848c-3.841-1.926-7.6-3.459-10.107-3.459s.519,2.65,4.492,4.827,7.867-.238,5.615-1.368m-9.155,16.184c.206-3.193-2.125,3.665.73,5.193s4.332,1.926,6.145.075.336-.684-2.166-1.123-4.88-1.488-4.709-4.145M1631.442,233.1a19.464,19.464,0,0,1-8.168-.849s-.263,3.751-1.681,5.558a3.554,3.554,0,0,0-.4,3.745s-4.662-2.052-7.381-3.022-5.188-.119-6.749-4.229-6.22-3.376-9.85-3.376-2.588-4.708-2.588-4.708l-2.206.115c-2.212.126-1.818,5.438-4.669,7.125s-11.8,2.782-11.8,2.782,5.706,4.1,6.88,7.484a32.578,32.578,0,0,0,3.369,6.641s-.524,1.573-7.4.239-6.475,1.334-13.868,4.344-15.819,7.615-17.894,9.3-2.205.724-8.687-.843-7.776,1.806-9.469,2.656-1.031-3.865-1.031-3.865a12.662,12.662,0,0,0-5.193,1.447c-29.557,15.016-9.172,14.223-10.107,17.261,0,.011-3.119,11.715-3.119,11.72-4.343,12.939-7.353,6.161-11.019,16.417-11.669,32.6-18.417-5.028-18.417-13.641,0-5.319-1.163-12.193,2.211-13.766,29.009-13.51,2.719-1.876,29.95-20.527,8.824-6.037,4.019-9.662,5.963-11.349a11.713,11.713,0,0,1,5.062-2.179l-4.8-.479c-4.8-.478-4.931.6-8.693,4.709s-6.738,4.834-5.963,1.687.907-6.4-1.938-4.7-4.024,1.443-9.337,2.536A26.087,26.087,0,0,0,1476.627,261c-4.8,6.043-2.074,5.313-.518,6.76s-7.656,1.084-12.057.73c-4.417-.365-2.086-1.208.513-2.057s-3.893-1.568-9.6-2.777-3.5.97-6.863,2.292-3.244-1.2-4.93-1.569-9.206-.843-14.519-1.453-4.931.365-6.356,2.178-11.281,10.511-15.562,15.459-9.594,6.037-14.393,10.625-5.576,4.343-1.688,5.074,4.413.353,5.056,3.979,2.469,4.828,6.619,4.828,2.981,1.089,3.756-2.052-1.038-6.755,2.468-3.985,6.35,4.834,7.387,8.819-.262,6.88-2.074,13.526-2.463,16.177-4.931,21.006-4.406,8.453-7.13,13.766-15.95,18.715-18.925,19.923-4.926,1.328-6.357-1.328-2.462-2.178-5.837.844-4.925,4.833-6.219,9.656-4.155,4.833-7.137,8.453-3.756,2.782-1.556,6.886,5.831,8.453,6.225,12.433-1.819,9.781-3.239,12.324-8.168,3.739-8.042,2.531a95.1,95.1,0,0,0,0-10.745c-.262-3.5-2.855-3.5-1.949-4.588s4.674-2.9,1.949-5.439-4.669-.359-5.832-3.375.519-5.438-.125-6.521-2.6-2.291-6.619-2.657-4.93,3.62-5.843.115.4-3.86-1.419-5.307-3.375-.484-8.031,3.5c-4.675,3.984-5.587,3.141-9.474,4.828s-3.889,2.656-2.982,3.99,4.149,7.12,6.87,7.725,4.673-1.209,8.818-1.209c4.161,0,4.93.6,3.893,2.172s-3.893,3.146-8.944,8.214-3.511,4.109-1.818,6.162a35.915,35.915,0,0,1,5.962,8.573c1.819,3.979,0,5.427-.256,7.718s-.65,5.8,2.725,9.429,1.032,2.411.644,3.739-6.094,11.708-8.687,16.908-2.6,5.672-11.02,11.588-12.193,6.522-16.73,7.36a56.255,56.255,0,0,0-10.763,3.145c-2.331.97-1.43,2.9-1.676,4.1-.274,1.209-2.468.12-2.085-1.692s.136-3.141-1.032-3.62a7.36,7.36,0,0,0-8.556,1.687c-3.762,3.625-8.3,3.866-9.862,8.459s-1.288,3.022.4,4.948,9.849,9.782,11.794,14,2.337,7.376,2.468,11.959-9.343,13.043-13.487,15.819-5.062,5.432-4.412,1.082-1.814-6.88-4.794-10.141-12.056-5.917-13.749-6.282.65-3.01-.524-2.9c-1.157.126-3.882-.6-3.495,3.625s-2.718,2.9-3.368,7.126-1.431,8.568,1.293,8.209,2.206,3.745,4.281,8.334,1.288,2.053,6.481,6.276,3.888,3.5,5.062,7.73c1.157,4.224.776,6.64,3.375,10.5,2.583,3.866,2.719,4.709-1.562,2.532s-7.775-4.829-9.468-7.484-2.714-9.423-3.756-12.8-8.038-7.365-10.37-9.782-.911-4.343.258-9.9-.519-10.87-.913-14.245-3.106-12.86-4.412-16.063-.775-2.777-2.787,0-3.557,4.468-5.507,4.468-4.793-.3-4.537-1.573,2.206-6.093,1.625-7.906-2.406-7.611-5.125-9.663a20.824,20.824,0,0,1-7.587-9.656c-1.75-4.765-2.206-3.38-5.575-.906s-11.092,2.776-14.785,3.078-.644,2.115-1.551,3.927-5.25,4.161-14,13.282-10.072,9.417-12.341,10.387-3.682.661-3.608,4.4.4,5.78-.029,9.12-1.425,4.708-2.383,6.84a40.15,40.15,0,0,0-2.28,8.015c-.3,2.007-2.252,4.344-5.1,6.4s-2.85,1.688-4.149-1.327-8.038-14.61-13.481-25.475-4.15-12.8-4.674-15.944-.621-21.987-.387-23.422c.137-.8-2.634,2.211-3.414,3.739s-.736,3.386-3.842,3.665-3.763.325-6.7-2.616-4.287-4.584-3.774-4.5a16.227,16.227,0,0,0,5.848-1.288c1.938-.969,1.288-2.018,1.288-2.018s-2.109.239-4.622.364-1.386-.564-4.709-1.892-4.069-1.448-4.628-2.936-1.38-3.585-1.859-4.715-.86-1.208-1.419-2.609-2.161.238-5.752.319-2.77.239-7.09,1.932-4.971,1.089-9.856.93-8.294-2.258-10.763-3.1-2.85-.485-6.481-1.009-2.85-2.371-3.762-3.9-2.416-1.893-7.176-1.528c-4.743.359-4.926.126-7.6-.6s-2.9-1.687-5.147-3.945-1.511-.479-2.982-1.653a12.522,12.522,0,0,1-4.1-5.912c-1.169-3.14-.907-3.824-2.253-5.272s-1.248-1.088-5.449-1.088-2.28.279-2.8.564a28.2,28.2,0,0,0-2.982,3.58c-1.163,1.447.947,3.466,2.633,5.439s.217,1.766,2.9,4.748,1.766,2.7,3.671,6.84,3.112,5.193,3.539,6.442.827-.484,1.261-1.613-.171-5.154-.171-5.154a25.782,25.782,0,0,1,1.55,4.675c.736,2.975.216,3.015.736,4.914s0,1.642,3.243,1.642a32.245,32.245,0,0,0,8.818-.718c3.591-.845,5.136-4.1,6.823-5.074s1.693-4.349,2.811-3.984.051,3.984,1.082,6.357,1.294,1.527,3.808,2.576c2.5,1.049,3.192,1.653,5.74,2.616s.821,1.09,2.206,3.626,1.3,1.122,2.639,2.012.822.239-.13,3.26-1.124,3.056-3.369,5.513-2.252,1.692-2.594,1.613-1.038-1.813-1.038-1.813a18.969,18.969,0,0,0-1.642,6.361c-.216,3.421,1.123,2.167-2.986,3.819s-6.573,2.338-8.164,3.706-1.6,3.181-2.508,4.064-2.166.079-4.925,1.043-2,.764-4.327,2.543-.262,1.607-3.238,2.73-8.385,3.744-11.11,4.03-2.16,1-2.85,2.007-.741,1.528-4.2,2.052-7.775,1.015-9.9,2.058-5.227,3.38-7.474,2.936-1.642-.524-2.376-2.536a24.185,24.185,0,0,1-1.472-6.76c-.342-3.3-1.516-8.328-3.42-11.509s-1.858-3.387-3.927-6.726-3.46-6.157-5.272-7.445-2.719-1.367-3.591-2.331-.349-4.269-1.249-7.085-1.517-5.552-2.856-7.126a34.732,34.732,0,0,1-5.272-6.715c-1.853-3.346-1.984-3.711-4.658-8.859-2.691-5.153-3.642-5.8-5.409-9.257s-.61-2.782-1.254-4.834-2.337,3.341-3.67,4.39-2.03.524-3.112-2.536-2-5.752-2.811-4.543-1.471,2.411-.353,5.677c1.128,3.249,1.653,2.565,3.117,5.666s5.485,10.876,7.126,14.091,1,1.647,2.514,6.521,2.372,5.472,4.4,7.48,1.693.969,2.6,4.268.565,7.165.7,9.183,1.248,3.056,3.671,5.068,1.208,1.289,2.331,3.42a47.882,47.882,0,0,1,2.9,7.246c.644,2.092,1.425,3.545,3.323,4.469a32.748,32.748,0,0,0,4.327,1.732c1.9.684,1.242,1.163,2.543,2.816s3.807,2.9,5.369,5.518.513,1.847.421,4.383-.9,1.368.223,2.7,3.067,2.417,6.344,4.583.662.651,3.592.57c2.948-.079,3.551-.849,6.7-1.533s7.217-1.852,11.1-2.777,7.69-1.527,9.684-2.177,2.036,1.539.514,4.914-2.241,6.2-3.54,8.938-1.778,2.975-2.725,5.193-7.353,11.264-8.681,14.125a35.318,35.318,0,0,1-4.885,7.53c-1.949,2.371-8.044,6.674-10.893,8.971s-2.121,2.291-4.236,4.994-8.555,10.18-10.3,12.837-2.713,3.625-4.012,6.236-4.966,6.316-5.187,8.208-2.286,2.138-.735,3.791,2.376,1.927,2.941,4.019-1.733,4.469-.257,8.294.428,1.089,2.64,4.145,2.115,4.993,2.326,9.462.432,8.893-.257,11.789a54.858,54.858,0,0,1-2.633,7.41c-.992,2.61-6.442,4.389-9.645,5.791s-3.061.844-4.538,2.617-5.7,5.473-7.125,8.208-2.509,2.458-1.945,4.19,1.762,3.985,3.238,7.206.433,2.975.086,5.757-.3,2.338-.69,5.712-4.367,3.46-8.9,5.233-2.9.889-3.421,3.341-.205,7.285-.387,10.18-1.55,1.733-4.019,5.314-3.454,5.278-6.094,9.581-2.416,3.7-5.751,6.4-5.962,3.375-7.428,6.476-3.157,1.049-10.289,3.341-1.944,1.174-8.727,1.933-9.212,1.293-12.8,1.932-3.119-.193-5.319-2.61-2.548-2.223-3.534-4.23c-1-2.012-.263-2.5-.57-6.122s-.6-3.74-1.938-6-1.26-2.61-2.725-6.2a29.4,29.4,0,0,0-3.768-7c-1.636-2.417-2.115-1.647-3.626-3.22s-1.556-2.942-1.9-5.154-.867-7.445-1.6-12.963-.086-2.576-.958-4.907c-.855-2.332-1.9-5.153-3.369-8.249a44.729,44.729,0,0,0-3.2-6.122,36.942,36.942,0,0,1-3.459-6.635c-1.426-3.347-1.637-1.859-1.723-3.147s.73-3.62.822-5.871.821-4.867,1.374-8.334c.57-3.461-.769-3.42.7-5.8a37.892,37.892,0,0,0,3.938-7.245c.951-2.691.815-2.816.815-6.236s-.349-3.135-1.379-6-1.426-6.2-2.68-10.785-1.215-4.423-1.391-6.2a43.042,43.042,0,0,0-1.9-8.169c-.86-2.411-1.294-1.447-3.193-3.015s-.649-.89-2.29-2.622-1.339-2.291-2.941-4.184a23.309,23.309,0,0,1-3.119-4.1c-1.289-2.132-.593-.844-.422-4.429s1.2-10.425,1.859-14.37.781-3.74-.735-5.392-2.6-4.025-3.762-4.424-3.979.4-8.083.32-3.933-1-5.7-3.061-4.115-4.908-4.936-5.672-2.246-.73-9.24-.205-2.77.649-7.445,1.374c-4.658.724-6.481,3.175-10.067,4.429s-4.623.923-10.934-.325-9.462,1.454-12.666,2.822-4.754.717-7.086-.889A45.478,45.478,0,0,0,740,567.936c-3.579-1.773-2.765-2.736-6.3-4.469s-2.383-1.813-5.319-4.589-3.151-5.592-5.186-8.493-3.768-6.96-6.488-10.021-5.4-9.217-6.737-11.064-2.371-2.018-2.338-2.9,2.64-6.077,3.722-8.773,1.381-2.338,1.853-4.025-.643-6.561-1.682-9.217-2.205-8.254-3.02-10.87.422-2.656,1.424-4.139a89.587,89.587,0,0,0,5.832-9.177c2.462-4.595,3.848-6.846,5.142-8.984s4.275-8.688,6.23-10.46a61.861,61.861,0,0,1,9.024-6.4c2.115-1.082,3.847-1.687,4.195-2.656s1.25-8.933,1.859-12.272-.211-5.193,2.206-6.481,6.31-3.706,8.345-4.834,2.332-2.815,3.364-5.268,1.476-5.551,3.033-6.566,1.123.445,3.152,1.813,2.377,1.454,3.328,1.693,1.814-.77,4.2-.8a5.877,5.877,0,0,1,4.059,1.049c1.419.758.644.763,4.714-1.733a64.419,64.419,0,0,1,12.621-6c5.312-1.972,8.944-3.06,11.406-3.34s1.208.033,3.979,1.129,2.895,1.568,3.454.758,2.376-3.061,3.545-2.975,2.509.564,5.49,1.089,4.236.238,5.45-.4,2.759-1.933,3.061-1.933a51.168,51.168,0,0,1,4.931,1.654c2.074.763,2.115.884,1.687,1.4a10.843,10.843,0,0,0-2.03,3.341c-1,2.256-.524,1.048.428,3.426s1.642,2.252,1.208,3.985-2.376,3.34-3.8,5.027-1.078,1.972,2.423,3.951a49.57,49.57,0,0,0,6.612,3.414c3.933,1.773,4.1,1.129,8.688,2.5s4.019,1.528,5.615,3.386,1.687,3.621,4.452,4.583,5.706.97,7.309,1.973,2.9,2.457,5.061,2.862,2.149.684,3.193-.889,1.9-2.975,1.517-3.785-1.562-2.052-1.305-2.815a53.66,53.66,0,0,1,2.639-4.743c.57-.929,1.995-1.174,5.409-1.334s5.786-.644,6.351,1.368.433,1.088,3.066,2.178,2.9,1.082,5.1,1.932,1.083,2.046,2.205,1.967a13.551,13.551,0,0,1,5.011.364c2.076.6,5.877,2.417,9.9,2.577a10.133,10.133,0,0,0,6.186-1.334c.6-.274,3.454-3.774,5.147-1.362s3.882,2.457,8.117,2.212,4.281-.884,5.233-1.973a29.4,29.4,0,0,0,4.326-8.009c.816-2.816,3.061-8.971,3.666-11.754s-.041-4.948-.257-6.6a9.16,9.16,0,0,1,.827-4.634c.644-1.847-2.035-.725-3.119-.36s-1.379-.564-2.371-.849-2.035-.524-2.77,1.335-.394,2.775-4.367,2.576-3.237-.445-4.537-1.859-3.5-1.766-5.279-2.291-1.938-.444-2.069.684-.171,1.893-1.466,2.338-4.235-.08-6.7-1.249a16.191,16.191,0,0,1-5.621-4.11c-2.422-2.37-2.069-2.37-3.067-6.03s-.992-6.807-.558-7.889,1.123-1.408-.736-.844-3.119.878-1.863-1.892,2.417-2.9,3.722-3.267a34.887,34.887,0,0,1,5.746-.559,14.084,14.084,0,0,0,5.228-1.772c.866-.365,2.644-.97,1.732-1.208s-3.631-.525-3.157-1.289.78-.724,2.246-.884,3.761-.246,5.711-.36,3.107.239,3.762-.929,1.459-2.9,2.975-3.825,3.158-.445,7.138-.6,3.363.8,4.662,1.733,2.16.479,3.854.8.644,1.328,1.938,1.853,3.677,1.048,6.567,1.972,1,.524,4.536.524a24.472,24.472,0,0,0,6.231-.445c2.8-.485,3.978-1.528,5.963-2.942s.6-4.469-.126-6.84-3.854-3.9-5.279-4.988-4.491-4.555-6.133-5.957-3.552-1.813-5.365-2.815-5.056-2.662-5.358-3.99.7-1.362,3.375-2.007,1.819-1.208,2.327-2.622c.524-1.4.74-1.368,2.94-2.172s-2.542-2.5-3.2-3.413c-.643-.935,1.471-.651,3.677-1.175s2.383-1.568,2.68-2.5.211-1.368-2.376-1.323-5.878,1.123-10.244,2.291-2.372,1.209-5.01,3.261-2.811,1.163-2.463,2.291.513,2.212,3.193,3.625,1.55,1.448,2.3,1.653,2.548.48,1.727.725-1.562,1.522-2.771,1.522-1.732,1.248-3.8,2.417a10.99,10.99,0,0,1-4.492,1.572c-1.51.24-2.593-.245-2.383-2.821s-.775-.838-2.376-1.443a5.956,5.956,0,0,1-2.206-1.294,18.191,18.191,0,0,0,3.2-1.567,6.185,6.185,0,0,0,3.112-3.58c.776-1.973-1.733-.889-3.546-1.129s-1.3-.4-3.066-.644a3.324,3.324,0,0,1-2.463-1.647,5.4,5.4,0,0,0,2.331.159c1.511-.159,1.175-.565,1.728-.969s1-.764.565-.764-2.292.2-3.54.12a13.388,13.388,0,0,0-3.808,0c-1.818.279-1.082.963-2.376,1.807a4.623,4.623,0,0,0-2.03,2.383c-.69,1.242-.911,1.043-1.385,1.847s-.433,2.816-.433,4.19a4.081,4.081,0,0,1-1.168,2.936c-.821,1.129-.821.644-2.206,1.323s-.473,1.174-.644,2.542-.65,1.893-.781,3.666-.821,1.847-1.9,3.095-1.687,1.242-1.773,2.536a15.367,15.367,0,0,0,0,4.344c.3,2.5.992,1.852,2.941,4.389s2.981,1.573,2.286,2.856-.558.809-2.941.524-2.759.08-4.487,1.733-2.086,2.577-2.986,3.181-.6-1.208-.947-2.058-4.327-1.123-7.051-1.933-3.461-1.288-4.15-1.288-1.744-.16-4.6,1.413-2.206,2.474-2.007,4.526,2.457,2.473,1.813,7.3,2.4,2.6,3.694,5.558.132,2.713-.643,3.078-1.557,2.9-2.143,5.313.063,2.718-.65,2.6-1.551.421-2.913-1.573-2.461-.115-2.661-1.266-1.882-3.077-1.232-5.734,1.688-2.9-.65-4.286-1.744-1.573-2.85-4.413a15.969,15.969,0,0,0-3.495-5.974c-2.148-2.593-1.955-1.869-1.368-4.468S873.3,378,872,376.188a43.354,43.354,0,0,0-11.086-9.178c-4.407-2.348-5.313-.541-7.262-4.286s-2.839-7.667-6.088-9.964-1.618-2.474-4.732-1.323-3.18,1.63-2.918,2.531a7.742,7.742,0,0,1,.513,4.595c-.456,2.468-1.1,1.687,2.144,3.614s1.881,1.516,3.5,5.073,1.881,4.231,3.181,5.678,1.751,2.713,4.993,3.443,2.719-.182,3.557.6-2.268,1.082-1.681,1.447a29.708,29.708,0,0,0,4.019,3.078c2.725,1.687,5.518,3.443,6.231,4.771s3.107,6.333-.394,2.65-3.563-1.983-4.537.548.9,4.468.781,6.338-1.755,1.152-2.862,2.656-1.681,3.318-2.981,4.287-.907-1.083-1.613-1.083-.975.9-1.882,2.65,0,2.48.383,4.835,1.043,2.536-1.488,2.416-1.949-2.479-4.275-4.047-3.695-1.027-5.643-2.241c-1.945-1.2.843-1.5,5.7-2.109s5.444-1.083,6.938-2.229.969-1.454,2.594-3.745,0-3.2-1.105-5.985a10.144,10.144,0,0,0-3.889-4.583,39.111,39.111,0,0,1-3.756-3.741c-1.43-1.572-2.924-1.812-5.387-2.416s-2.006-2.84-3.368-3.5-2.725-2.6-5.837-5.5-1.938-5.074-3.369-7.605-2.85-4.469-5.968-4.469-5.443,2.172-8.555,5.188-2.463,4.469-6.095,2.177-4.919-2.051-7.524.12c-2.582,2.172-3.107,4.349-3.107,8.693s-3.112,2.536-5.576,3.739-4.668,4.23-8.424,11.355.256,3.739-.525,6.156.263,4.35-3.237,7.484-1.949-.359-4.019,2.178a10.131,10.131,0,0,1-9.856,3.985c-4.93-.6-3.506,1.328-6.618,2.053s-4.794,1.813-4.019-1.693.131-3.016-5.832-2.777-8.042,1.814-7.524.969.78-2.3,1.436-5.676,1.551-4.469.65-4.469-2.862.49-1.43-5.552,1.943-7.126,1.293-10.625.251-8.214-.513-10.266c-.78-2.046,1.551-4.1.513-5.194s-2.206-2.53-1.425-2.53a54.408,54.408,0,0,1,8.168.843c4.156.724,8.426-.6,10.894-.364s7.65,1.327,12.831,2.177,5.056-.73,4.543-8.334.387-11.1-1.174-12.678-3.232-1.447-4.92-3.5-.394-5.073-4.018-6.162-7.661-.239-5.707-.963c1.938-.729,2.719-.97.65-2.537-2.085-1.567-2.6-3.255-1.043-3.505s5.963-.239,5.963-.239.393,2.178,2.73,1.208,5.312-1.926,4.669-3.5-1.819-3.5-1.437-3.5,1.305,2.171,6.225,2.171,4.537-.724,4.156-2.776,3.243-1.932,5.706-3.625-.912-3.62-.387-5.187,3.368-2.542,8.424-2.895,4.145-1.215,3.632-1.814.131-3.146.513-6.4c.4-3.266-.382-4.349,2.212-5.917s1.813-.963,7.131-1.453,2.07-1.688,2.975-1.927,7.262-1.813,8.431-2.3,1.044-.353,0-2.656c-1.043-2.286-2.462-3.614-3.625-14.24s-.912-10.625,5.569-12.558,5.062-1.327,4.537,4.589-3.369,5.917-4.019,10.261-.125,7,2.594,11.594,2.468,2.292,8.3,2.292,4.538,1.447,8.425,2.776,2.594-2.412,6.362-3.745,2.975.849,11.794-.479c3.363-.507,4.508-.627,4.77-.65-.268.018-1.237.029-.234-.559,2.075-1.208,2.594-3.38,5.581-3.744s5.05.849,4.919-3.745-1.813-3.859-1.294-7.365.644-1.926.906-4.708-.381-3.26,3.376-4.224,1.168,3.38,5.7,4.344,3.893,1.692,4.674-1.807,3.243-8.094,1.032-7.849-2.719-.119-4.925-3.38-3.495-3.985-2.07-3.985,6.219-1.328,13.088-1.089,8.824.844,9.205.119-1.163-1.441,1.168-2.9,9.987.725,8.819-.6-7.907-3.141-12.444-2.412-15.562,2.053-17.249,1.927-4.794-1.328-5.575-2.167-3.244-1.453-3.244-5.438,1.431-5.552-.906-9.417,4.275-7.126,8.818-11.23,3.375-7.49,6.089-7.729c2.73-.24,3.773-1.688,2.468-3.022s-6.094-5.917-8.431-6.4-5.832-3.142-9.462,3.141.256,6.88.911,10.141-5.062,5.677-9.342,8.692-5.826,2.3-7.131,10.021-2.595,7.975,2.205,10.625,5.706,3.985,3.506,6.277-6.874,2.178-9.73,7.615-1.682,8.083-2.851,10.5-4.794,3.5-5.837,5.917-1.032,7-5.444,6.282-1.943-6.647-3.893-9.668-3.5-5.551-5.831-9.291-.513-7.365-2.725-9.3-2.725-5.792-2.725-5.792l-.776,1.813c-.775,1.813-.387,2.895-4.794,8.335s-11.025,5.791-14.269,4.463-2.719-4.463-2.719-8.454-.781-9.3-.131-15.573,2.468-5.8,9.343-9.9,6.994-3.866,8.682-6.522,6.617-6.4,9.462-8.818,7.786-11.589,10.374-18.109,7.388-10.506,12.057-17.507,12.968-13.161,23.6-17.625,8.824-4.953,11.275-8.459c2.468-3.5,3.512-1.448,7.656-2.291s3.5,0-.651,4.1-5.956,8.454-2.462,5.193,6.219-7.125,11.669-6.88,3.243,0,8.562,2.416,6.224,2.651,3.249,4.584c-3,1.932-8.049,1.453-8.049,1.453a8.374,8.374,0,0,0,6.613,4.588c4.93.605,7.65-3.864,10.893-2.177s4.15,2.9-.262,2.537-5.7,2.411-.256,4.342,5.962,2.172,13.093,3.142,10.249,6.156,15.687,8.453c5.455,2.3,11.8.36,9.993,5.319s1.42,9.776-8.043,12.073-9.212-.729-17.113-3.146a139.809,139.809,0,0,1-13.481-4.829,51.193,51.193,0,0,0,5.7,6.162c3.626,3.375,4.019,6.516,3.626,12.678s-2.075,7.849,4.155,10.864,5.319,2.172,7.257,1.693,5.187-1.09,4.406-2.058-1.425-2.77-3.5-3.739-2.2-3.261-.125-4.35,4.012.964,8.555.725,0-1.688,2.2-3.98,2.343-6.156,7.655-8.219,11.013.969,12.45-1.323,2.982-4.948,0-8.454-5.318-4.7-3.505-6.4,5.449-6.156,7.136-3.621,5.964,5.319.519,4.829-1.693,8.1,3.238,7.61,4.538-2.052,8.562-3.984,11.925-8.335,17.5-10.266,6.743-1.448,8.944-.48,2.205,2.777,8.305,1.568,7.906-2.656,13.612-3.625-.388,2.058,2.2,2.9,2.855,1.573,4.8.251,8.169-3.505,5.318-5.677-4.937-3.625-4.937-3.625a7.762,7.762,0,0,1,7.525-4.224c5.443.359,13.737,5.432,19.061,9.057s11.8,11.344,11.8,11.344,2.326-3.978.382-10.625-6.868-5.068-6.868-11.344-4.543-4.594-2.982-9.057,5.962-6.162,7.137-11.84c1.157-5.667,2.2-10.375,6.219-10.375s12.707,1.2,12.707,1.2,0,5.193-3.243,12.922,1.687,8.574.912,17.991-.912,10.625,1.293,12.8,6.362,4.834,4.8,8.933-2.337,6.647-8.169,8.938-13.224.969-10.51,2.781a25.9,25.9,0,0,0,10.117,3.979c3.893.6,1.944-.239,5.056-2.777s10.119-7.61,9.856-10.026-4.019-6.157-1.424-7.969,3.625-4.584,7.649-2.291,7.912,10.87,7.912,10.506-.781-8.454-5.575-13.276-12.706-.251-12.706-4.469,2.2-10.027,1.681-14.615-2.326-9.178.65-13.157,3.112-7.126,3.112-7.126a17.016,17.016,0,0,1,.256,8.447c-1.032,4.709.526,7.491,2.726,7.491s12.056.126,6.743-1.447-6.869-3.022-1.557-5.917,5.057-.969,12.831.844,9.594,3.141,12.194,3.021,2.206-.364,1.294-2.657a10.327,10.327,0,0,0-4.537-5.438c-2.468-1.568-4.144.365-4.926-2.052s-2.2-8.453-2.855-10.745,1.949-.484,6.093-.484,15.432-.6,24.124-.844.131-9.3-.524-15.7,16.081-6.64,24.243-7.843,17.637-.844,32.937-4.47,5.449-3.021,7.65-7.364,5.968-5.074,10.506-5.074,8.692.844,7.005,1.447-6.744,3.135,1.163,4.834,5.844,1.562,1.688,3.016-.644,4.1,7.387,4.1,3.243-.724,1.944-3.38,1.175-1.693,7.786-.6,9.206,2.177,12.837,5.551,4.276,2.543,5.57,7.251-.126,3.979-5.7,8.328-8.944,4.349-16.987,9.422-6.1,7.725-10.5,11.1-3.243,2.416,6.089,0,14.393-3.985,19.2-3.5c4.788.478,7.126,2.29,10.756,2.29s-.256.6,11.156.6,9.713,0,5.569,3.261.78,4.23,5.837,4.23,11.28.239,15.943-.485c4.681-.724.656-4.224,6.231-4.469s7.388-.724,13.351-.724,4.149,2.417,6.224,4.588,4.926,3.621,2.982,7.969-2.982,4.464-1.819,10.38,4.156,6.76,7.786,7.849,3.626-5.307,7.131-7.484,4.281,4.343,8.3,3.38a23.846,23.846,0,0,1,12.056.6,19.563,19.563,0,0,0,11.412.61c4.925-1.089,3.369-3.015,1.688-6.036s-1.819-2.782,1.294-5.917,5.187-1.573,15.3,1.083,6.875,2.656,12.575,4.23,3.893,1.209,12.58,5.193,7.006,8.693,11.019,11.224,4.281,0,12.324-.718,7.907.963,16.726,3.261,6.475,5.187,6.475,7.729-2.457,4.469,2.987,5.672,7.65,2.292,12.318,1.089.518,1.2,10.893,1.323,6.874-1.2,9.987.969,3.888,6.522,8.944,6.042,4.669-.364,2.594-4.833-3.375-5.2-.387-5.074,9.074,1.447,20.35,3.261,11.669,3.865,20.886,9.662c9.2,5.8,11.789,6.276,18.537,11.469,2.571,1.978,3.079,2.548,3.135,2.7a16.2,16.2,0,0,1,3.483,1.408c7.251,3.38,5.963,2.3,12.187,5.313a70.781,70.781,0,0,1,11.526,7.246s.4.6-4.269,1.088M1026.478,355.826s-.69.924,2.941-1.978-1.693-.119-3.767-.724-2.725-1.573-2.07-4.223-.263-2.663-2.468-6.162c0,0-1.169-.718-3.626.725s-3.888-1.443-6.874-.36-6.224.6-8.043,5.074-3.888,1.567-4.532,5.186-6.23,5.552-6.23,5.552,2.211,2.178,3.893,4.23.519.729,2.2,7.491,2.861,6.156,5.193,7.119a51.337,51.337,0,0,1,5.962,3.267s-2.2-1.334-2.2,2.291-3.506,6.157-3.118,11.469-4.794,10.261-.644,10.751,2.85,2.291,7.387,3.5,7.126,2.053,13.749,2.053c6.606,0,2.975-2.536,2.069-6.282a51.113,51.113,0,0,1-1.681-10.261c-.262-4.1-1.819-3.021-2.856-5.551s.519-3.99,3.625-3.99,3.511-.12,1.818-2.9-.638-3.865-2.731-5.074c-2.063-1.208-2.975,3.99-2.975,3.99s-1.294-1.209-.776-6.282.907-2.656-.643-3.625-2.474.239-4.544-3.136-.256-2.656-2.718-6.76-1.175-1.937,1.55-1.937,1.294-.6,0-1.927-2.2-3.386,1.294-3.141,8.043.964,9.725,1.089,1.089.524,1.089.524M542.731,169.78c-1.2,2.063,2.03,4.708,4.367,3.887s3.1.092,4.429-.974,1.454-2.618-.126-4.149-.94-2.429-1.2-2.595c-2.981-1.825-6.265,1.767-7.468,3.831M1183.716,36.648c-3.505.12-7.4.244-4.15,1.328s1.944,6.521,8.164,3.5,4.93-3.261,9.212-5.074,1.8-.941-3.369-2.291c-3.244-.845-6.356,2.416-9.856,2.536" transform="translate(-38.388 0)" fill="#e4e4e4"/>
  </g>
</svg>
